<svg xmlns="http://www.w3.org/2000/svg" width="16.392" height="19.35" viewBox="0 0 16.392 19.35">
  <g id="Group_5427" data-name="Group 5427" transform="translate(0.5 0.5)">
    <g id="Group_3140" data-name="Group 3140" transform="translate(3.471)">
      <path id="Path_4502" data-name="Path 4502" d="M203.918,112.18a2.793,2.793,0,1,1-2.793,2.793,2.8,2.8,0,0,1,2.793-2.793m0-1.432a4.225,4.225,0,1,0,4.225,4.225,4.225,4.225,0,0,0-4.225-4.225Z" transform="translate(-199.693 -110.748)" fill="#676d72" stroke="#676d73" stroke-width="1"/>
    </g>
    <g id="Group_3141" data-name="Group 3141" transform="translate(0 9.939)">
      <path id="Path_4503" data-name="Path 4503" d="M210.573,132.078H195.181v-.715a7.7,7.7,0,0,1,15.392,0Zm-13.92-1.432H209.1a6.265,6.265,0,0,0-12.447,0Z" transform="translate(-195.181 -123.667)" fill="#676d72" stroke="#676d73" stroke-width="1"/>
    </g>
  </g>
</svg>
