<svg xmlns="http://www.w3.org/2000/svg" width="84" height="47.824" viewBox="0 0 84 47.824">
  <g id="Group_5447" data-name="Group 5447" transform="translate(-46.287 -16.884)">
    <g id="flat" transform="translate(46.287 16.884)">
      <path id="Path_12906" data-name="Path 12906" d="M65.425,359.833H81.258l-.391-2.735a6.6,6.6,0,0,0-3.58-4.968L61.027,344h-8.8l-16.26,8.13a6.6,6.6,0,0,0-3.58,4.968L32,359.833H47.833" transform="translate(-32 -312.334)" fill="#48351b"/>
      <path id="Path_12907" data-name="Path 12907" d="M424,452.4V448.88a.88.88,0,0,1,1.759,0V452.4Z" transform="translate(-380.899 -404.899)" fill="#332613"/>
      <path id="Path_12908" data-name="Path 12908" d="M159.037,344,152,347.518l2.639,5.278,4.4-3.518Z" transform="translate(-138.806 -312.334)" fill="#5f4623"/>
      <path id="Path_12909" data-name="Path 12909" d="M158.157,402.555h-3.518L152,394.639,158.157,392Z" transform="translate(-138.806 -355.057)" fill="#6e5129"/>
      <path id="Path_12910" data-name="Path 12910" d="M296,344l7.037,3.518L300.4,352.8l-4.4-3.518Z" transform="translate(-266.973 -312.334)" fill="#5f4623"/>
      <path id="Path_12911" data-name="Path 12911" d="M304,402.555h3.518l2.639-7.916L304,392Z" transform="translate(-274.093 -355.057)" fill="#6e5129"/>
      <path id="Path_12912" data-name="Path 12912" d="M224.8,312v2.159l-.027.019a7.8,7.8,0,0,1-8.769-.019V312Z" transform="translate(-195.769 -283.853)" fill="#e6af89"/>
      <path id="Path_12913" data-name="Path 12913" d="M208.88,312v3.518l-.88,2.639,5.278,5.278,5.278-5.278-.88-2.639V312Z" transform="translate(-188.649 -283.853)" fill="#fdc9a6"/>
      <path id="Path_12914" data-name="Path 12914" d="M224.8,312v2.159l-.027.019a7.8,7.8,0,0,1-8.769-.019V312Z" transform="translate(-195.769 -283.853)" fill="#e6af89"/>
      <path id="Path_12915" data-name="Path 12915" d="M218.555,368l-5.278,5.278L208,368v13.194h10.555Z" transform="translate(-188.649 -333.695)" fill="#026ca2"/>
      <path id="Path_12916" data-name="Path 12916" d="M72,452.4V448.88a.88.88,0,0,1,1.759,0V452.4Z" transform="translate(-67.602 -404.899)" fill="#332613"/>
      <path id="Path_12917" data-name="Path 12917" d="M152,71.833V63.914a6.365,6.365,0,0,1,1.864-4.5l1.549-1.549a6.365,6.365,0,0,1,4.5-1.864h4.865a6.365,6.365,0,0,1,5.693,3.518,4.931,4.931,0,0,1,4.1,2.2,1.759,1.759,0,0,1,.3.976v9.143Z" transform="translate(-138.806 -56)" fill="#55300b"/>
      <path id="Path_12918" data-name="Path 12918" d="M184.8,135.1a7.8,7.8,0,0,1-7.238-4.9A21.788,21.788,0,0,1,176,122.107v-6.359l2.639-4.478h12.315l2.639,4.478v6.359a21.788,21.788,0,0,1-1.559,8.093A7.8,7.8,0,0,1,184.8,135.1Z" transform="translate(-160.167 -105.193)" fill="#fdc9a6"/>
      <g id="Group_5413" data-name="Group 5413" transform="translate(18.472 12.314)">
        <path id="Path_12919" data-name="Path 12919" d="M275.518,169.759H272.88a.88.88,0,1,1,0-1.759h2.639a.88.88,0,0,1,0,1.759Z" transform="translate(-264.083 -168)" fill="#55300b"/>
        <ellipse id="Ellipse_271" data-name="Ellipse 271" cx="1.339" cy="0.893" rx="1.339" ry="0.893" transform="translate(8.796 2.966)" fill="#55300b"/>
        <path id="Path_12920" data-name="Path 12920" d="M203.518,169.759H200.88a.88.88,0,1,1,0-1.759h2.639a.88.88,0,1,1,0,1.759Z" transform="translate(-200 -168)" fill="#55300b"/>
        <circle id="Ellipse_272" data-name="Ellipse 272" cx="0.893" cy="0.893" r="0.893" transform="translate(0.761 2.966)" fill="#55300b"/>
      </g>
      <path id="Path_12922" data-name="Path 12922" d="M242.639,212.4H240.88a.88.88,0,0,1-.88-.88V208.88a.88.88,0,1,1,1.759,0v1.759h.88a.88.88,0,1,1,0,1.759Z" transform="translate(-217.13 -191.287)" fill="#e6af89"/>
      <path id="Path_12923" data-name="Path 12923" d="M147.518,176H146.3a2.3,2.3,0,0,0-2.3,2.3v1.552a2.3,2.3,0,0,0,2.3,2.3h2.1Z" transform="translate(-131.686 -162.806)" fill="#fdc9a6"/>
      <path id="Path_12924" data-name="Path 12924" d="M328.88,176H330.1a2.3,2.3,0,0,1,2.3,2.3v1.552a2.3,2.3,0,0,1-2.3,2.3H328Z" transform="translate(-295.455 -162.806)" fill="#fdc9a6"/>
      <path id="Path_13132" data-name="Path 13132" d="M234.491,267.366a5.17,5.17,0,0,1-1.981-.4.831.831,0,1,1,.636-1.536,3.489,3.489,0,0,0,2.689,0,.831.831,0,1,1,.636,1.536,5.17,5.17,0,0,1-1.981.4Z" transform="translate(-209.862 -241.695)" fill="#e6af89"/>
    </g>
    <g id="flat-2" data-name="flat" transform="translate(88.725 19.822)">
      <path id="Path_13005" data-name="Path 13005" d="M155.6,82.6h1.884a5.459,5.459,0,0,0,5.395-6.294l-1.717-11.094a10.41,10.41,0,0,0-20.709.26L138.486,75.8a5.458,5.458,0,0,0,.48,3.461l.16.32a5.459,5.459,0,0,0,4.883,3.018Z" transform="translate(-129.829 -56)" fill="#026ca2"/>
      <path id="Path_13006" data-name="Path 13006" d="M146.929,184h-1.253a2.176,2.176,0,0,0-2.176,2.176v1.467a2.176,2.176,0,0,0,2.176,2.176h2.032Z" transform="translate(-134.408 -170.7)" fill="#fdc9a6"/>
      <path id="Path_13007" data-name="Path 13007" d="M92.439,365.318,80.937,360H72.625l-11.5,5.318a6.235,6.235,0,0,0-3.13,3.242L56,373.3H97.562l-1.993-4.739A6.235,6.235,0,0,0,92.439,365.318Z" transform="translate(-56 -328.413)" fill="#eaeae8"/>
      <path id="Path_13008" data-name="Path 13008" d="M183.2,317.9l-1.369-.634a16.2,16.2,0,0,1-.659-4.572V312h-8.312v.7a16.191,16.191,0,0,1-.675,4.626l-1.249.58-3.019,1.4c.023.053.049.1.073.158l-.064.026.1.044a9.976,9.976,0,0,0,18.2-.228Z" transform="translate(-156.291 -285.401)" fill="#fdc9a6"/>
      <path id="Path_13009" data-name="Path 13009" d="M186.224,370.2a9.98,9.98,0,0,1-18.3,0l3.019-1.4a6.653,6.653,0,0,0,12.265,0Z" transform="translate(-156.291 -336.299)" fill="#e82f3e"/>
      <path id="Path_13010" data-name="Path 13010" d="M96,452.156v-3.325a.831.831,0,0,1,1.662,0v3.325Z" transform="translate(-91.844 -407.27)" fill="#cbcbcb"/>
      <path id="Path_13011" data-name="Path 13011" d="M400,452.156v-3.325a.831.831,0,0,1,1.663,0v3.325Z" transform="translate(-364.257 -407.27)" fill="#cbcbcb"/>
      <path id="Path_13012" data-name="Path 13012" d="M154.909,230.65a3.355,3.355,0,1,1,2.909-3.325A3.142,3.142,0,0,1,154.909,230.65Zm0-4.987c-.675,0-1.247.761-1.247,1.662s.571,1.662,1.247,1.662,1.247-.761,1.247-1.662S155.585,225.662,154.909,225.662Z" transform="translate(-142.025 -206.544)" fill="#a8a8a8"/>
      <path id="Path_13013" data-name="Path 13013" d="M328.675,184h1.253a2.176,2.176,0,0,1,2.176,2.176v1.466a2.176,2.176,0,0,1-2.177,2.176H328Z" transform="translate(-299.738 -170.7)" fill="#fdc9a6"/>
      <path id="Path_13014" data-name="Path 13014" d="M223.516,313.881a6.513,6.513,0,0,1-.619.436,6.684,6.684,0,0,1-7.059,0,6.6,6.6,0,0,1-.718-.515c.027-.368.039-.737.039-1.106V312h8.312v.7Q223.472,313.29,223.516,313.881Z" transform="translate(-198.587 -285.401)" fill="#e6af89"/>
      <path id="Path_13015" data-name="Path 13015" d="M178.764,130.717a21.911,21.911,0,0,1-2.264-9.7v-1.782a1.606,1.606,0,0,1,1.406-1.593,8.312,8.312,0,0,0,6.847-5.619l.008-.023.008.023a8.312,8.312,0,0,0,6.847,5.619,1.606,1.606,0,0,1,1.406,1.593v1.782a21.911,21.911,0,0,1-2.264,9.7,6.687,6.687,0,0,1-11.992,0Z" transform="translate(-163.98 -106.181)" fill="#fdc9a6"/>
      <g id="Group_5418" data-name="Group 5418" transform="translate(14.962 12.468)">
        <path id="Path_13016" data-name="Path 13016" d="M274.825,177.662h-2.494a.831.831,0,1,1,0-1.662h2.494a.831.831,0,1,1,0,1.662Z" transform="translate(-264.071 -176)" fill="#683b0d"/>
        <circle id="Ellipse_285" data-name="Ellipse 285" cx="1.143" cy="1.143" r="1.143" transform="translate(8.156 2.39)" fill="#683b0d"/>
        <path id="Path_13017" data-name="Path 13017" d="M203.273,177.662h-2.442a.831.831,0,1,1,0-1.662h2.442a.831.831,0,0,1,0,1.662Z" transform="translate(-200 -176)" fill="#683b0d"/>
        <circle id="Ellipse_286" data-name="Ellipse 286" cx="1.143" cy="1.143" r="1.143" transform="translate(1.091 2.39)" fill="#683b0d"/>
      </g>
      <path id="Path_13018" data-name="Path 13018" d="M234.491,267.366a5.17,5.17,0,0,1-1.981-.4.831.831,0,1,1,.636-1.536,3.489,3.489,0,0,0,2.689,0,.831.831,0,1,1,.636,1.536,5.17,5.17,0,0,1-1.981.4Z" transform="translate(-213.71 -243.615)" fill="#e6af89"/>
      <path id="Path_13019" data-name="Path 13019" d="M242.494,227.325h-1.662a.831.831,0,0,1-.831-.831v-1.662a.831.831,0,0,1,1.662,0v.831h.831a.831.831,0,1,1,0,1.662Z" transform="translate(-220.882 -206.544)" fill="#e6af89"/>
    </g>
  </g>
</svg>
