<svg id="img_back_puntos" xmlns="http://www.w3.org/2000/svg" width="81.014" height="84.931" viewBox="0 0 81.014 84.931">
  <path id="Path_12437" data-name="Path 12437" d="M665.488,73.241h0a6.786,6.786,0,0,0,6.787,6.785h28.376a6.785,6.785,0,0,0,6.785-6.785V44.864a6.785,6.785,0,0,0-6.785-6.785h0A35.163,35.163,0,0,0,665.488,73.241Z" transform="translate(-665.488 -38.079)" fill="#37aefd"/>
  <path id="Path_12438" data-name="Path 12438" d="M689.343,85.3h0a20.974,20.974,0,0,0,20.974,20.974h0A20.974,20.974,0,0,0,731.29,85.3h0a20.974,20.974,0,0,0-20.974-20.974h0A20.974,20.974,0,0,0,689.343,85.3Z" transform="translate(-650.276 -21.342)" fill="#fff"/>
</svg>
