<svg xmlns="http://www.w3.org/2000/svg" xmlns:xlink="http://www.w3.org/1999/xlink" width="180.801" height="83.394" viewBox="0 0 180.801 83.394">
  <defs>
    <linearGradient id="linear-gradient" x1="0.367" y1="0.096" x2="0.815" y2="0.922" gradientUnits="objectBoundingBox">
      <stop offset="0" stop-color="#fff" stop-opacity="0"/>
      <stop offset="1" stop-color="#00aec5"/>
    </linearGradient>
    <linearGradient id="linear-gradient-2" x1="0.615" y1="0.529" x2="0.144" y2="-0.139" gradientUnits="objectBoundingBox">
      <stop offset="0" stop-color="#fff" stop-opacity="0"/>
      <stop offset="1" stop-color="#0080c8"/>
    </linearGradient>
    <linearGradient id="linear-gradient-3" x1="-0.763" y1="0.507" x2="-0.253" y2="0.504" xlink:href="#linear-gradient-2"/>
    <linearGradient id="linear-gradient-4" x1="0.219" y1="-43.817" x2="0.69" y2="-43.828" xlink:href="#linear-gradient"/>
  </defs>
  <g id="logo_jaliscosedefiende" transform="translate(7.343 12.375)">
    <g id="Group_3676" data-name="Group 3676" transform="translate(60.756 15.063)">
      <g id="Group_3674" data-name="Group 3674" transform="translate(0 0.594)">
        <path id="Path_12000" data-name="Path 12000" d="M493.536,903.01a9.779,9.779,0,0,1-6.432-2.051,8.327,8.327,0,0,1-2.92-5.686q-.094-.87.839-.87h5a.881.881,0,0,1,.932.746,2.9,2.9,0,0,0,4.847,1.181,3.326,3.326,0,0,0,.776-2.3v-7.767h-3.738a.87.87,0,0,1-.621-.233.791.791,0,0,1-.249-.606v-3.915a.792.792,0,0,1,.249-.606.87.87,0,0,1,.621-.233h9.828a.756.756,0,0,1,.87.839v12.056q0,4.631-2.563,7.038T493.536,903.01Z" transform="translate(-484.176 -878.463)" fill="#7b868c"/>
        <path id="Path_12001" data-name="Path 12001" d="M522.807,900.83a.794.794,0,0,1-.683.963,12.837,12.837,0,0,1-2.858.343q-3.325-.032-4.629-1.8a8.127,8.127,0,0,1-5.313,1.8,7.785,7.785,0,0,1-5.842-2.3,9.138,9.138,0,0,1,0-11.978,7.813,7.813,0,0,1,5.842-2.284,6.364,6.364,0,0,1,4.443,1.522v-.124q0-.808.87-.808h4.6q.839,0,.839.808V895.3a2.174,2.174,0,0,0,.186,1.072.779.779,0,0,0,.715.295,4.011,4.011,0,0,0,.558-.031q.839,0,.932.714Zm-12.335-3.511a2.771,2.771,0,0,0,2.207-.932,4.4,4.4,0,0,0,0-5.08,2.75,2.75,0,0,0-2.207-.949,2.657,2.657,0,0,0-2.143.964,4.322,4.322,0,0,0,0,5.034A2.656,2.656,0,0,0,510.471,897.319Z" transform="translate(-481.133 -877.589)" fill="#7b868c"/>
        <path id="Path_12002" data-name="Path 12002" d="M525.748,903.2a6.693,6.693,0,0,1-4.132-1.135,3.738,3.738,0,0,1-1.492-3.153V880.454q0-.839.871-.839h4.846q.87,0,.871.839v16a1.784,1.784,0,0,0,.2.995.843.843,0,0,0,.731.279,2.843,2.843,0,0,0,.465-.031q.84,0,.932.714l.373,3.481a.821.821,0,0,1-.683.963A13.017,13.017,0,0,1,525.748,903.2Z" transform="translate(-477.767 -878.651)" fill="#7b868c"/>
        <path id="Path_12003" data-name="Path 12003" d="M531.912,885.633a3.7,3.7,0,0,1-2.64-.964,3.432,3.432,0,0,1,0-4.893,4.031,4.031,0,0,1,5.267,0,3.4,3.4,0,0,1,0,4.893A3.717,3.717,0,0,1,531.912,885.633Zm-2.422,17.119q-.871,0-.871-.838V888.181q0-.808.871-.808h4.846q.869,0,.871.808v13.734q0,.838-.871.838Z" transform="translate(-476.319 -878.797)" fill="#7b868c"/>
        <path id="Path_12004" data-name="Path 12004" d="M543.074,902.136a11.452,11.452,0,0,1-5.717-1.29,4.99,4.99,0,0,1-2.672-3.5.623.623,0,0,1,.125-.621.931.931,0,0,1,.683-.217h4.07a1.542,1.542,0,0,1,.994.559,3.093,3.093,0,0,0,2.486.778q1.584,0,1.584-.778,0-.558-.963-.792a19.461,19.461,0,0,0-2.315-.389,19.607,19.607,0,0,1-2.718-.513,4.455,4.455,0,0,1-2.331-1.507,4.631,4.631,0,0,1-.963-3.075A4.382,4.382,0,0,1,537.45,887a9.7,9.7,0,0,1,5.531-1.429,10.7,10.7,0,0,1,5.453,1.259,5.027,5.027,0,0,1,2.595,3.371.664.664,0,0,1-.171.622.944.944,0,0,1-.668.217h-4.009a1.122,1.122,0,0,1-.932-.5,2.278,2.278,0,0,0-2.082-.839q-1.677,0-1.678.715,0,.56,1.025.854a19.631,19.631,0,0,0,2.471.513,22.889,22.889,0,0,1,2.9.637A5.187,5.187,0,0,1,550.375,894a4.311,4.311,0,0,1,1.025,2.982,4.251,4.251,0,0,1-2.143,3.822A11.779,11.779,0,0,1,543.074,902.136Z" transform="translate(-475.176 -877.589)" fill="#7b868c"/>
        <path id="Path_12005" data-name="Path 12005" d="M558.213,902.136a9.452,9.452,0,0,1-6.634-2.285,8.457,8.457,0,0,1,0-12.009,10.7,10.7,0,0,1,12.366-.575,6.79,6.79,0,0,1,2.781,4.553.7.7,0,0,1-.171.636.9.9,0,0,1-.668.233h-4.039a1.116,1.116,0,0,1-.994-.715,2.663,2.663,0,0,0-2.61-1.522,3.047,3.047,0,0,0-2.314.932,3.416,3.416,0,0,0-.886,2.456,3.453,3.453,0,0,0,.886,2.485,3.042,3.042,0,0,0,2.314.932,2.583,2.583,0,0,0,2.61-1.553,1.162,1.162,0,0,1,.994-.683h4.039a.908.908,0,0,1,.668.232.7.7,0,0,1,.171.637,6.786,6.786,0,0,1-2.781,4.552A9.45,9.45,0,0,1,558.213,902.136Z" transform="translate(-472.605 -877.589)" fill="#7b868c"/>
        <path id="Path_12006" data-name="Path 12006" d="M573.446,902.136a9.35,9.35,0,0,1-6.588-2.285,8.494,8.494,0,0,1,0-12.009,9.4,9.4,0,0,1,6.588-2.268,9.5,9.5,0,0,1,6.633,2.268,8.457,8.457,0,0,1,0,12.009A9.451,9.451,0,0,1,573.446,902.136Zm0-5.128a3.2,3.2,0,0,0,2.345-.87,3.426,3.426,0,0,0,0-4.6,3.2,3.2,0,0,0-2.345-.87,3.171,3.171,0,1,0,0,6.338Z" transform="translate(-469.878 -877.589)" fill="#7b868c"/>
      </g>
      <g id="Group_3675" data-name="Group 3675" transform="translate(7.089 28.977)">
        <path id="Path_12007" data-name="Path 12007" d="M494.684,915.622a5.892,5.892,0,0,1-3.071-.716,2.818,2.818,0,0,1-1.415-1.975q-.051-.415.4-.415l1.984.018a.655.655,0,0,1,.465.276q.329.673,1.621.673a1.886,1.886,0,0,0,.829-.154.477.477,0,0,0,.31-.432.547.547,0,0,0-.389-.5,2.948,2.948,0,0,0-.974-.214,9.4,9.4,0,0,1-1.268-.19,7.945,7.945,0,0,1-1.268-.381,2.108,2.108,0,0,1-.974-.8,2.519,2.519,0,0,1-.389-1.45,2.376,2.376,0,0,1,1.113-2.035,5,5,0,0,1,2.923-.776,5.49,5.49,0,0,1,2.874.69,2.664,2.664,0,0,1,1.354,1.845.31.31,0,0,1-.069.294.418.418,0,0,1-.31.1h-1.967a.556.556,0,0,1-.449-.242,1.353,1.353,0,0,0-1.363-.656,1.879,1.879,0,0,0-.82.156.468.468,0,0,0-.318.415.6.6,0,0,0,.405.527,3.1,3.1,0,0,0,1.009.266,11.985,11.985,0,0,1,1.32.233,8.821,8.821,0,0,1,1.32.405,2.268,2.268,0,0,1,1.01.811,2.382,2.382,0,0,1,.406,1.415,2.347,2.347,0,0,1-1.13,2.07A5.745,5.745,0,0,1,494.684,915.622Z" transform="translate(-490.193 -902.233)" fill="#00e399"/>
        <path id="Path_12008" data-name="Path 12008" d="M502.934,915.622a5.041,5.041,0,0,1-3.563-1.251,4.264,4.264,0,0,1-1.354-3.286,4.37,4.37,0,0,1,1.293-3.288,5.369,5.369,0,0,1,6.868-.016,4.378,4.378,0,0,1,1.241,3.252c0,.046,0,.124-.008.233s-.008.192-.008.249c-.012.243-.161.363-.448.363h-5.987a1.835,1.835,0,0,0,.706,1.078,2.144,2.144,0,0,0,1.295.389,1.587,1.587,0,0,0,1.174-.414.839.839,0,0,1,.516-.225h2.175a.382.382,0,0,1,.319.121.307.307,0,0,1,.025.31,3.483,3.483,0,0,1-1.56,1.82A5.211,5.211,0,0,1,502.934,915.622Zm-1.967-5.332h3.622a1.685,1.685,0,0,0-1.759-1.571,1.857,1.857,0,0,0-1.243.441A1.781,1.781,0,0,0,500.967,910.291Z" transform="translate(-488.798 -902.233)" fill="#00e399"/>
        <path id="Path_12009" data-name="Path 12009" d="M520.956,915.571a.361.361,0,0,1-.31.449,6.106,6.106,0,0,1-1.5.208,2.535,2.535,0,0,1-2.38-1.105,3.7,3.7,0,0,1-2.864,1.105,4.539,4.539,0,1,1,0-9.075,3.873,3.873,0,0,1,2.364.725v-4.331a.35.35,0,0,1,.4-.4h2.328a.35.35,0,0,1,.4.4V912.9c0,.46.185.69.553.69a1.834,1.834,0,0,0,.4-.035c.265-.022.414.086.449.329Zm-8.022-2.312a1.772,1.772,0,0,0,1.4.6,1.792,1.792,0,0,0,1.4-.6,2.6,2.6,0,0,0,0-3.157,1.792,1.792,0,0,0-1.4-.6,1.773,1.773,0,0,0-1.4.6,2.571,2.571,0,0,0,0,3.14Z" transform="translate(-486.772 -902.839)" fill="#00e399"/>
        <path id="Path_12010" data-name="Path 12010" d="M524.34,915.622a5.041,5.041,0,0,1-3.563-1.251,4.264,4.264,0,0,1-1.354-3.286,4.366,4.366,0,0,1,1.294-3.288,5.367,5.367,0,0,1,6.867-.016,4.379,4.379,0,0,1,1.242,3.252c0,.046,0,.124-.008.233s-.009.192-.009.249c-.012.243-.162.363-.448.363h-5.987a1.837,1.837,0,0,0,.707,1.078,2.137,2.137,0,0,0,1.294.389,1.587,1.587,0,0,0,1.174-.414.842.842,0,0,1,.517-.225h2.174a.383.383,0,0,1,.319.121.3.3,0,0,1,.025.31,3.483,3.483,0,0,1-1.56,1.82A5.208,5.208,0,0,1,524.34,915.622Zm-1.967-5.332H526a1.685,1.685,0,0,0-1.759-1.571,1.857,1.857,0,0,0-1.243.441A1.787,1.787,0,0,0,522.373,910.291Z" transform="translate(-484.981 -902.233)" fill="#00e399"/>
        <path id="Path_12011" data-name="Path 12011" d="M529.795,915.964c-.276,0-.415-.132-.415-.4v-5.52h-1.621c-.276,0-.414-.133-.414-.4V907.89c0-.253.138-.381.414-.381h1.621V906.8a3.8,3.8,0,0,1,1.078-2.889,4.244,4.244,0,0,1,3.046-1.027,7.931,7.931,0,0,1,2.226.311.393.393,0,0,1,.311.465l-.259,1.657q-.051.413-.466.311a5.468,5.468,0,0,0-1.259-.156,1.674,1.674,0,0,0-1.114.353,1.164,1.164,0,0,0-.423.939v.742h2.605c.265,0,.4.127.4.381v1.759a.351.351,0,0,1-.4.4H532.52v5.52a.35.35,0,0,1-.4.4Z" transform="translate(-483.569 -902.886)" fill="#00e399"/>
        <path id="Path_12012" data-name="Path 12012" d="M536.591,906.261a1.789,1.789,0,0,1-1.284-.484,1.576,1.576,0,0,1-.509-1.19,1.548,1.548,0,0,1,.509-1.182,1.807,1.807,0,0,1,1.284-.475,1.787,1.787,0,0,1,1.269.475,1.546,1.546,0,0,1,.508,1.182,1.574,1.574,0,0,1-.508,1.19A1.769,1.769,0,0,1,536.591,906.261Zm-1.172,9.695a.351.351,0,0,1-.4-.4v-7.676q0-.38.4-.381h2.33q.414,0,.413.381v7.676q0,.4-.413.4Z" transform="translate(-482.24 -902.878)" fill="#00e399"/>
        <path id="Path_12013" data-name="Path 12013" d="M543.214,915.622a5.041,5.041,0,0,1-3.563-1.251,4.264,4.264,0,0,1-1.354-3.286,4.366,4.366,0,0,1,1.294-3.288,5.367,5.367,0,0,1,6.867-.016,4.379,4.379,0,0,1,1.242,3.252c0,.046,0,.124-.008.233s-.009.192-.009.249c-.012.243-.161.363-.448.363h-5.987a1.837,1.837,0,0,0,.707,1.078,2.14,2.14,0,0,0,1.294.389,1.588,1.588,0,0,0,1.174-.414.842.842,0,0,1,.517-.225h2.174a.382.382,0,0,1,.319.121.3.3,0,0,1,.025.31,3.483,3.483,0,0,1-1.56,1.82A5.209,5.209,0,0,1,543.214,915.622Zm-1.966-5.332h3.622a1.685,1.685,0,0,0-1.759-1.571,1.857,1.857,0,0,0-1.243.441A1.787,1.787,0,0,0,541.247,910.291Z" transform="translate(-481.617 -902.233)" fill="#00e399"/>
        <path id="Path_12014" data-name="Path 12014" d="M553.382,906.547a3.669,3.669,0,0,1,2.7,1.018,3.624,3.624,0,0,1,1.026,2.691v4.658q0,.4-.414.4h-2.312q-.415,0-.415-.4v-4.071a1.717,1.717,0,0,0-.4-1.2,1.389,1.389,0,0,0-1.086-.441,1.528,1.528,0,0,0-1.13.423,1.573,1.573,0,0,0-.423,1.164v4.123a.351.351,0,0,1-.4.4h-2.33a.35.35,0,0,1-.4-.4v-5.021a.8.8,0,0,0-.139-.535.6.6,0,0,0-.464-.154,1.472,1.472,0,0,0-.293.034q-.431,0-.431-.329v-1.672a.428.428,0,0,1,.31-.449,4.1,4.1,0,0,1,1.432-.242,2.491,2.491,0,0,1,2.208,1.086A3.882,3.882,0,0,1,553.382,906.547Z" transform="translate(-480.157 -902.233)" fill="#00e399"/>
        <path id="Path_12015" data-name="Path 12015" d="M567.65,915.571a.362.362,0,0,1-.311.449,6.1,6.1,0,0,1-1.5.208,2.536,2.536,0,0,1-2.381-1.105,3.7,3.7,0,0,1-2.864,1.105,4.539,4.539,0,1,1,0-9.075,3.868,3.868,0,0,1,2.364.725v-4.331a.351.351,0,0,1,.4-.4h2.33a.351.351,0,0,1,.4.4V912.9c0,.46.184.69.552.69a1.835,1.835,0,0,0,.4-.035c.265-.022.415.086.449.329Zm-8.023-2.312a1.927,1.927,0,0,0,2.795.008,2.6,2.6,0,0,0,0-3.157,1.927,1.927,0,0,0-2.795.008,2.572,2.572,0,0,0,0,3.14Z" transform="translate(-478.448 -902.839)" fill="#00e399"/>
        <path id="Path_12016" data-name="Path 12016" d="M571.034,915.622a5.036,5.036,0,0,1-3.562-1.251,4.261,4.261,0,0,1-1.355-3.286,4.371,4.371,0,0,1,1.294-3.288,5.367,5.367,0,0,1,6.867-.016,4.379,4.379,0,0,1,1.242,3.252c0,.046,0,.124-.008.233s-.01.192-.01.249c-.012.243-.161.363-.448.363h-5.987a1.837,1.837,0,0,0,.707,1.078,2.143,2.143,0,0,0,1.295.389,1.591,1.591,0,0,0,1.174-.414.837.837,0,0,1,.516-.225h2.175a.379.379,0,0,1,.318.121.3.3,0,0,1,.026.31,3.488,3.488,0,0,1-1.56,1.82A5.216,5.216,0,0,1,571.034,915.622Zm-1.967-5.332h3.622a1.683,1.683,0,0,0-1.759-1.571,1.854,1.854,0,0,0-1.242.441A1.788,1.788,0,0,0,569.067,910.291Z" transform="translate(-476.657 -902.233)" fill="#00e399"/>
      </g>
      <path id="Path_12017" data-name="Path 12017" d="M535.927,882.339a4.047,4.047,0,1,1-4.047-4.046A4.048,4.048,0,0,1,535.927,882.339Z" transform="translate(-476.393 -878.293)" fill="#00e399"/>
    </g>
    <g id="Group_3677" data-name="Group 3677" transform="translate(74.993 5.156)">
      <path id="Path_12018" data-name="Path 12018" d="M496.41,876.43c-.137,0-.182-.066-.133-.2l2.648-5.921a.19.19,0,0,1,.187-.126h1.044a.2.2,0,0,1,.2.126l2.63,5.921a.145.145,0,0,1,0,.143.138.138,0,0,1-.124.053h-1.132a.2.2,0,0,1-.2-.124l-.49-1.151h-2.809l-.482,1.151a.2.2,0,0,1-.2.124ZM498.7,874h1.872l-.945-2.22Z" transform="translate(-496.258 -869.831)" fill="#7b868c"/>
      <path id="Path_12019" data-name="Path 12019" d="M505.688,871.694a1.894,1.894,0,0,1,1.408.539,1.946,1.946,0,0,1,.535,1.432v2.328a.149.149,0,0,1-.168.169h-1c-.118,0-.178-.057-.178-.169v-2.15a1.03,1.03,0,0,0-.255-.731.882.882,0,0,0-.681-.277.989.989,0,0,0-.718.263.927.927,0,0,0-.273.7v2.2a.149.149,0,0,1-.168.169h-1a.15.15,0,0,1-.17-.169v-2.8a.307.307,0,0,0-.348-.348,1.787,1.787,0,0,0-.2.026c-.13,0-.2-.047-.2-.143V872a.184.184,0,0,1,.134-.2,1.76,1.76,0,0,1,.642-.107,1.109,1.109,0,0,1,1.07.562A2.1,2.1,0,0,1,505.688,871.694Z" transform="translate(-495.184 -869.563)" fill="#7b868c"/>
      <path id="Path_12020" data-name="Path 12020" d="M510.14,876.479a1.876,1.876,0,0,1-1.377-.495,1.806,1.806,0,0,1-.5-1.35V873.09h-.821a.149.149,0,0,1-.168-.169v-.74a.15.15,0,0,1,.168-.17h.821v-1.133a.149.149,0,0,1,.168-.168h1a.149.149,0,0,1,.168.168v1.133H511a.15.15,0,0,1,.169.17v.74a.149.149,0,0,1-.169.169h-1.4v1.5a.713.713,0,0,0,.2.535.738.738,0,0,0,.54.2,2.779,2.779,0,0,0,.669-.081.149.149,0,0,1,.2.134l.115.767a.183.183,0,0,1-.133.2A4.316,4.316,0,0,1,510.14,876.479Z" transform="translate(-494.295 -869.738)" fill="#7b868c"/>
      <path id="Path_12021" data-name="Path 12021" d="M513.642,876.3a2.5,2.5,0,0,1-1.774-.633A2.172,2.172,0,0,1,511.19,874a2.224,2.224,0,0,1,.655-1.677,2.364,2.364,0,0,1,1.716-.633,2.31,2.31,0,0,1,1.7.623,2.229,2.229,0,0,1,.628,1.651c0,.035,0,.087,0,.155s0,.117,0,.147a.169.169,0,0,1-.187.152h-3.2a1.12,1.12,0,0,0,.424.633,1.249,1.249,0,0,0,.753.232.934.934,0,0,0,.732-.269.364.364,0,0,1,.214-.088h1a.173.173,0,0,1,.138.048.124.124,0,0,1,0,.131,1.805,1.805,0,0,1-.794.873A2.624,2.624,0,0,1,513.642,876.3Zm-1.159-2.675h2.132a.964.964,0,0,0-.295-.682,1,1,0,0,0-.722-.263,1.106,1.106,0,0,0-.745.263A1.071,1.071,0,0,0,512.483,873.629Z" transform="translate(-493.596 -869.563)" fill="#7b868c"/>
      <path id="Path_12022" data-name="Path 12022" d="M519.192,876.626a1.588,1.588,0,0,1-.994-.285.925.925,0,0,1-.371-.775v-5.511a.15.15,0,0,1,.17-.17h1a.15.15,0,0,1,.17.17v5.083c0,.225.1.338.3.338a1.142,1.142,0,0,0,.267-.027c.119-.012.181.035.187.143l.09.74a.157.157,0,0,1-.143.187A2.343,2.343,0,0,1,519.192,876.626Z" transform="translate(-492.413 -869.885)" fill="#7b868c"/>
      <path id="Path_12023" data-name="Path 12023" d="M525.943,876.009a.158.158,0,0,1-.144.187,2.38,2.38,0,0,1-.668.107,1.172,1.172,0,0,1-1.124-.544,2.2,2.2,0,0,1-1.5.544,2.31,2.31,0,0,1-1.689-.642,2.436,2.436,0,0,1,0-3.326,2.318,2.318,0,0,1,1.689-.641,2,2,0,0,1,1.268.41v-.1a.15.15,0,0,1,.169-.17h.98a.15.15,0,0,1,.171.17v2.8q0,.348.293.348a1.19,1.19,0,0,0,.277-.027c.119-.012.18.035.186.143Zm-3.318-.75a1.036,1.036,0,0,0,.812-.351,1.481,1.481,0,0,0,0-1.819,1.033,1.033,0,0,0-.812-.352,1.07,1.07,0,0,0-.83.352,1.451,1.451,0,0,0,0,1.819A1.073,1.073,0,0,0,522.625,875.26Z" transform="translate(-491.996 -869.563)" fill="#7b868c"/>
      <path id="Path_12024" data-name="Path 12024" d="M530.7,871.694a2.331,2.331,0,0,1,1.7.641,2.439,2.439,0,0,1,0,3.326,2.322,2.322,0,0,1-1.7.642,2.048,2.048,0,0,1-1.241-.383v2.148c0,.107-.057.161-.17.161h-1c-.113,0-.17-.054-.17-.161v-4.877a.307.307,0,0,0-.348-.348,1.784,1.784,0,0,0-.2.026c-.13,0-.2-.047-.2-.143V872a.184.184,0,0,1,.133-.2,1.764,1.764,0,0,1,.642-.107,1.1,1.1,0,0,1,1.079.569A2,2,0,0,1,530.7,871.694Zm-.925,3.214a1.051,1.051,0,0,0,.818.351,1.073,1.073,0,0,0,.824-.351,1.435,1.435,0,0,0,0-1.819,1.07,1.07,0,0,0-.824-.352,1.048,1.048,0,0,0-.818.352,1.468,1.468,0,0,0,0,1.819Z" transform="translate(-490.71 -869.563)" fill="#7b868c"/>
      <path id="Path_12025" data-name="Path 12025" d="M538.559,876.009a.158.158,0,0,1-.143.187,2.388,2.388,0,0,1-.669.107,1.172,1.172,0,0,1-1.124-.544,2.2,2.2,0,0,1-1.5.544,2.31,2.31,0,0,1-1.69-.642,2.436,2.436,0,0,1,0-3.326,2.319,2.319,0,0,1,1.69-.641,1.993,1.993,0,0,1,1.267.41v-.1a.15.15,0,0,1,.168-.17h.98a.15.15,0,0,1,.171.17v2.8q0,.348.293.348a1.189,1.189,0,0,0,.277-.027c.119-.012.182.035.187.143Zm-3.318-.75a1.035,1.035,0,0,0,.812-.351,1.481,1.481,0,0,0,0-1.819,1.031,1.031,0,0,0-.812-.352,1.07,1.07,0,0,0-.83.352,1.451,1.451,0,0,0,0,1.819A1.073,1.073,0,0,0,535.24,875.26Z" transform="translate(-489.747 -869.563)" fill="#7b868c"/>
      <path id="Path_12026" data-name="Path 12026" d="M541.468,871.694a1.9,1.9,0,0,1,1.409.539,1.95,1.95,0,0,1,.535,1.432v2.328a.15.15,0,0,1-.17.169h-1c-.119,0-.179-.057-.179-.169v-2.15a1.03,1.03,0,0,0-.255-.731.88.88,0,0,0-.681-.277.989.989,0,0,0-.718.263.932.932,0,0,0-.273.7v2.2a.149.149,0,0,1-.168.169h-1a.149.149,0,0,1-.168-.169v-2.8a.307.307,0,0,0-.348-.348,1.757,1.757,0,0,0-.2.026c-.131,0-.2-.047-.2-.143V872a.184.184,0,0,1,.133-.2,1.759,1.759,0,0,1,.642-.107,1.11,1.11,0,0,1,1.07.562A2.1,2.1,0,0,1,541.468,871.694Z" transform="translate(-488.805 -869.563)" fill="#7b868c"/>
      <path id="Path_12027" data-name="Path 12027" d="M549.076,876.331a.147.147,0,0,1-.133.187,2.429,2.429,0,0,1-.687.107,1.149,1.149,0,0,1-1.123-.561,2.064,2.064,0,0,1-1.481.561,2.312,2.312,0,0,1-1.69-.642,2.439,2.439,0,0,1,0-3.326,2.321,2.321,0,0,1,1.69-.641,2.05,2.05,0,0,1,1.241.383v-2.345a.15.15,0,0,1,.169-.17h1.007a.149.149,0,0,1,.17.17v5.083c0,.225.1.338.293.338a1.087,1.087,0,0,0,.269-.027c.124-.012.19.035.2.143Zm-3.307-.75a1.034,1.034,0,0,0,.811-.351,1.477,1.477,0,0,0,0-1.819,1.031,1.031,0,0,0-.811-.352,1.068,1.068,0,0,0-.829.352,1.447,1.447,0,0,0,0,1.819A1.071,1.071,0,0,0,545.768,875.582Z" transform="translate(-487.87 -869.885)" fill="#7b868c"/>
      <path id="Path_12028" data-name="Path 12028" d="M551.147,876.3a2.494,2.494,0,0,1-1.775-.633A2.172,2.172,0,0,1,548.7,874a2.224,2.224,0,0,1,.655-1.677,2.364,2.364,0,0,1,1.716-.633,2.31,2.31,0,0,1,1.7.623,2.228,2.228,0,0,1,.628,1.651c0,.035,0,.087,0,.155s0,.117,0,.147a.169.169,0,0,1-.187.152H550a1.12,1.12,0,0,0,.424.633,1.249,1.249,0,0,0,.753.232.935.935,0,0,0,.732-.269.364.364,0,0,1,.214-.088h1a.174.174,0,0,1,.139.048.124.124,0,0,1,0,.131,1.805,1.805,0,0,1-.794.873A2.624,2.624,0,0,1,551.147,876.3Zm-1.16-2.675h2.132a.964.964,0,0,0-.295-.682,1,1,0,0,0-.723-.263,1.1,1.1,0,0,0-.743.263A1.071,1.071,0,0,0,549.988,873.629Z" transform="translate(-486.91 -869.563)" fill="#7b868c"/>
      <path id="Path_12029" data-name="Path 12029" d="M559.487,871.694a1.883,1.883,0,0,1,1.406.539,1.957,1.957,0,0,1,.53,1.432v2.328c0,.112-.06.169-.178.169h-1a.15.15,0,0,1-.17-.169v-2.15a1.049,1.049,0,0,0-.25-.731.859.859,0,0,0-.668-.277.737.737,0,0,0-.589.263,1.05,1.05,0,0,0-.223.7v2.2a.15.15,0,0,1-.17.169h-1.007a.15.15,0,0,1-.17-.169v-2.15a1.1,1.1,0,0,0-.231-.731.768.768,0,0,0-.616-.277.856.856,0,0,0-.655.263.986.986,0,0,0-.245.7v2.2a.15.15,0,0,1-.17.169h-1a.149.149,0,0,1-.168-.169v-2.8a.307.307,0,0,0-.348-.348,1.746,1.746,0,0,0-.2.026c-.13,0-.2-.047-.2-.143V872a.184.184,0,0,1,.133-.2,1.764,1.764,0,0,1,.642-.107,1.078,1.078,0,0,1,1.052.543,2.047,2.047,0,0,1,1.516-.543,1.7,1.7,0,0,1,1.408.633A1.961,1.961,0,0,1,559.487,871.694Z" transform="translate(-486.111 -869.563)" fill="#7b868c"/>
      <path id="Path_12030" data-name="Path 12030" d="M562.316,871.15a.86.86,0,0,1-1.133,0,.7.7,0,0,1-.227-.527.685.685,0,0,1,.227-.522.871.871,0,0,1,1.133,0,.688.688,0,0,1,.226.522A.7.7,0,0,1,562.316,871.15Zm-1.068,5.332a.149.149,0,0,1-.168-.169v-3.986a.15.15,0,0,1,.168-.17h1a.15.15,0,0,1,.17.17v3.986a.15.15,0,0,1-.17.169Z" transform="translate(-484.724 -869.884)" fill="#7b868c"/>
      <path id="Path_12031" data-name="Path 12031" d="M568.731,876.009a.158.158,0,0,1-.142.187,2.4,2.4,0,0,1-.669.107,1.172,1.172,0,0,1-1.124-.544,2.2,2.2,0,0,1-1.5.544,2.311,2.311,0,0,1-1.69-.642,2.436,2.436,0,0,1,0-3.326,2.319,2.319,0,0,1,1.69-.641,1.993,1.993,0,0,1,1.267.41v-.1a.15.15,0,0,1,.169-.17h.98a.15.15,0,0,1,.171.17v2.8q0,.348.293.348a1.188,1.188,0,0,0,.277-.027c.119-.012.182.035.186.143Zm-3.318-.75a1.036,1.036,0,0,0,.812-.351,1.481,1.481,0,0,0,0-1.819,1.033,1.033,0,0,0-.812-.352,1.07,1.07,0,0,0-.83.352,1.451,1.451,0,0,0,0,1.819A1.073,1.073,0,0,0,565.413,875.26Z" transform="translate(-484.368 -869.563)" fill="#7b868c"/>
    </g>
    <g id="Group_3713" data-name="Group 3713" transform="translate(0)">
      <g id="Group_3683" data-name="Group 3683">
        <g id="Group_3682" data-name="Group 3682">
          <g id="Group_3681" data-name="Group 3681">
            <g id="Group_3680" data-name="Group 3680">
              <g id="Group_3679" data-name="Group 3679">
                <g id="Group_3678" data-name="Group 3678">
                  <path id="Path_12032" data-name="Path 12032" d="M461.276,865.509a40.086,40.086,0,0,0-27.416,11.055,4.059,4.059,0,0,0-1.247,3.008c.634,28.4,17.08,40.72,24.769,44.939a8.092,8.092,0,0,0,7.788,0c7.688-4.218,24.135-16.534,24.767-44.939a4.054,4.054,0,0,0-1.245-3.008A40.086,40.086,0,0,0,461.276,865.509Z" transform="translate(-432.612 -865.509)" fill="#00e399"/>
                </g>
              </g>
            </g>
          </g>
        </g>
      </g>
      <g id="Group_3688" data-name="Group 3688" style="mix-blend-mode: multiply;isolation: isolate">
        <g id="Group_3687" data-name="Group 3687">
          <g id="Group_3686" data-name="Group 3686">
            <g id="Group_3685" data-name="Group 3685">
              <g id="Group_3684" data-name="Group 3684">
                <path id="Path_12033" data-name="Path 12033" d="M461.276,865.509a40.086,40.086,0,0,0-27.416,11.055,4.059,4.059,0,0,0-1.247,3.008c.634,28.4,17.08,40.72,24.769,44.939a8.092,8.092,0,0,0,7.788,0c7.688-4.218,24.135-16.534,24.767-44.939a4.054,4.054,0,0,0-1.245-3.008A40.086,40.086,0,0,0,461.276,865.509Z" transform="translate(-432.612 -865.509)" fill="url(#linear-gradient)"/>
              </g>
            </g>
          </g>
        </g>
      </g>
      <g id="Group_3694" data-name="Group 3694" transform="translate(7.082 7.411)">
        <g id="Group_3693" data-name="Group 3693">
          <g id="Group_3692" data-name="Group 3692">
            <g id="Group_3691" data-name="Group 3691">
              <g id="Group_3690" data-name="Group 3690">
                <g id="Group_3689" data-name="Group 3689">
                  <path id="Path_12034" data-name="Path 12034" d="M460.2,871.8a30.185,30.185,0,0,0-20.643,8.323,3.056,3.056,0,0,0-.938,2.265c.476,21.388,12.86,30.661,18.65,33.837a6.09,6.09,0,0,0,5.863,0c5.79-3.175,18.174-12.448,18.65-33.837a3.055,3.055,0,0,0-.938-2.265A30.185,30.185,0,0,0,460.2,871.8Z" transform="translate(-438.622 -871.799)" fill="#00e399"/>
                </g>
              </g>
            </g>
          </g>
        </g>
      </g>
      <g id="Group_3699" data-name="Group 3699" transform="translate(7.082 7.411)" style="mix-blend-mode: multiply;isolation: isolate">
        <g id="Group_3698" data-name="Group 3698">
          <g id="Group_3697" data-name="Group 3697">
            <g id="Group_3696" data-name="Group 3696">
              <g id="Group_3695" data-name="Group 3695">
                <path id="Path_12035" data-name="Path 12035" d="M460.2,871.8a30.185,30.185,0,0,0-20.643,8.323,3.056,3.056,0,0,0-.938,2.265c.476,21.388,12.86,30.661,18.65,33.837a6.09,6.09,0,0,0,5.863,0c5.79-3.175,18.174-12.448,18.65-33.837a3.055,3.055,0,0,0-.938-2.265A30.185,30.185,0,0,0,460.2,871.8Z" transform="translate(-438.622 -871.799)" fill="url(#linear-gradient-2)"/>
              </g>
            </g>
          </g>
        </g>
      </g>
      <g id="Group_3711" data-name="Group 3711" transform="translate(6.294 5.188)">
        <g id="Group_3710" data-name="Group 3710">
          <g id="Group_3700" data-name="Group 3700" transform="translate(32.609 45.286)" style="mix-blend-mode: soft-light;isolation: isolate">
            <path id="Path_12036" data-name="Path 12036" d="M465.629,911.434c.262-.271.53-.531.8-.791l.811-.772,1.633-1.526a11.127,11.127,0,0,1-.747.858c-.258.274-.529.531-.8.793s-.55.5-.833.743S465.926,911.216,465.629,911.434Z" transform="translate(-465.629 -908.346)" fill="#fff"/>
          </g>
          <g id="Group_3701" data-name="Group 3701" transform="translate(32.609 45.286)" style="mix-blend-mode: soft-light;isolation: isolate">
            <path id="Path_12037" data-name="Path 12037" d="M465.629,911.434c.262-.271.53-.531.8-.791l.811-.772,1.633-1.526a11.127,11.127,0,0,1-.747.858c-.258.274-.529.531-.8.793s-.55.5-.833.743S465.926,911.216,465.629,911.434Z" transform="translate(-465.629 -908.346)" fill="#fff"/>
          </g>
          <g id="Group_3702" data-name="Group 3702" transform="translate(34.23 21.125)" style="mix-blend-mode: soft-light;isolation: isolate">
            <path id="Path_12038" data-name="Path 12038" d="M477.514,887.841c-.173,1.031-.372,2.059-.615,3.073s-.523,2.017-.826,3.011a43.892,43.892,0,0,1-2.256,5.759,39.986,39.986,0,0,1-3.049,5.256c-.144.205-.28.416-.429.618l-.449.6-.45.6c-.148.2-.312.385-.469.577l-.477.568c-.157.19-.317.378-.487.555l-1,1.077.95-1.136c.161-.185.312-.382.462-.58l.452-.59c.15-.2.309-.386.453-.59l.432-.609.432-.608c.141-.2.273-.418.411-.627a43.23,43.23,0,0,0,2.974-5.26,47.147,47.147,0,0,0,2.3-5.69c.325-.978.632-1.966.9-2.969C477.053,889.874,477.28,888.857,477.514,887.841Z" transform="translate(-467.005 -887.841)" fill="#fff"/>
          </g>
          <g id="Group_3703" data-name="Group 3703" transform="translate(34.23 21.125)" style="mix-blend-mode: soft-light;isolation: isolate">
            <path id="Path_12039" data-name="Path 12039" d="M477.514,887.841c-.192,1.026-.395,2.051-.648,3.062s-.535,2.01-.844,3a44.432,44.432,0,0,1-2.267,5.743,40.718,40.718,0,0,1-3.031,5.256c-.141.206-.278.418-.424.62l-.445.6-.445.6c-.147.2-.31.386-.464.58l-.471.573c-.156.193-.313.383-.482.562l-.987,1.092.964-1.12c.163-.183.317-.377.468-.574l.458-.586c.151-.2.311-.383.456-.587l.437-.606.436-.606c.144-.2.277-.417.416-.624a42.3,42.3,0,0,0,2.993-5.259,46.137,46.137,0,0,0,2.289-5.708c.32-.982.621-1.974.879-2.98C477.076,889.879,477.3,888.861,477.514,887.841Z" transform="translate(-467.005 -887.841)" fill="#fff"/>
          </g>
          <g id="Group_3704" data-name="Group 3704" style="mix-blend-mode: soft-light;isolation: isolate">
            <path id="Path_12040" data-name="Path 12040" d="M437.954,877.86c.8-.674,1.626-1.3,2.472-1.9.424-.3.859-.571,1.291-.853.44-.263.873-.543,1.321-.792a35.5,35.5,0,0,1,5.532-2.536c.95-.338,1.915-.616,2.882-.873l1.461-.344c.49-.093.98-.178,1.472-.263.245-.047.493-.074.74-.1l.74-.089c.247-.027.494-.065.741-.083l.744-.049c.991-.078,1.983-.062,2.974-.058-.99.068-1.98.085-2.963.216l-.74.072c-.246.024-.49.07-.735.1l-.735.111c-.245.036-.49.071-.733.126a35.266,35.266,0,0,0-5.765,1.541,37.917,37.917,0,0,0-5.52,2.451c-.451.233-.887.5-1.331.748-.436.267-.874.531-1.3.811C439.628,876.645,438.788,877.246,437.954,877.86Z" transform="translate(-437.954 -869.912)" fill="#fff"/>
          </g>
          <g id="Group_3705" data-name="Group 3705" style="mix-blend-mode: soft-light;isolation: isolate">
            <path id="Path_12041" data-name="Path 12041" d="M437.954,877.86c.8-.674,1.626-1.3,2.472-1.9.424-.3.859-.571,1.291-.853.44-.263.873-.543,1.321-.792a35.5,35.5,0,0,1,5.532-2.536c.95-.338,1.915-.616,2.882-.873l1.461-.344c.49-.093.98-.178,1.472-.263.245-.047.493-.074.74-.1l.74-.089c.247-.027.494-.065.741-.083l.744-.049c.991-.078,1.983-.062,2.974-.058-.99.068-1.98.085-2.963.216l-.74.072c-.246.024-.49.07-.735.1l-.735.111c-.245.036-.49.071-.733.126a35.266,35.266,0,0,0-5.765,1.541,37.917,37.917,0,0,0-5.52,2.451c-.451.233-.887.5-1.331.748-.436.267-.874.531-1.3.811C439.628,876.645,438.788,877.246,437.954,877.86Z" transform="translate(-437.954 -869.912)" fill="#fff"/>
          </g>
          <g id="Group_3706" data-name="Group 3706" transform="translate(8.888 45.286)" style="mix-blend-mode: soft-light;isolation: isolate">
            <path id="Path_12042" data-name="Path 12042" d="M448.74,911.434c-.3-.218-.582-.455-.865-.694s-.557-.494-.833-.743-.54-.518-.8-.793-.513-.554-.746-.858l1.633,1.526.811.772C448.209,910.9,448.478,911.163,448.74,911.434Z" transform="translate(-445.497 -908.346)" fill="#fff"/>
          </g>
          <g id="Group_3707" data-name="Group 3707" transform="translate(8.888 45.286)" style="mix-blend-mode: soft-light;isolation: isolate">
            <path id="Path_12043" data-name="Path 12043" d="M448.74,911.434c-.3-.218-.582-.455-.865-.694s-.557-.494-.833-.743-.54-.518-.8-.793-.513-.554-.746-.858l1.633,1.526.811.772C448.209,910.9,448.478,911.163,448.74,911.434Z" transform="translate(-445.497 -908.346)" fill="#fff"/>
          </g>
          <g id="Group_3708" data-name="Group 3708" transform="translate(0 21.125)" style="mix-blend-mode: soft-light;isolation: isolate">
            <path id="Path_12044" data-name="Path 12044" d="M437.954,887.841c.235,1.016.46,2.033.746,3.029.264,1,.57,1.991.9,2.969a47.342,47.342,0,0,0,2.3,5.69,43.217,43.217,0,0,0,2.975,5.26c.138.209.269.423.411.627l.432.608.432.609c.144.2.3.392.452.59l.451.59c.15.2.3.395.463.58l.95,1.136-1-1.077c-.169-.177-.329-.365-.487-.555l-.477-.568c-.156-.192-.319-.377-.468-.577l-.45-.6-.449-.6c-.148-.2-.286-.412-.429-.618a39.722,39.722,0,0,1-3.049-5.256,43.731,43.731,0,0,1-2.256-5.759c-.3-.993-.588-1.995-.826-3.011S438.127,888.872,437.954,887.841Z" transform="translate(-437.954 -887.841)" fill="#fff"/>
          </g>
          <g id="Group_3709" data-name="Group 3709" transform="translate(0 21.125)" style="mix-blend-mode: soft-light;isolation: isolate">
            <path id="Path_12045" data-name="Path 12045" d="M437.954,887.841c.214,1.02.438,2.039.713,3.04.258,1.006.558,2,.879,2.98a46.132,46.132,0,0,0,2.289,5.708,42.3,42.3,0,0,0,2.993,5.259c.139.207.272.421.416.624l.436.606.437.606c.145.2.305.391.456.587l.458.586c.151.2.3.391.468.574l.964,1.12-.989-1.092c-.167-.179-.325-.369-.481-.562l-.471-.573c-.154-.193-.317-.379-.464-.58l-.445-.6-.445-.6c-.146-.2-.283-.414-.424-.62a40.732,40.732,0,0,1-3.031-5.256,44.441,44.441,0,0,1-2.267-5.743c-.309-.99-.6-1.988-.844-3S438.146,888.867,437.954,887.841Z" transform="translate(-437.954 -887.841)" fill="#fff"/>
          </g>
        </g>
      </g>
      <path id="Path_12046" data-name="Path 12046" d="M469.78,890.393l-1.611-1.611-3.909-3.91h0l-3.082-3.081h0l-4.337-4.336a3.525,3.525,0,0,0-4.984,0l-3.028,3.028a3.525,3.525,0,0,0,0,4.984l7.418,7.417-7.418,7.419a3.524,3.524,0,0,0,0,4.984l3.028,3.028a3.524,3.524,0,0,0,4.984,0l12.939-12.939A3.525,3.525,0,0,0,469.78,890.393Z" transform="translate(-429.905 -863.563)" opacity="0.5" fill="url(#linear-gradient-3)" style="mix-blend-mode: multiply;isolation: isolate"/>
      <g id="Group_3712" data-name="Group 3712" transform="translate(18.932 11.559)">
        <path id="Path_12047" data-name="Path 12047" d="M470.663,889.29l-12.939-12.939a3.524,3.524,0,0,0-4.984,0l-3.028,3.028a3.525,3.525,0,0,0,0,4.984l15.431,15.431,5.52-5.52A3.524,3.524,0,0,0,470.663,889.29Z" transform="translate(-448.68 -875.319)" fill="#00e399"/>
        <path id="Path_12048" data-name="Path 12048" d="M470.663,889.29l-12.939-12.939a3.524,3.524,0,0,0-4.984,0l-3.028,3.028a3.525,3.525,0,0,0,0,4.984l15.431,15.431,5.52-5.52A3.524,3.524,0,0,0,470.663,889.29Z" transform="translate(-448.68 -875.319)" fill="url(#linear-gradient-4)" style="mix-blend-mode: multiply;isolation: isolate"/>
        <path id="Path_12049" data-name="Path 12049" d="M449.712,898.387a3.525,3.525,0,0,0,0,4.984l3.028,3.028a3.525,3.525,0,0,0,4.984,0l12.939-12.937a3.524,3.524,0,0,0,0-4.984l-5.52-5.52h0l-3.082-3.082a4.357,4.357,0,0,1,0,6.164Z" transform="translate(-448.68 -874.507)" fill="#21ffd2"/>
      </g>
    </g>
    <g id="Group_3716" data-name="Group 3716" transform="translate(37.433 28.962)">
      <g id="Group_3714" data-name="Group 3714" style="mix-blend-mode: soft-light;isolation: isolate">
        <path id="Path_12050" data-name="Path 12050" d="M464.381,893.177c.263-.271.53-.531.8-.791l.811-.772,1.633-1.526a10.861,10.861,0,0,1-.746.858c-.259.275-.53.531-.8.793s-.549.5-.832.743S464.678,892.959,464.381,893.177Z" transform="translate(-464.381 -890.089)" fill="#fff"/>
      </g>
      <g id="Group_3715" data-name="Group 3715" style="mix-blend-mode: soft-light;isolation: isolate">
        <path id="Path_12051" data-name="Path 12051" d="M464.381,893.177c.263-.271.53-.531.8-.791l.811-.772,1.633-1.526a10.861,10.861,0,0,1-.746.858c-.259.275-.53.531-.8.793s-.549.5-.832.743S464.678,892.959,464.381,893.177Z" transform="translate(-464.381 -890.089)" fill="#fff"/>
      </g>
    </g>
  </g>
</svg>
