<svg xmlns="http://www.w3.org/2000/svg" width="170.898" height="55" viewBox="0 0 170.898 55">
  <g id="logo_jal" transform="translate(0.001)">
    <g id="Group_730" data-name="Group 730" transform="translate(65.9 17.334)">
      <g id="Group_728" data-name="Group 728">
        <path id="Path_750" data-name="Path 750" d="M7761.218,1793.507a.5.5,0,0,1-.361.542,6.711,6.711,0,0,1-2.049.362,3.5,3.5,0,0,1-3.49-1.867,7.33,7.33,0,0,1-4.969,1.867,7.947,7.947,0,0,1-5.736-2.153,7.924,7.924,0,0,1,0-11.05,7.94,7.94,0,0,1,5.736-2.153,7.063,7.063,0,0,1,4.246,1.325v-.423a.4.4,0,0,1,.452-.452h2.77a.4.4,0,0,1,.451.452v10.118a1.138,1.138,0,0,0,.286.813,1.006,1.006,0,0,0,.767.3,6.137,6.137,0,0,0,1.116-.121c.32-.06.5.06.541.361Zm-10.838-2.108a3.9,3.9,0,0,0,3.042-1.309,5.392,5.392,0,0,0,0-6.715,3.9,3.9,0,0,0-3.042-1.31,4.078,4.078,0,0,0-3.119,1.31,5.239,5.239,0,0,0,0,6.715A4.077,4.077,0,0,0,7750.379,1791.4Z" transform="translate(-7723.482 -1772.128)" fill="#7d868c"/>
        <path id="Path_751" data-name="Path 751" d="M7760.981,1796.42a4.786,4.786,0,0,1-3.057-.919,2.937,2.937,0,0,1-1.158-2.424v-17.96a.4.4,0,0,1,.451-.452h2.771a.4.4,0,0,1,.45.452v16.966a1.132,1.132,0,0,0,.286.814,1.009,1.009,0,0,0,.768.3,6.1,6.1,0,0,0,1.115-.121q.48-.09.541.361l.24,2.077a.462.462,0,0,1-.36.542A6.683,6.683,0,0,1,7760.981,1796.42Z" transform="translate(-7716.895 -1774.137)" fill="#7d868c"/>
        <path id="Path_752" data-name="Path 752" d="M7764.752,1778.519a2.3,2.3,0,0,1-1.625-.616,2.007,2.007,0,0,1,0-2.981,2.43,2.43,0,0,1,3.238,0,1.981,1.981,0,0,1,0,2.981A2.316,2.316,0,0,1,7764.752,1778.519Zm2.377,18.067a4.781,4.781,0,0,1-3.053-.918,2.939,2.939,0,0,1-1.16-2.425v-11.111a.4.4,0,0,1,.451-.451h2.769a.4.4,0,0,1,.452.451v10.118a1.125,1.125,0,0,0,.289.813,1,1,0,0,0,.765.3,6.061,6.061,0,0,0,1.117-.121c.317-.06.5.06.54.361l.24,2.078a.461.461,0,0,1-.359.542A6.7,6.7,0,0,1,7767.13,1796.586Z" transform="translate(-7714.283 -1774.303)" fill="#7d868c"/>
        <path id="Path_753" data-name="Path 753" d="M7775.23,1794.411a8.722,8.722,0,0,1-4.951-1.265,4.911,4.911,0,0,1-2.211-3.522c-.043-.322.107-.483.449-.483l2.528.031a.479.479,0,0,1,.483.39q.66,2.019,3.7,2.018a4.313,4.313,0,0,0,2.109-.452,1.339,1.339,0,0,0,.815-1.174,1.36,1.36,0,0,0-1-1.28,9.623,9.623,0,0,0-2.392-.587q-1.4-.18-2.8-.483a4.77,4.77,0,0,1-2.395-1.278,3.613,3.613,0,0,1-.993-2.7,3.9,3.9,0,0,1,1.746-3.311,7.678,7.678,0,0,1,4.606-1.265,8.01,8.01,0,0,1,4.458,1.173,4.423,4.423,0,0,1,2.107,3.1q.059.481-.452.481h-2.529c-.262,0-.422-.09-.482-.271a2.37,2.37,0,0,0-1.128-1.309,3.869,3.869,0,0,0-1.973-.5,3.951,3.951,0,0,0-1.971.422,1.255,1.255,0,0,0-.737,1.113,1.391,1.391,0,0,0,.705,1.235,4.06,4.06,0,0,0,1.749.572q1.037.122,2.271.377a20.066,20.066,0,0,1,2.273.6,3.575,3.575,0,0,1,1.747,1.279,3.824,3.824,0,0,1,.709,2.378,4.018,4.018,0,0,1-1.775,3.4A7.759,7.759,0,0,1,7775.23,1794.411Z" transform="translate(-7711.724 -1772.128)" fill="#7d868c"/>
        <path id="Path_754" data-name="Path 754" d="M7786.666,1794.411a8.045,8.045,0,0,1-5.811-2.108,8.164,8.164,0,0,1,0-11.142,9.023,9.023,0,0,1,10.644-.692,5.955,5.955,0,0,1,2.454,3.766c.06.321-.068.481-.392.481h-2.86a.479.479,0,0,1-.48-.393,2.913,2.913,0,0,0-1.295-1.551,4.262,4.262,0,0,0-2.26-.587,4.143,4.143,0,0,0-3.145,1.25,5.165,5.165,0,0,0,0,6.595,4.141,4.141,0,0,0,3.145,1.248,4.263,4.263,0,0,0,2.26-.586,2.91,2.91,0,0,0,1.295-1.551.479.479,0,0,1,.48-.392h2.86c.323,0,.451.162.392.482A5.954,5.954,0,0,1,7791.5,1793,8.07,8.07,0,0,1,7786.666,1794.411Z" transform="translate(-7706.87 -1772.128)" fill="#7d868c"/>
        <path id="Path_755" data-name="Path 755" d="M7804.274,1792.3a9.1,9.1,0,0,1-11.65,0,8.124,8.124,0,0,1,0-11.142,9.109,9.109,0,0,1,11.65,0,8.114,8.114,0,0,1,0,11.142Zm-8.988-2.288a4.669,4.669,0,0,0,6.325,0,5.079,5.079,0,0,0,0-6.565,4.672,4.672,0,0,0-6.325,0,5.086,5.086,0,0,0,0,6.565Z" transform="translate(-7701.492 -1772.128)" fill="#7d868c"/>
        <path id="Path_756" data-name="Path 756" d="M7745.412,1774.821a.451.451,0,0,1,.452.451v13.007a7.824,7.824,0,0,1-2.23,5.932,9.781,9.781,0,0,1-11.727.362,6.712,6.712,0,0,1-2.484-4.728q-.062-.482.451-.481h2.952a.422.422,0,0,1,.452.421,3.482,3.482,0,0,0,1.428,2.319,4.934,4.934,0,0,0,3,.873,3.936,3.936,0,0,0,3.1-1.325,5.053,5.053,0,0,0,1.176-3.493v-9.041c0-1.205-1.289-1.467-2.077-1.514h-.232a.366.366,0,0,1-.368-.366v-2.051a.365.365,0,0,1,.368-.366Z" transform="translate(-7729.416 -1774.067)" fill="#7d868c"/>
      </g>
      <g id="Group_729" data-name="Group 729" transform="translate(7.368 29.907)">
        <path id="Path_757" data-name="Path 757" d="M7736.884,1794.818a2.067,2.067,0,0,1,2.146,1.5h-.784a1.37,1.37,0,0,0-1.369-.779,1.736,1.736,0,0,0,0,3.463,1.358,1.358,0,0,0,1.545-1.244h-1.489v-.675h2.238a2.253,2.253,0,0,1-2.294,2.642,2.452,2.452,0,0,1,.007-4.9Z" transform="translate(-7734.469 -1794.818)" fill="#7d868c"/>
        <path id="Path_758" data-name="Path 758" d="M7740.929,1799.721a2.451,2.451,0,1,1,2.444-2.45A2.332,2.332,0,0,1,7740.929,1799.721Zm.013-.751a1.7,1.7,0,1,0-1.632-1.7A1.576,1.576,0,0,0,7740.941,1798.97Z" transform="translate(-7732.62 -1794.818)" fill="#7d868c"/>
        <path id="Path_759" data-name="Path 759" d="M7745.759,1797.154a1.1,1.1,0,0,1,.771,1.107,1.349,1.349,0,0,1-1.517,1.379h-2.138v-4.78h1.94a1.329,1.329,0,0,1,1.5,1.359A.994.994,0,0,1,7745.759,1797.154Zm-2.092-1.6v1.346h1.095c.458,0,.771-.191.778-.654s-.314-.691-.778-.691Zm0,1.994v1.4h1.3a.691.691,0,0,0,.779-.682.7.7,0,0,0-.247-.567,1,1,0,0,0-.621-.15Z" transform="translate(-7730.618 -1794.799)" fill="#7d868c"/>
        <path id="Path_760" data-name="Path 760" d="M7748.511,1799v.642h-2.31V1799h.756v-3.5h-.7v-.636h2.188v.636h-.7v3.5Z" transform="translate(-7729.098 -1794.799)" fill="#7d868c"/>
        <path id="Path_761" data-name="Path 761" d="M7751.7,1795.557h-2.11v1.264h2v.7h-2v1.393h2.151v.723h-2.951v-4.78h2.91Z" transform="translate(-7727.914 -1794.799)" fill="#7d868c"/>
        <path id="Path_762" data-name="Path 762" d="M7755.743,1799.525v.115h-.806l-1.188-1.666H7752.7v1.666h-.8v-4.78h1.972a1.543,1.543,0,0,1,1.661,1.557,1.5,1.5,0,0,1-1,1.434Zm-1.878-2.206a.885.885,0,1,0,0-1.77h-1.179v1.77Z" transform="translate(-7726.489 -1794.799)" fill="#7d868c"/>
        <path id="Path_763" data-name="Path 763" d="M7756.236,1796.394l.056,1.517v1.734h-.788v-4.794h.29l2.9,3.216-.056-1.461v-1.742h.792v4.788h-.273Z" transform="translate(-7724.838 -1794.804)" fill="#7d868c"/>
        <path id="Path_764" data-name="Path 764" d="M7761.654,1799.721a2.451,2.451,0,1,1,2.445-2.45A2.333,2.333,0,0,1,7761.654,1799.721Zm.015-.751a1.7,1.7,0,1,0-1.632-1.7A1.575,1.575,0,0,0,7761.668,1798.97Z" transform="translate(-7723.13 -1794.818)" fill="#7d868c"/>
        <path id="Path_765" data-name="Path 765" d="M7766.921,1794.865a2.387,2.387,0,0,1,0,4.773h-1.729v-4.773Zm-.014,4.05a1.671,1.671,0,0,0,.007-3.333h-.929v3.333Z" transform="translate(-7720.404 -1794.797)" fill="#7d868c"/>
        <path id="Path_766" data-name="Path 766" d="M7771.928,1795.557h-2.111v1.264h1.995v.7h-1.995v1.393h2.152v.723h-2.95v-4.78h2.909Z" transform="translate(-7718.654 -1794.799)" fill="#7d868c"/>
        <path id="Path_767" data-name="Path 767" d="M7772.927,1798.923h2.055v.717h-2.854v-4.78h.8Z" transform="translate(-7717.227 -1794.799)" fill="#7d868c"/>
        <path id="Path_768" data-name="Path 768" d="M7779.333,1795.557h-2.108v1.264h1.993v.7h-1.993v1.393h2.147v.723h-2.949v-4.78h2.91Z" transform="translate(-7715.263 -1794.799)" fill="#7d868c"/>
        <path id="Path_769" data-name="Path 769" d="M7780.089,1798.3c.033.539.621.71,1.139.71s1.106-.123,1.106-.718c0-.627-.647-.689-1.2-.744-.876-.076-1.744-.355-1.744-1.312,0-.983.867-1.42,1.8-1.42.909,0,1.766.409,1.79,1.386h-.732c-.034-.511-.593-.676-1.066-.676-.437,0-1,.15-1,.689s.537.608,1.091.684c.97.109,1.858.3,1.858,1.4,0,1.051-.991,1.42-1.883,1.42-.936.02-1.914-.416-1.935-1.42Z" transform="translate(-7713.939 -1794.818)" fill="#7d868c"/>
        <path id="Path_770" data-name="Path 770" d="M7782.605,1795.564v-.7h3.55v.7h-1.386v4.076h-.777v-4.076Z" transform="translate(-7712.432 -1794.799)" fill="#7d868c"/>
        <path id="Path_771" data-name="Path 771" d="M7786.6,1798.661l-.463.99h-.834v-.1l2.212-4.712h.369l2.2,4.712v.1h-.825l-.475-.99Zm.26-.669h1.673l-.833-1.912Z" transform="translate(-7711.198 -1794.81)" fill="#7d868c"/>
        <path id="Path_772" data-name="Path 772" d="M7791.139,1794.865a2.387,2.387,0,0,1,0,4.773h-1.729v-4.773Zm-.015,4.05a1.67,1.67,0,0,0,.006-3.333h-.927v3.333Z" transform="translate(-7709.316 -1794.797)" fill="#7d868c"/>
        <path id="Path_773" data-name="Path 773" d="M7795.466,1799.721a2.451,2.451,0,1,1,2.447-2.45A2.331,2.331,0,0,1,7795.466,1799.721Zm.014-.751a1.7,1.7,0,1,0-1.631-1.7A1.574,1.574,0,0,0,7795.48,1798.97Z" transform="translate(-7707.654 -1794.818)" fill="#7d868c"/>
      </g>
    </g>
    <rect id="Rectangle_347" data-name="Rectangle 347" width="0.918" height="34.057" transform="translate(59.834 52.145) rotate(180)" fill="#7d868c"/>
    <g id="Group_733" data-name="Group 733" transform="translate(-0.001)">
      <g id="Group_731" data-name="Group 731">
        <path id="Path_774" data-name="Path 774" d="M7702.11,1766.957v2.437a2.409,2.409,0,0,1,.983,0h0v-2.434A1.61,1.61,0,0,0,7702.11,1766.957Z" transform="translate(-7676.016 -1760.367)" fill="#7d868c"/>
        <path id="Path_775" data-name="Path 775" d="M7695.116,1769.648a.432.432,0,0,0,.251.35,7.613,7.613,0,0,0,3.215.735,7.413,7.413,0,0,0,4.2-1.346,5.8,5.8,0,0,1,5.983-.248,2.223,2.223,0,0,1-1.579.6h-.372v.866h.372a3,3,0,0,0,2.6-1.35h0l.005-.01h0a.44.44,0,0,0,.055-.213v-5.152a.435.435,0,0,0-.188-.357,6.671,6.671,0,0,0-7.362,0,6.46,6.46,0,0,1-6.568.541.433.433,0,0,0-.466.72l2.812,2.43-2.783,2.045A.434.434,0,0,0,7695.116,1769.648Zm3.908-2.061a.444.444,0,0,0,.178-.333.437.437,0,0,0-.151-.344l-1.65-1.428a7.279,7.279,0,0,0,5.382-1.246,5.788,5.788,0,0,1,6.195-.124v4.159a6.687,6.687,0,0,0-6.683.4,6.425,6.425,0,0,1-5.869.822Z" transform="translate(-7679.219 -1762.412)" fill="#7d868c"/>
        <path id="Path_776" data-name="Path 776" d="M7702.4,1766.371h.984v-.937h.937v-.986h-.937v-.937h-.984v.937h-.939v.986h.939Z" transform="translate(-7676.308 -1761.909)" fill="#7d868c"/>
        <path id="Path_777" data-name="Path 777" d="M7731.832,1799.542c.312-.368.64-.743.956-1.1a21.458,21.458,0,0,0,3.515-4.879,8.662,8.662,0,0,0,.837-4.818,7.556,7.556,0,0,0-4.5-5.949,3.48,3.48,0,0,0,.489-2.232l0-.019a.472.472,0,0,0-.8-.277,1.833,1.833,0,0,1-1.925.428l-.068-.024a8.979,8.979,0,0,0-3.214-.591,9.18,9.18,0,0,0-1.318.1l0-.064a3,3,0,0,0-.158-.964.472.472,0,0,0-.684-.261,1.253,1.253,0,0,1-.624.166,1.035,1.035,0,0,1-.148-.009c-.261-.025-.487-.036-.7-.036a7.311,7.311,0,0,0-1,.068,7.438,7.438,0,0,0-.963.205,7.069,7.069,0,0,0-.909.329,7.159,7.159,0,0,0-1.633,1,7.18,7.18,0,0,0-.7.651c-.141.147-.278.3-.4.457s-.235.325-.348.493c-.224.344-.423.7-.653,1.043-.021.037-.047.072-.071.108l-.038.056c-.007.01-.037.038-.037.05l0,.007-.019.022c-.066.092-.136.182-.21.271s-.154.191-.24.283c-.122.14-.254.273-.389.4-.051.05-.1.1-.156.146-.1.086-.189.17-.286.252l-.084.07-1.44-.991-.229-1.38c.1-.15.188-.3.269-.455l.052-.086c.045-.084.081-.171.12-.257l.03-.071c.032-.073.062-.145.094-.219a.84.84,0,0,1,.035-.088c.014-.033.022-.067.036-.1l.405-.086.323-2.347h0l0,0-.438-.1c-.01-.075-.016-.152-.026-.226-.019-.1-.032-.2-.058-.293a3.8,3.8,0,0,0-.3-.8c-.01-.018-.013-.036-.022-.053a3,3,0,0,0-1.7-1.481l-.062-.019.029-.066c.022-.052.043-.1.064-.154a2.976,2.976,0,0,1,1.359-1.435c.1.252.148.431.15.434a.413.413,0,0,0,.448.286.747.747,0,0,0,.342-.127,1.507,1.507,0,0,0,.408-.448,3.185,3.185,0,0,0,.222-2.956,2.1,2.1,0,0,0-1.807-1.318,1.944,1.944,0,0,0-.792.139,2.294,2.294,0,0,0-4.142,0,1.934,1.934,0,0,0-.792-.139,2.1,2.1,0,0,0-1.808,1.318,3.2,3.2,0,0,0,.224,2.956,1.475,1.475,0,0,0,.41.448.74.74,0,0,0,.339.127.413.413,0,0,0,.449-.286,4.393,4.393,0,0,1,.151-.434,2.985,2.985,0,0,1,1.359,1.435c.022.051.042.1.063.154l.024.066-.057.019a3.012,3.012,0,0,0-1.7,1.481c-.008.018-.011.035-.018.053a3.805,3.805,0,0,0-.3.8c-.024.1-.039.2-.057.293-.013.075-.019.151-.028.226l-.436.1v0l.323,2.347.4.086c.014.035.02.069.036.1l.036.088c.029.073.061.146.092.219l.028.071c.04.086.078.172.12.257l.052.086c.083.154.175.309.275.462l-.228,1.373-1.447,1a8.024,8.024,0,0,1-.793-.736l-.128-.14c-.157-.179-.31-.364-.45-.556l-.021-.027c0-.012-.029-.039-.034-.05l-.041-.056c-.023-.036-.048-.071-.072-.108-.229-.341-.427-.7-.652-1.043-.112-.168-.221-.337-.347-.493s-.266-.31-.4-.457a7.579,7.579,0,0,0-.7-.651,6.709,6.709,0,0,0-.781-.553,7.088,7.088,0,0,0-.849-.446,7,7,0,0,0-.912-.329,7.184,7.184,0,0,0-.964-.205,7.272,7.272,0,0,0-.994-.068c-.209,0-.436.011-.7.036a.981.981,0,0,1-.146.009,1.246,1.246,0,0,1-.625-.166.471.471,0,0,0-.683.261,3.025,3.025,0,0,0-.157.964c0,.031,0,.062,0,.092a9.056,9.056,0,0,0-4.709.467l-.065.024a1.827,1.827,0,0,1-1.036.065,1.8,1.8,0,0,1-.886-.493.476.476,0,0,0-.807.277l0,.019a3.493,3.493,0,0,0,.49,2.232,7.553,7.553,0,0,0-4.5,5.949,8.631,8.631,0,0,0,.84,4.818,21.47,21.47,0,0,0,3.51,4.879c.32.361.646.736.957,1.1.105.124.212.25.326.38.8.934,1.72,1.994,1.72,3.007a1.6,1.6,0,0,1-1.744,1.744,1.952,1.952,0,0,1-.667-.117.905.905,0,0,0-.264-.052v0a1.076,1.076,0,0,0-1.154.72.967.967,0,0,0-.257.035.949.949,0,0,0-.687,1.007l0,.05a5.492,5.492,0,0,0,5.34,4.849h.073a5.628,5.628,0,0,0,3.369-1.182l.027.031a.949.949,0,0,0,1.224.106,5.946,5.946,0,0,0,1.784-2.006l.007.006c.037-.064.07-.13.1-.2.031.054.061.111.094.165.064.107.131.214.2.319a14.219,14.219,0,0,0,23.258,0c.068-.1.135-.211.2-.319.035-.054.064-.111.094-.165.035.066.065.13.1.2l.011-.006a5.936,5.936,0,0,0,1.784,2.006.937.937,0,0,0,.546.175.947.947,0,0,0,.674-.281l.029-.031a5.618,5.618,0,0,0,3.368,1.182h.073a5.489,5.489,0,0,0,5.34-4.849l.006-.05a.949.949,0,0,0-.942-1.042,1.078,1.078,0,0,0-1.156-.72l0,0a.887.887,0,0,0-.265.052,1.958,1.958,0,0,1-.666.117,1.6,1.6,0,0,1-1.745-1.744c0-1.013.915-2.073,1.719-3.007C7731.619,1799.792,7731.729,1799.665,7731.832,1799.542Zm-4.72-18.519a8.062,8.062,0,0,1,2.881.529l.074.028a2.784,2.784,0,0,0,1.575.1,2.848,2.848,0,0,0,.5-.169,2.582,2.582,0,0,1-.422.949,13.424,13.424,0,0,0-1.856-.232,6.778,6.778,0,0,0-5.767,3.224,1.035,1.035,0,0,0-1.021-.723h-2.77A8.087,8.087,0,0,1,7727.112,1781.023Zm.98,11.625c.024.076.052.15.081.223a2.815,2.815,0,0,0,2.7,1.756c.032,0,.065,0,.1,0l.018,0h0c-2.046,2.088-4.906,3.2-6.86,5.38v-7.5c.086-.08.148-.143.205-.2.556-.57,1.06-1.213,1.631-1.777a5.455,5.455,0,0,1,3.057-1.737,2.347,2.347,0,0,1,1.443.169,1.339,1.339,0,0,1,.559.6,1.319,1.319,0,0,1-.265,1.481,1.068,1.068,0,0,1-.124.095,1.4,1.4,0,0,1-.649.239,1.046,1.046,0,0,1-.455-.048,1.158,1.158,0,0,0-.538-.074,1.048,1.048,0,0,0-.722.394A1.1,1.1,0,0,0,7728.093,1792.648Zm-13.955-13.09-.092.832-.011,0h0l-.455.1-.438.09v-1.258l.561.133Zm-3.349,2.466.007,0,.008,0,2.4-.516v0a5.286,5.286,0,0,1-.319.551c-.082.121-.171.24-.266.356a2.148,2.148,0,0,1-3.642,0,3.911,3.911,0,0,1-.262-.356,5.332,5.332,0,0,1-.323-.551v0Zm-1.411-1.256V1779.1l.96-.227v2.09Zm1.879.2v-2.09l.959.227v1.665Zm-3.126-7.6a1.981,1.981,0,0,1,.693-.667,3.054,3.054,0,0,0-1.811.89,2.3,2.3,0,0,1,0-1.817,1.137,1.137,0,0,1,.977-.74,1.858,1.858,0,0,1,.956.244,2.868,2.868,0,0,1,1.438,1.874,2.988,2.988,0,0,0-.611-2.133,3.15,3.15,0,0,0-.243-.282,1.343,1.343,0,0,1,2.535,0,2.519,2.519,0,0,0-.243.282,2.994,2.994,0,0,0-.614,2.133,2.874,2.874,0,0,1,1.438-1.874,1.867,1.867,0,0,1,.958-.244,1.141,1.141,0,0,1,.978.74,2.312,2.312,0,0,1,0,1.817,3.048,3.048,0,0,0-1.81-.89,1.99,1.99,0,0,1,.693.667,3.939,3.939,0,0,0-1.785,1.892c-.023.058-.047.116-.073.176-.013.041-.033.082-.049.121-.263-.109-.5-.257-.757-.391h-.007c-.253.134-.491.281-.756.391l-.049-.121c-.023-.06-.05-.118-.074-.176A3.944,3.944,0,0,0,7708.131,1773.365Zm1.388,3.4c.209-.074.438-.136.653-.217a5.352,5.352,0,0,0,.624-.328,5.712,5.712,0,0,0,.626.328c.214.081.443.143.654.217a2.4,2.4,0,0,1,1.489,1.707c-2.519-.621-2.7-.663-2.762-.666h-.015c-.062,0-.238.045-2.762.666A2.408,2.408,0,0,1,7709.519,1776.764Zm-1.956,3.628h0l-.016,0-.091-.832.442-.105.562-.133v1.258l-.438-.09Zm1.052,4.006.142-.81c.021.019.042.036.063.052a2.958,2.958,0,0,0,1.974.841h.007a2.953,2.953,0,0,0,1.975-.841l.065-.07.145.828,1.571,1.088c-.078.048-.154.094-.232.14a7.936,7.936,0,0,1-2.143.852,5.931,5.931,0,0,1-1.39.2,6.218,6.218,0,0,1-1.2-.156,7.888,7.888,0,0,1-2.212-.825c-.115-.065-.229-.133-.342-.2Zm-18.843-2.721a2.8,2.8,0,0,0,1.578-.1l.071-.028a8.1,8.1,0,0,1,9.682,3.175h-2.768a1.038,1.038,0,0,0-1.023.723,6.776,6.776,0,0,0-5.767-3.224,13.449,13.449,0,0,0-1.854.232,2.6,2.6,0,0,1-.422-.949A2.727,2.727,0,0,0,7689.771,1781.677Zm8.677,23.986c-.007.076-.017.151-.024.228l-.006.05c-.014.08-.025.16-.042.239v.021a4.93,4.93,0,0,1-.324,1.048l-.018.042c-.027.061-.057.121-.085.181l-.063.124a5.05,5.05,0,0,1-1.538,1.75,5.026,5.026,0,0,0,.746-4.321v-.013a6.929,6.929,0,0,1-.911,2.921l-.006.012a4.549,4.549,0,0,1-3.916,2.272h-.059a4.573,4.573,0,0,1-4.4-4.012l0-.019,0-.015a.13.13,0,0,1,.022.032,3.326,3.326,0,0,0,6.106-1.61,3.323,3.323,0,0,1-1.458,1.677l-.042.023a3.077,3.077,0,0,1-.583.25,2.5,2.5,0,0,1-3.289-1.208c.072.019.141.055.211.081a2.841,2.841,0,0,0,.45.152,2.566,2.566,0,0,0,.506.054,4.108,4.108,0,0,0,.466-.02l.233-.023c.058-.008.11-.022.169-.034a2.75,2.75,0,0,0,.671-.245,2.39,2.39,0,0,0,.552-.4,2.353,2.353,0,0,0,.413-.541,2.571,2.571,0,0,0,.263-.664,3.3,3.3,0,0,0,.087-.766c0-1.535-1.343-2.9-2.266-4-1.547-1.834-3.3-3.576-4.336-5.775a7.759,7.759,0,0,1-.756-4.289,6.453,6.453,0,0,1,6.331-5.694,5.651,5.651,0,0,1,5.735,5.162v2.654l-.006-.007a13.729,13.729,0,0,0-2.191-2.137c-1.262-.9-3.119-1.55-4.577-.732a2.446,2.446,0,0,0-.818,3.516,2.25,2.25,0,0,0,2.5.8,1.767,1.767,0,0,1-2.532.953,2.117,2.117,0,0,1-.418-.214,3.517,3.517,0,0,1-.665-.588,3.459,3.459,0,0,1-.282-.361,3.495,3.495,0,0,1-.24-3.6,4.568,4.568,0,0,1,2.73-2.253,5.269,5.269,0,0,1,3.813.458,5.525,5.525,0,0,1,.475.31,2.567,2.567,0,0,1,.378.317,4.211,4.211,0,0,0-3.593-2.052,4.984,4.984,0,0,0-4.058,1.878,5.058,5.058,0,0,0-.978,4.042c.274,1.549,1.515,2.851,2.5,4.024a40.758,40.758,0,0,1,4.853,6.576,6.016,6.016,0,0,1,.732,3,3.967,3.967,0,0,1-3.779,3.964h-.011a4.02,4.02,0,0,0,.7.06,4.038,4.038,0,0,0,3.573-2.144c1.788-3.328-1.036-6.7-3.006-9.148-.12-.15-.747-.874-1.019-1.193l2.286,1.651c.463.339.922.68,1.383,1.05a12.177,12.177,0,0,1,1.836,1.807A6.948,6.948,0,0,1,7698.448,1805.663Zm-8.026-11.04.019,0c.031,0,.065,0,.1,0a2.807,2.807,0,0,0,2.7-1.756,2.321,2.321,0,0,0,.083-.223,1.1,1.1,0,0,0-.183-1,1.043,1.043,0,0,0-.72-.394,1.163,1.163,0,0,0-.54.074,1.045,1.045,0,0,1-.456.048,1.393,1.393,0,0,1-.648-.239,1.068,1.068,0,0,1-.124-.095,1.311,1.311,0,0,1,.3-2.078,2.342,2.342,0,0,1,1.441-.169,5.455,5.455,0,0,1,3.058,1.737c.572.564,1.073,1.207,1.632,1.777.053.057.119.12.2.2v7.5c-1.952-2.176-4.812-3.292-6.858-5.38Zm31.6,11.072,0,.045a6.579,6.579,0,0,0,.129.847v0a10.46,10.46,0,0,1-.55,1.047c-.057.1-.12.2-.181.294a13.1,13.1,0,0,1-21.436,0c-.062-.1-.125-.2-.185-.294a10.694,10.694,0,0,1-.546-1.048v0a5.883,5.883,0,0,0,.128-.849l.007-.045a7.42,7.42,0,0,0-1.058-4.25l0-.007v-15.765h4.426l-.56-.946h0l.029.051a9.037,9.037,0,0,0-5.472-4.362,1.9,1.9,0,0,1-.024-.308c0-.058,0-.116.008-.173a2.219,2.219,0,0,0,.746.048c.231-.021.434-.033.61-.033h.151a6.289,6.289,0,0,1,1,.106,6.116,6.116,0,0,1,.943.257,6.305,6.305,0,0,1,.882.4,6.376,6.376,0,0,1,.807.526,6.549,6.549,0,0,1,.712.64,6.233,6.233,0,0,1,.631.78c.231.332.429.683.655,1.017a8.9,8.9,0,0,0,.734.945c.185.209.381.4.58.592.1.093.2.182.3.27l.031.026c.1.083.194.163.295.242l.042.032c.1.077.2.151.3.223l.043.029c.1.073.209.144.315.211l.022.015a8.993,8.993,0,0,0,1.4.717l.069.029c.088.035.178.067.268.1.219.079.444.152.671.214a6.15,6.15,0,0,0,3.671,0c.227-.062.452-.135.673-.214.09-.032.177-.065.267-.1l.07-.029a8.878,8.878,0,0,0,1.395-.717l.023-.015c.106-.067.213-.139.315-.211l.043-.029c.1-.072.2-.146.3-.223l.04-.032c.03-.025.063-.052.1-.078h0c.025-.02.049-.043.073-.064.041-.033.085-.065.126-.1l.03-.026c.087-.074.168-.15.252-.227l.049-.042h0c.2-.188.4-.383.58-.592.126-.139.245-.283.356-.427.025-.032.048-.064.074-.1q.144-.188.276-.384l.028-.038.025-.039c.064-.095.126-.191.184-.287.146-.232.29-.465.445-.691a6.413,6.413,0,0,1,.631-.78,6.232,6.232,0,0,1,.715-.64,6.182,6.182,0,0,1,1.685-.924,6.033,6.033,0,0,1,.946-.257,6.241,6.241,0,0,1,1-.106h.153c.179,0,.378.012.611.033a2.217,2.217,0,0,0,.745-.048c0,.057.007.115.007.173a2.109,2.109,0,0,1-.015.26,9.041,9.041,0,0,0-5.657,4.41l.032-.051h0l-.561.946h4.427v15.765l0,.007A7.427,7.427,0,0,0,7722.021,1805.695Zm6.819-2.766a3.06,3.06,0,0,0,.092.766,2.563,2.563,0,0,0,.26.664,2.381,2.381,0,0,0,.413.541,2.5,2.5,0,0,0,.552.4,2.7,2.7,0,0,0,.672.245c.06.011.112.026.17.034l.231.023a4.107,4.107,0,0,0,.463.02,2.573,2.573,0,0,0,.51-.054,2.909,2.909,0,0,0,.45-.152,2.143,2.143,0,0,1,.21-.081,2.5,2.5,0,0,1-3.286,1.208,3.058,3.058,0,0,1-.587-.25.2.2,0,0,1-.037-.023,3.328,3.328,0,0,1-1.463-1.677,3.329,3.329,0,0,0,6.11,1.61.071.071,0,0,1,.021-.032l0,.015,0,.019a4.575,4.575,0,0,1-4.4,4.012h-.06a4.552,4.552,0,0,1-3.915-2.272l-.006-.012a6.955,6.955,0,0,1-.909-2.921l0,.013a5.007,5.007,0,0,0,.749,4.321,5.021,5.021,0,0,1-1.538-1.75c-.023-.041-.044-.083-.065-.124-.029-.06-.057-.12-.084-.181l-.02-.042a4.812,4.812,0,0,1-.32-1.048l0-.021c-.015-.079-.027-.159-.037-.239l-.007-.05c-.011-.076-.02-.152-.025-.228a6.928,6.928,0,0,1,1.586-4.69,12.106,12.106,0,0,1,1.839-1.807c.456-.37.918-.711,1.378-1.05l2.289-1.651c-.27.319-.9,1.043-1.019,1.193-1.972,2.445-4.8,5.821-3.007,9.148a4.1,4.1,0,0,0,2.029,1.839,4.074,4.074,0,0,0,2.239.245h-.011a3.969,3.969,0,0,1-3.779-3.964,6.026,6.026,0,0,1,.731-3,40.881,40.881,0,0,1,4.854-6.576c.981-1.173,2.223-2.475,2.5-4.024a5.082,5.082,0,0,0-.975-4.042,4.994,4.994,0,0,0-4.063-1.878,4.211,4.211,0,0,0-3.592,2.052,2.567,2.567,0,0,1,.378-.317c.153-.109.312-.216.473-.31a5.28,5.28,0,0,1,3.816-.458,4.569,4.569,0,0,1,2.729,2.253,3.716,3.716,0,0,1,.317,2.293,3.529,3.529,0,0,1-.244.746,3.819,3.819,0,0,1-.312.557,3.608,3.608,0,0,1-.948.949,2.039,2.039,0,0,1-.418.214,1.768,1.768,0,0,1-2.532-.953,2.255,2.255,0,0,0,2.506-.8,2.449,2.449,0,0,0-.819-3.516c-1.46-.818-3.317-.164-4.577.732a13.6,13.6,0,0,0-2.19,2.137l-.01.007v-2.65a5.65,5.65,0,0,1,5.736-5.166,6.458,6.458,0,0,1,6.334,5.694,7.786,7.786,0,0,1-.758,4.289c-1.035,2.2-2.787,3.941-4.335,5.775C7730.187,1800.025,7728.841,1801.394,7728.841,1802.929Z" transform="translate(-7684.209 -1759.443)" fill="#7d868c"/>
      </g>
      <g id="Group_732" data-name="Group 732" transform="translate(18.761 38.891)">
        <path id="Path_778" data-name="Path 778" d="M7703.711,1792.8v-.154a.437.437,0,0,0-.436-.437v1.336l1.6-.518a1.577,1.577,0,0,0,.452.876,1.5,1.5,0,0,1,.409.639l-1.174.506a1.814,1.814,0,0,0-.089.561,1.875,1.875,0,0,0,.089.56,1.783,1.783,0,0,1-.82-.354v-.411a.439.439,0,0,0-.438-.436v1.338a2.462,2.462,0,0,0,1.343.461.413.413,0,0,1,.408.414.12.12,0,0,0,.127-.118,1.217,1.217,0,0,0-.049-.341,1.23,1.23,0,0,1-.044-.335,1.311,1.311,0,0,1,.121-.548,1.689,1.689,0,0,1,.524-.08,1.668,1.668,0,0,1,.457.061,1.829,1.829,0,0,0,.292.051c.05,0,.1.006.151.006a1.723,1.723,0,0,0,.525-.082s.063-.023.078.025-.042.094-.042.094a.9.9,0,0,1-.491.208,1.962,1.962,0,0,1-.242.01c.175.4.305.747.326.795a1.838,1.838,0,0,0,1.12,0,1.784,1.784,0,0,1-.352.821h-.413a.437.437,0,0,0-.437.437h1.338a2.459,2.459,0,0,0,.462-1.345.413.413,0,0,1,.413-.405.118.118,0,0,0-.118-.127,1.2,1.2,0,0,0-.34.05,1.351,1.351,0,0,1-.337.044,1.282,1.282,0,0,1-.547-.123,1.717,1.717,0,0,1-.081-.522,1.783,1.783,0,0,1,.061-.458v0a.513.513,0,0,0,.015-.07,1.426,1.426,0,0,0,.333.041,1.4,1.4,0,0,0,1.395-1.392,1.377,1.377,0,0,0-.145-.614l-.121-.257a2.35,2.35,0,0,1,.109-2.36h.006l.04-.016a1.246,1.246,0,0,0,.23-.129.835.835,0,0,0,.29-.55c0-.023,0-.046,0-.072v-.045a.771.771,0,0,0-.015-.14l-.1.062c-.049.036-.1.072-.151.111s-.1.078-.141.121a1.843,1.843,0,0,0-.132.13c-.042.045-.083.092-.124.138l0,.009-.029.041h0l-.014.017-.024.034-.037.052-.011.014a2.623,2.623,0,0,0-.163,2.719l.117.251a1.087,1.087,0,0,1-.979,1.573h-.04a1,1,0,0,1-.742-.382c-.034-.043-.065-.086-.092-.124a1.786,1.786,0,0,1-.33-1.045l.022.025v0a1.185,1.185,0,0,0,.425.286.029.029,0,0,0,.037-.041,1.329,1.329,0,0,1-.047-.679,1.762,1.762,0,0,1,.126-.385.378.378,0,0,0,.074.224.029.029,0,0,0,.053-.011,1.977,1.977,0,0,1,.205-.607l.064-.117c.034-.063.07-.124.108-.185s.079-.128.114-.2h0l0-.014.012-.023.01-.022.01-.025.011-.022.011-.023.007-.022.009-.026.009-.022.008-.025.007-.023.01-.025.006-.023.008-.026.006-.022.006-.026.006-.024.005-.027.007-.023,0-.027,0-.023.007-.028v-.023l.006-.029,0-.023v-.029l0-.022,0-.032v-.127a1.8,1.8,0,0,0-.68-1.41c.035.007.067.015.1.023a.028.028,0,0,0,.026-.048,1.8,1.8,0,0,0-1.312-.38l-.1.014a.084.084,0,0,0-.068.059l-.062.191-.047.006a.516.516,0,0,0-.348.237l-.5.208a.1.1,0,0,0-.066.1.116.116,0,0,0,.028.066c.007.077.061.383.187.4l.156-.047h0l.023-.006h0c.141-.038.324-.065.375.02,0,0,.107.238-.032.292a1.355,1.355,0,0,1-.2.026l-.124.01-.073,0s-.076.231.068.3a1.194,1.194,0,0,1,.354-.054c.026,0,.127,0,.154,0l.075-.009a1.683,1.683,0,0,0,.537-.154.737.737,0,0,1-.388.261s-.124.042-.22.067a.792.792,0,0,0-.109.036,1.689,1.689,0,0,0-.615.452l-1.531-.721.024-.018v-.281a.437.437,0,0,0-.272-.405.335.335,0,0,0-.164-.042v1.041l1.283.924.507-.135a.08.08,0,0,1,.1.037.077.077,0,0,1-.032.1Z" transform="translate(-7694.239 -1789.09)" fill="#7d868c"/>
        <path id="Path_779" data-name="Path 779" d="M7700,1796.923a1.8,1.8,0,0,1-1.119,0,1.766,1.766,0,0,0,.354.822h.409a.435.435,0,0,1,.436.436h-1.336a2.45,2.45,0,0,1-.461-1.344.414.414,0,0,0-.415-.407.122.122,0,0,1,.12-.127,1.2,1.2,0,0,1,.339.05,1.3,1.3,0,0,0,.884-.078,1.745,1.745,0,0,0,.083-.523,1.675,1.675,0,0,0-.065-.458h0a.393.393,0,0,1-.011-.07,1.363,1.363,0,0,1-.335.042,1.392,1.392,0,0,1-1.251-2.006l.12-.258a2.319,2.319,0,0,0-.108-2.359h0l-.039-.016a1.306,1.306,0,0,1-.231-.129.823.823,0,0,1-.29-.55.378.378,0,0,1-.005-.072c0-.014,0-.029,0-.045a.693.693,0,0,1,.018-.14c.033.02.065.041.1.062.052.036.1.072.151.111s.1.078.143.121.088.085.131.13.083.092.123.138l.006.009.03.041h0l.013.019.026.034.038.052.009.013a2.642,2.642,0,0,1,.164,2.72l-.118.249a1.091,1.091,0,0,0,.979,1.573h.039a1.014,1.014,0,0,0,.745-.382c.034-.043.065-.086.09-.124a1.815,1.815,0,0,0,.331-1.045l-.02.025v0a1.232,1.232,0,0,1-.427.287.03.03,0,0,1-.038-.041,1.3,1.3,0,0,0,.046-.679,1.59,1.59,0,0,0-.124-.385.373.373,0,0,1-.075.223.029.029,0,0,1-.054-.01,1.938,1.938,0,0,0-.206-.607,1.159,1.159,0,0,1-.061-.117c-.036-.063-.073-.124-.108-.187a1.642,1.642,0,0,1-.115-.195h0l-.007-.014-.012-.025-.011-.021-.007-.025-.013-.022-.009-.024-.009-.022-.008-.025-.011-.022-.006-.025-.01-.023-.005-.025-.008-.023-.008-.026-.007-.023,0-.026-.009-.022,0-.027-.006-.023,0-.028,0-.022,0-.029-.006-.022,0-.029,0-.023,0-.029,0-.022,0-.032v-.021l0-.035v-.017l0-.054a1.8,1.8,0,0,1,.681-1.41l-.1.023a.027.027,0,0,1-.024-.048,1.79,1.79,0,0,1,1.31-.38l.1.014a.084.084,0,0,1,.069.059l.061.191.049.006a.513.513,0,0,1,.348.237l.5.208a.1.1,0,0,1,.067.1.089.089,0,0,1-.029.066c-.007.077-.058.382-.185.4l-.157-.047h0l-.023-.006h0c-.141-.038-.325-.065-.374.02,0,0-.108.238.03.292a1.371,1.371,0,0,0,.2.026l.123.01.071,0s.079.231-.065.3a1.211,1.211,0,0,0-.357-.054c-.026,0-.126,0-.151,0l-.076-.009a1.684,1.684,0,0,1-.537-.154.73.73,0,0,0,.386.261s.127.042.221.066a.868.868,0,0,1,.109.038,1.684,1.684,0,0,1,.615.45l1.531-.72-.025-.018v-.283a.435.435,0,0,1,.273-.4.336.336,0,0,1,.163-.042v1.041l-1.271.917-.549-.148a.077.077,0,0,0-.1.039.074.074,0,0,0,.03.1l1.454.735v-.154a.436.436,0,0,1,.436-.437v1.334l-1.6-.516a1.544,1.544,0,0,1-.45.876,1.49,1.49,0,0,0-.408.639l1.172.506a1.826,1.826,0,0,1,0,1.12,1.792,1.792,0,0,0,.822-.353v-.411a.436.436,0,0,1,.435-.438v1.338a2.425,2.425,0,0,1-1.343.461.414.414,0,0,0-.406.414.118.118,0,0,1-.126-.118,1.132,1.132,0,0,1,.049-.34,1.323,1.323,0,0,0,.042-.337,1.258,1.258,0,0,0-.12-.547,1.65,1.65,0,0,0-.21-.053,1.72,1.72,0,0,0-.312-.029,1.657,1.657,0,0,0-.2.013l.1-.649a.078.078,0,0,0-.052-.088.075.075,0,0,0-.089.047Z" transform="translate(-7697.077 -1789.09)" fill="#7d868c"/>
      </g>
      <path id="Path_780" data-name="Path 780" d="M7708.735,1784.8a3.413,3.413,0,0,0-2.9-1.818,3.3,3.3,0,0,0-3.127,0,3.418,3.418,0,0,0-2.9,1.818,2.659,2.659,0,0,0-.5,4.365,3.3,3.3,0,0,0,2.546,2.044,2.2,2.2,0,0,1,1.833,2.112l.005,5.772a1.687,1.687,0,0,1-1.544,1.608h-.341a.458.458,0,0,0-.457.458h5.853a.458.458,0,0,0-.457-.459h-.341a1.65,1.65,0,0,1-1.546-1.609l0-5.771a2.182,2.182,0,0,1,1.7-2.085l.085-.018a3.3,3.3,0,0,0,2.6-2.052,2.656,2.656,0,0,0-.5-4.365Zm-.087,3.683-.165.144-.083.205a2.373,2.373,0,0,1-1.552,1.416v0a4.387,4.387,0,0,0-.733.223l-.016.009c-.042.043-.08.09-.126.129l-.02.016c-.038.035-.079.07-.121.1s-.1.074-.148.108a2.506,2.506,0,0,1-2.823,0c-.05-.035-.1-.072-.151-.11s-.08-.067-.121-.1l-.017-.015c-.043-.039-.081-.085-.126-.127l-.017-.011a4.342,4.342,0,0,0-.732-.223v0a2.371,2.371,0,0,1-1.552-1.416l-.083-.205-.166-.144a1.756,1.756,0,0,1,.333-2.885l.247-.13.131-.246a2.521,2.521,0,0,1,2.136-1.34l.21-.008.186-.1a2.405,2.405,0,0,1,2.272,0l.184.1.212.008a2.522,2.522,0,0,1,2.135,1.34l.13.246.247.13a1.756,1.756,0,0,1,.333,2.885Z" transform="translate(-7677.722 -1753.176)" fill="#7d868c"/>
    </g>
    <path id="Path_781" data-name="Path 781" d="M7711.318,1781.755a9.281,9.281,0,0,1-1.977.831h5.852v12.7a9.4,9.4,0,0,1-.254,2.183,9.249,9.249,0,0,1-.881,2.322c-.045.086-.091.169-.14.252a9.521,9.521,0,0,1-16.49,0c-.048-.083-.094-.166-.141-.252a9.459,9.459,0,0,1-.881-2.322,9.646,9.646,0,0,1-.252-2.183v-12.7h5.957a9.506,9.506,0,0,1-2.026-.831h-4.76v13.528a10.5,10.5,0,0,0,.272,2.373,10.352,10.352,0,0,0,.959,2.527c.049.092.1.184.152.275a10.353,10.353,0,0,0,17.929,0c.052-.091.1-.183.152-.275a10.3,10.3,0,0,0,1.233-4.9v-13.528Z" transform="translate(-7679.122 -1753.557)" fill="#7d868c"/>
    <path id="Path_782" data-name="Path 782" d="M7711,1781.964l-.209-.208-.4.4-.4-.4-.206.208.4.4-.4.4.207.208.4-.4.4.4.209-.208-.4-.4Z" transform="translate(-7672.502 -1753.558)" fill="#7d868c"/>
    <path id="Path_783" data-name="Path 783" d="M7695.408,1781.964l-.209-.208-.4.4-.4-.4-.21.208.4.4-.4.4.209.208.4-.4.4.4.209-.208-.4-.4Z" transform="translate(-7679.637 -1753.558)" fill="#7d868c"/>
    <path id="Path_784" data-name="Path 784" d="M7711,1788.636l-.209-.208-.4.4-.4-.4-.206.208.4.4-.4.4.207.208.4-.4.4.4.209-.208-.4-.4Z" transform="translate(-7672.502 -1750.503)" fill="#7d868c"/>
    <path id="Path_785" data-name="Path 785" d="M7695.408,1788.636l-.209-.208-.4.4-.4-.4-.21.208.4.4-.4.4.209.208.4-.4.4.4.209-.208-.4-.4Z" transform="translate(-7679.637 -1750.503)" fill="#7d868c"/>
    <path id="Path_786" data-name="Path 786" d="M7696.967,1795.571l-.208-.208-.4.4-.4-.4-.209.208.4.4-.4.4.208.208.4-.4.4.4.208-.208-.4-.4Z" transform="translate(-7678.925 -1747.328)" fill="#7d868c"/>
    <path id="Path_787" data-name="Path 787" d="M7709.472,1795.571l-.209-.208-.4.4-.4-.4-.207.208.4.4-.4.4.209.208.4-.4.4.4.209-.208-.4-.4Z" transform="translate(-7673.201 -1747.328)" fill="#7d868c"/>
    <path id="Path_788" data-name="Path 788" d="M7703.212,1798.6l-.21-.208-.4.4-.4-.4-.209.208.4.4-.4.4.211.208.395-.4.4.4.21-.208-.4-.4Z" transform="translate(-7676.068 -1745.939)" fill="#7d868c"/>
  </g>
</svg>
