<svg id="Group_4009" data-name="Group 4009" xmlns="http://www.w3.org/2000/svg" width="152.162" height="62.791" viewBox="0 0 152.162 62.791">
  <g id="Group_4008" data-name="Group 4008" transform="translate(0)">
    <g id="Group_4007" data-name="Group 4007" transform="translate(35.916 18.872)">
      <path id="Path_12370" data-name="Path 12370" d="M796.634,3780c.066.088.085.16.058.214s-.1.083-.206.083h-1.979a.39.39,0,0,1-.3-.148l-3.233-3.876h-2.342v3.777a.219.219,0,0,1-.248.248h-1.6a.219.219,0,0,1-.247-.248V3769a.219.219,0,0,1,.247-.248h4.767a4.879,4.879,0,0,1,3.241,1.031,3.388,3.388,0,0,1,1.229,2.73,3.482,3.482,0,0,1-.709,2.251,3.8,3.8,0,0,1-2.012,1.245Zm-8-9.418v3.859h2.54a3.5,3.5,0,0,0,2.02-.528,1.625,1.625,0,0,0,.767-1.4,1.657,1.657,0,0,0-.726-1.394,3.115,3.115,0,0,0-1.9-.536Z" transform="translate(-785.249 -3768.089)" fill="#67737a"/>
      <path id="Path_12371" data-name="Path 12371" d="M864.107,3800.032a4.413,4.413,0,0,1-3.175-1.154,4.019,4.019,0,0,1-1.212-3.052,4.077,4.077,0,0,1,1.179-3.051,4.23,4.23,0,0,1,3.093-1.155,4.085,4.085,0,0,1,3.01,1.138,4.043,4.043,0,0,1,1.147,3q0,.231-.033.659a.257.257,0,0,1-.28.214h-6.086a2.364,2.364,0,0,0,.874,1.3,2.5,2.5,0,0,0,1.534.479,1.954,1.954,0,0,0,1.567-.578.443.443,0,0,1,.313-.148h1.633a.238.238,0,0,1,.2.083.163.163,0,0,1,0,.2,3.25,3.25,0,0,1-1.443,1.5A4.713,4.713,0,0,1,864.107,3800.032Zm-2.408-4.816h4.4a2.047,2.047,0,0,0-.585-1.427,2,2,0,0,0-1.477-.552,2.375,2.375,0,0,0-1.575.544A2.159,2.159,0,0,0,861.7,3795.216Z" transform="translate(-847.609 -3787.579)" fill="#67737a"/>
      <path id="Path_12372" data-name="Path 12372" d="M937.093,3776.245a.273.273,0,0,1-.2.3,3.665,3.665,0,0,1-1.121.2,1.918,1.918,0,0,1-1.913-1.023,4.012,4.012,0,0,1-2.722,1.023,4.352,4.352,0,0,1-3.142-1.179,4.342,4.342,0,0,1,0-6.053,4.352,4.352,0,0,1,3.142-1.179,3.96,3.96,0,0,1,2.31.709v-4.5a.219.219,0,0,1,.247-.247h1.534a.219.219,0,0,1,.248.247v9.83a.617.617,0,0,0,.156.445.551.551,0,0,0,.421.165,3.292,3.292,0,0,0,.61-.066c.176-.033.275.033.3.2Zm-5.938-1.155a2.133,2.133,0,0,0,1.666-.718,2.949,2.949,0,0,0,0-3.678,2.133,2.133,0,0,0-1.666-.718,2.228,2.228,0,0,0-1.707.718,2.865,2.865,0,0,0,0,3.678A2.228,2.228,0,0,0,931.155,3775.091Z" transform="translate(-904.744 -3764.287)" fill="#67737a"/>
      <path id="Path_12373" data-name="Path 12373" d="M1044.3,3776.245a.272.272,0,0,1-.2.3,3.664,3.664,0,0,1-1.121.2,1.918,1.918,0,0,1-1.913-1.023,4.011,4.011,0,0,1-2.722,1.023,4.353,4.353,0,0,1-3.142-1.179,4.342,4.342,0,0,1,0-6.053,4.353,4.353,0,0,1,3.142-1.179,3.961,3.961,0,0,1,2.309.709v-4.5a.219.219,0,0,1,.247-.247h1.534a.219.219,0,0,1,.248.247v9.83a.617.617,0,0,0,.156.445.551.551,0,0,0,.421.165,3.3,3.3,0,0,0,.61-.066q.263-.049.3.2Zm-5.938-1.155a2.133,2.133,0,0,0,1.666-.718,2.95,2.95,0,0,0,0-3.678,2.133,2.133,0,0,0-1.666-.718,2.229,2.229,0,0,0-1.707.718,2.865,2.865,0,0,0,0,3.678A2.229,2.229,0,0,0,1038.361,3775.091Z" transform="translate(-996.1 -3764.287)" fill="#67737a"/>
      <path id="Path_12374" data-name="Path 12374" d="M1116.563,3800.032a4.413,4.413,0,0,1-3.175-1.154,4.019,4.019,0,0,1-1.212-3.052,4.077,4.077,0,0,1,1.179-3.051,4.23,4.23,0,0,1,3.093-1.155,4.086,4.086,0,0,1,3.01,1.138,4.043,4.043,0,0,1,1.146,3c0,.154-.011.374-.033.659a.257.257,0,0,1-.28.214H1114.2a2.363,2.363,0,0,0,.874,1.3,2.5,2.5,0,0,0,1.534.479,1.955,1.955,0,0,0,1.567-.578.442.442,0,0,1,.313-.148h1.633a.238.238,0,0,1,.2.083.163.163,0,0,1,0,.2,3.251,3.251,0,0,1-1.443,1.5A4.713,4.713,0,0,1,1116.563,3800.032Zm-2.408-4.816h4.4a2.047,2.047,0,0,0-.585-1.427,2,2,0,0,0-1.476-.552,2.376,2.376,0,0,0-1.575.544A2.159,2.159,0,0,0,1114.155,3795.216Z" transform="translate(-1062.74 -3787.579)" fill="#67737a"/>
      <path id="Path_12375" data-name="Path 12375" d="M783.407,3880.2a.616.616,0,0,1-.6-.379l-4.95-11.706a.4.4,0,0,1,0-.406.454.454,0,0,1,.4-.154h3.36a.544.544,0,0,1,.578.379l2.963,7.3,2.963-7.3a.574.574,0,0,1,.6-.379h3.342q.614,0,.415.56l-4.986,11.706a.549.549,0,0,1-.56.379Z" transform="translate(-777.807 -3852.29)" fill="#67737a"/>
      <path id="Path_12376" data-name="Path 12376" d="M887.724,3899.157a.462.462,0,0,1-.4.56,7.429,7.429,0,0,1-1.662.2,3.174,3.174,0,0,1-2.691-1.048,4.727,4.727,0,0,1-3.089,1.048,4.526,4.526,0,0,1-3.4-1.337,5.312,5.312,0,0,1,0-6.964,4.544,4.544,0,0,1,3.4-1.327,3.7,3.7,0,0,1,2.583.885v-.073q0-.468.506-.469h2.673q.488,0,.488.469v4.842a1.264,1.264,0,0,0,.108.623.453.453,0,0,0,.416.172,2.4,2.4,0,0,0,.325-.018q.487,0,.542.416Zm-7.172-2.041a1.611,1.611,0,0,0,1.283-.542,2.557,2.557,0,0,0,0-2.954,1.6,1.6,0,0,0-1.283-.551,1.548,1.548,0,0,0-1.247.56,2.516,2.516,0,0,0,0,2.927A1.546,1.546,0,0,0,880.552,3897.115Z" transform="translate(-860.789 -3871.658)" fill="#67737a"/>
      <path id="Path_12377" data-name="Path 12377" d="M969.327,3899.915a5.5,5.5,0,0,1-3.857-1.327,4.918,4.918,0,0,1,0-6.982,6.223,6.223,0,0,1,7.19-.334,3.944,3.944,0,0,1,1.617,2.646.407.407,0,0,1-.1.37.526.526,0,0,1-.389.135H971.44a.648.648,0,0,1-.578-.415,1.549,1.549,0,0,0-1.518-.885,1.773,1.773,0,0,0-1.346.542,1.987,1.987,0,0,0-.515,1.427,2.011,2.011,0,0,0,.515,1.446,1.772,1.772,0,0,0,1.346.542,1.5,1.5,0,0,0,1.518-.9.676.676,0,0,1,.578-.4h2.349a.527.527,0,0,1,.389.135.408.408,0,0,1,.1.37,3.943,3.943,0,0,1-1.617,2.646A5.493,5.493,0,0,1,969.327,3899.915Z" transform="translate(-936.485 -3871.658)" fill="#67737a"/>
      <path id="Path_12378" data-name="Path 12378" d="M1053.253,3901.135a.462.462,0,0,1-.4.56,7.261,7.261,0,0,1-1.662.2,3.041,3.041,0,0,1-2.818-1.157,3.852,3.852,0,0,1-2.981,1.157,3.545,3.545,0,0,1-3.794-3.775v-5.041q0-.469.506-.469h2.818q.506,0,.506.469v4.173q0,1.409,1.174,1.409a1.147,1.147,0,0,0,.912-.361,1.487,1.487,0,0,0,.316-1.012v-4.209q0-.469.488-.469h2.836q.506,0,.506.469v4.841a1.259,1.259,0,0,0,.109.624.452.452,0,0,0,.415.172,2.032,2.032,0,0,0,.307-.018q.488,0,.542.415Z" transform="translate(-1002.599 -3873.636)" fill="#67737a"/>
      <path id="Path_12379" data-name="Path 12379" d="M1131.488,3890.265a3.887,3.887,0,0,1,2.818,1.029,3.619,3.619,0,0,1,1.066,2.728v5.04q0,.488-.506.488h-2.836a.509.509,0,0,1-.361-.135.462.462,0,0,1-.145-.353v-4.173a1.518,1.518,0,0,0-.316-1.03,1.126,1.126,0,0,0-.894-.361,1.19,1.19,0,0,0-.921.352,1.425,1.425,0,0,0-.325,1v4.209q0,.488-.506.488h-2.818q-.506,0-.506-.488v-4.841a1.033,1.033,0,0,0-.117-.587.558.558,0,0,0-.46-.154h-.181c-.35.024-.524-.108-.524-.4v-2.005a.539.539,0,0,1,.4-.542,4.211,4.211,0,0,1,1.68-.271,2.788,2.788,0,0,1,2.439,1.12A3.894,3.894,0,0,1,1131.488,3890.265Z" transform="translate(-1072.777 -3871.636)" fill="#67737a"/>
      <path id="Path_12380" data-name="Path 12380" d="M1221.775,3899.157a.462.462,0,0,1-.4.56,7.431,7.431,0,0,1-1.662.2,3.175,3.175,0,0,1-2.692-1.048,4.727,4.727,0,0,1-3.089,1.048,4.526,4.526,0,0,1-3.4-1.337,5.312,5.312,0,0,1,0-6.964,4.543,4.543,0,0,1,3.4-1.327,3.7,3.7,0,0,1,2.583.885v-.073q0-.468.506-.469h2.673q.488,0,.488.469v4.842a1.262,1.262,0,0,0,.108.623.453.453,0,0,0,.416.172,2.4,2.4,0,0,0,.325-.018q.487,0,.542.416Zm-7.172-2.041a1.61,1.61,0,0,0,1.282-.542,2.557,2.557,0,0,0,0-2.954,1.6,1.6,0,0,0-1.282-.551,1.547,1.547,0,0,0-1.247.56,2.516,2.516,0,0,0,0,2.927A1.546,1.546,0,0,0,1214.6,3897.115Z" transform="translate(-1145.451 -3871.658)" fill="#67737a"/>
      <path id="Path_12381" data-name="Path 12381" d="M1303.375,3899.915a5.5,5.5,0,0,1-3.857-1.327,4.918,4.918,0,0,1,0-6.982,6.223,6.223,0,0,1,7.19-.334,3.943,3.943,0,0,1,1.617,2.646.407.407,0,0,1-.1.37.525.525,0,0,1-.389.135h-2.348a.649.649,0,0,1-.578-.415,1.549,1.549,0,0,0-1.518-.885,1.773,1.773,0,0,0-1.346.542,1.988,1.988,0,0,0-.515,1.427,2.012,2.012,0,0,0,.515,1.446,1.773,1.773,0,0,0,1.346.542,1.5,1.5,0,0,0,1.518-.9.676.676,0,0,1,.578-.4h2.348a.526.526,0,0,1,.389.135.407.407,0,0,1,.1.37,3.942,3.942,0,0,1-1.617,2.646A5.492,5.492,0,0,1,1303.375,3899.915Z" transform="translate(-1221.144 -3871.658)" fill="#67737a"/>
      <path id="Path_12382" data-name="Path 12382" d="M1377.048,3862.859a2.149,2.149,0,0,1-1.535-.561,2,2,0,0,1,0-2.845,2.343,2.343,0,0,1,3.062,0,1.974,1.974,0,0,1,0,2.845A2.157,2.157,0,0,1,1377.048,3862.859Zm-1.409,9.953q-.506,0-.506-.488v-7.985q0-.469.506-.469h2.818q.506,0,.506.469v7.985q0,.488-.506.488Z" transform="translate(-1286.635 -3844.898)" fill="#67737a"/>
      <path id="Path_12383" data-name="Path 12383" d="M1415.5,3876.487a5.438,5.438,0,0,1-3.83-1.328,4.94,4.94,0,0,1,0-6.982,5.462,5.462,0,0,1,3.83-1.318,5.523,5.523,0,0,1,3.857,1.318,4.917,4.917,0,0,1,0,6.982A5.5,5.5,0,0,1,1415.5,3876.487Zm0-2.981a1.862,1.862,0,0,0,1.364-.506,1.992,1.992,0,0,0,0-2.674,1.861,1.861,0,0,0-1.364-.506,1.844,1.844,0,1,0,0,3.685Zm-1.174-7.569a.389.389,0,0,1-.37-.171.4.4,0,0,1,.027-.406l1.156-2.2a.591.591,0,0,1,.56-.361h2.746a.388.388,0,0,1,.379.172.382.382,0,0,1-.072.406l-1.517,2.258a.646.646,0,0,1-.578.307Z" transform="translate(-1316.725 -3848.23)" fill="#67737a"/>
      <path id="Path_12384" data-name="Path 12384" d="M1494.369,3890.265a3.886,3.886,0,0,1,2.818,1.029,3.619,3.619,0,0,1,1.066,2.728v5.04q0,.488-.506.488h-2.836a.509.509,0,0,1-.361-.135.461.461,0,0,1-.145-.353v-4.173a1.518,1.518,0,0,0-.316-1.03,1.126,1.126,0,0,0-.894-.361,1.19,1.19,0,0,0-.921.352,1.425,1.425,0,0,0-.325,1v4.209q0,.488-.506.488h-2.818q-.506,0-.506-.488v-4.841a1.035,1.035,0,0,0-.117-.587.559.559,0,0,0-.461-.154h-.181c-.35.024-.524-.108-.524-.4v-2.005a.539.539,0,0,1,.4-.542,4.21,4.21,0,0,1,1.68-.271,2.789,2.789,0,0,1,2.439,1.12A3.894,3.894,0,0,1,1494.369,3890.265Z" transform="translate(-1382.007 -3871.636)" fill="#67737a"/>
      <path id="Path_12385" data-name="Path 12385" d="M796.634,3992.492c.066.088.085.16.058.215s-.1.082-.206.082h-1.979a.389.389,0,0,1-.3-.148l-3.233-3.875h-2.342v3.777a.218.218,0,0,1-.248.247h-1.6a.218.218,0,0,1-.247-.247v-11.051a.219.219,0,0,1,.247-.248h4.767a4.879,4.879,0,0,1,3.241,1.03,3.388,3.388,0,0,1,1.229,2.73,3.483,3.483,0,0,1-.709,2.252,3.8,3.8,0,0,1-2.012,1.245Zm-8-9.418v3.86h2.54a3.5,3.5,0,0,0,2.02-.528,1.626,1.626,0,0,0,.767-1.4,1.658,1.658,0,0,0-.726-1.394,3.119,3.119,0,0,0-1.9-.536Z" transform="translate(-785.249 -3949.167)" fill="#67737a"/>
      <path id="Path_12386" data-name="Path 12386" d="M868.037,4012.03a.272.272,0,0,1-.2.3,3.657,3.657,0,0,1-1.121.2,1.917,1.917,0,0,1-1.913-1.022,4.011,4.011,0,0,1-2.722,1.022,4.352,4.352,0,0,1-3.142-1.179,4.341,4.341,0,0,1,0-6.053,4.353,4.353,0,0,1,3.142-1.179,3.875,3.875,0,0,1,2.326.726v-.231a.219.219,0,0,1,.247-.248h1.517a.219.219,0,0,1,.248.248v5.542a.619.619,0,0,0,.156.445.552.552,0,0,0,.421.165,3.274,3.274,0,0,0,.61-.066c.176-.033.275.033.3.2Zm-5.938-1.155a2.132,2.132,0,0,0,1.666-.718,2.949,2.949,0,0,0,0-3.678,2.133,2.133,0,0,0-1.666-.718,2.229,2.229,0,0,0-1.707.718,2.865,2.865,0,0,0,0,3.678A2.228,2.228,0,0,0,862.1,4010.875Z" transform="translate(-845.898 -3968.655)" fill="#67737a"/>
      <path id="Path_12387" data-name="Path 12387" d="M944.231,3988.739a.273.273,0,0,1-.2.3,3.664,3.664,0,0,1-1.121.2,1.918,1.918,0,0,1-1.913-1.022,4.011,4.011,0,0,1-2.722,1.022,4.353,4.353,0,0,1-3.142-1.179,4.342,4.342,0,0,1,0-6.053,4.354,4.354,0,0,1,3.142-1.179,3.962,3.962,0,0,1,2.31.709v-4.5a.219.219,0,0,1,.247-.247h1.534a.219.219,0,0,1,.248.247v9.831a.618.618,0,0,0,.157.445.553.553,0,0,0,.421.165,3.314,3.314,0,0,0,.61-.066c.176-.033.275.033.3.2Zm-5.938-1.155a2.132,2.132,0,0,0,1.666-.718,2.949,2.949,0,0,0,0-3.678,2.133,2.133,0,0,0-1.666-.718,2.228,2.228,0,0,0-1.707.718,2.865,2.865,0,0,0,0,3.678A2.228,2.228,0,0,0,938.293,3987.584Z" transform="translate(-910.827 -3945.364)" fill="#67737a"/>
      <path id="Path_12388" data-name="Path 12388" d="M1020.425,4012.03a.273.273,0,0,1-.2.3,3.658,3.658,0,0,1-1.121.2,1.918,1.918,0,0,1-1.913-1.022,4.011,4.011,0,0,1-2.722,1.022,4.351,4.351,0,0,1-3.142-1.179,4.342,4.342,0,0,1,0-6.053,4.352,4.352,0,0,1,3.142-1.179,3.875,3.875,0,0,1,2.326.726v-.231a.219.219,0,0,1,.247-.248h1.517a.219.219,0,0,1,.248.248v5.542a.618.618,0,0,0,.156.445.552.552,0,0,0,.421.165,3.275,3.275,0,0,0,.61-.066c.176-.033.275.033.3.2Zm-5.938-1.155a2.133,2.133,0,0,0,1.666-.718,2.949,2.949,0,0,0,0-3.678,2.133,2.133,0,0,0-1.666-.718,2.228,2.228,0,0,0-1.707.718,2.864,2.864,0,0,0,0,3.678A2.228,2.228,0,0,0,1014.487,4010.875Z" transform="translate(-975.756 -3968.655)" fill="#67737a"/>
      <path id="Path_12389" data-name="Path 12389" d="M1091.727,4004.278a.241.241,0,0,1,.182.3l-.2,1.237a.223.223,0,0,1-.3.2,5.347,5.347,0,0,0-.94-.082,2.277,2.277,0,0,0-2.392,2.392v3.711a.219.219,0,0,1-.247.248h-1.518a.219.219,0,0,1-.247-.248v-5.542q0-.61-.693-.61a4.121,4.121,0,0,0-.462.05q-.3.033-.3-.2v-1.155a.28.28,0,0,1,.2-.3,3.378,3.378,0,0,1,1.006-.165,1.823,1.823,0,0,1,1.93,1.188,3.555,3.555,0,0,1,2.738-1.188A4.27,4.27,0,0,1,1091.727,4004.278Z" transform="translate(-1039.256 -3968.655)" fill="#67737a"/>
      <path id="Path_12390" data-name="Path 12390" d="M1168.321,3993.036a4.667,4.667,0,0,1-3.043-.973,3.68,3.68,0,0,1-1.36-2.59c-.022-.176.06-.264.247-.264h1.616a.233.233,0,0,1,.247.231,1.908,1.908,0,0,0,.783,1.27,2.7,2.7,0,0,0,1.641.479,2.159,2.159,0,0,0,1.7-.726,2.779,2.779,0,0,0,.643-1.914v-5.476h-5.047a.219.219,0,0,1-.247-.248v-1.335a.219.219,0,0,1,.247-.248h6.927a.219.219,0,0,1,.247.248v7.125a4.291,4.291,0,0,1-1.22,3.249A4.683,4.683,0,0,1,1168.321,3993.036Z" transform="translate(-1106.828 -3949.167)" fill="#67737a"/>
      <path id="Path_12391" data-name="Path 12391" d="M1245.437,4012.03a.273.273,0,0,1-.2.3,3.657,3.657,0,0,1-1.121.2,1.918,1.918,0,0,1-1.913-1.022,4.011,4.011,0,0,1-2.722,1.022,4.351,4.351,0,0,1-3.142-1.179,4.342,4.342,0,0,1,0-6.053,4.352,4.352,0,0,1,3.142-1.179,3.875,3.875,0,0,1,2.326.726v-.231a.219.219,0,0,1,.247-.248h1.517a.219.219,0,0,1,.248.248v5.542a.619.619,0,0,0,.156.445.552.552,0,0,0,.421.165,3.273,3.273,0,0,0,.61-.066c.176-.033.275.033.3.2Zm-5.938-1.155a2.133,2.133,0,0,0,1.666-.718,2.949,2.949,0,0,0,0-3.678,2.133,2.133,0,0,0-1.666-.718,2.229,2.229,0,0,0-1.707.718,2.865,2.865,0,0,0,0,3.678A2.228,2.228,0,0,0,1239.5,4010.875Z" transform="translate(-1167.5 -3968.655)" fill="#67737a"/>
      <path id="Path_12392" data-name="Path 12392" d="M1316.406,3989.234a2.617,2.617,0,0,1-1.674-.5,1.61,1.61,0,0,1-.635-1.328v-10.375a.219.219,0,0,1,.248-.247h1.517a.219.219,0,0,1,.248.247v9.831a.618.618,0,0,0,.156.445.553.553,0,0,0,.421.165,3.316,3.316,0,0,0,.61-.066q.264-.049.3.2l.132,1.138a.254.254,0,0,1-.2.3A3.666,3.666,0,0,1,1316.406,3989.234Z" transform="translate(-1234.807 -3945.364)" fill="#67737a"/>
      <path id="Path_12393" data-name="Path 12393" d="M1347.365,3980.763a1.256,1.256,0,0,1-.891-.338,1.1,1.1,0,0,1,0-1.633,1.331,1.331,0,0,1,1.773,0,1.083,1.083,0,0,1,0,1.633A1.266,1.266,0,0,1,1347.365,3980.763Zm-.759,9.649a.219.219,0,0,1-.247-.248v-7.422a.219.219,0,0,1,.247-.248h1.517a.219.219,0,0,1,.248.248v7.422a.219.219,0,0,1-.248.248Z" transform="translate(-1262.088 -3946.79)" fill="#67737a"/>
      <path id="Path_12394" data-name="Path 12394" d="M1375.006,4012.525a4.787,4.787,0,0,1-2.713-.693,2.7,2.7,0,0,1-1.212-1.93q-.033-.263.248-.264l1.385.016a.263.263,0,0,1,.264.215q.363,1.1,2.029,1.1a2.366,2.366,0,0,0,1.155-.247.731.731,0,0,0,.445-.643.742.742,0,0,0-.544-.7,5.257,5.257,0,0,0-1.311-.322q-.767-.1-1.534-.264a2.6,2.6,0,0,1-1.311-.7,1.976,1.976,0,0,1-.545-1.476,2.142,2.142,0,0,1,.957-1.815,4.209,4.209,0,0,1,2.523-.692,4.388,4.388,0,0,1,2.441.643,2.423,2.423,0,0,1,1.155,1.7q.033.264-.247.264H1376.8c-.143,0-.231-.049-.264-.148a1.3,1.3,0,0,0-.619-.718,2.117,2.117,0,0,0-1.08-.272,2.174,2.174,0,0,0-1.08.231.69.69,0,0,0-.4.61.765.765,0,0,0,.388.677,2.234,2.234,0,0,0,.957.313q.569.066,1.245.206a11.129,11.129,0,0,1,1.245.33,1.967,1.967,0,0,1,.957.7,2.1,2.1,0,0,1,.388,1.3,2.2,2.2,0,0,1-.973,1.864A4.243,4.243,0,0,1,1375.006,4012.525Z" transform="translate(-1283.362 -3968.655)" fill="#67737a"/>
      <path id="Path_12395" data-name="Path 12395" d="M1433.942,4012.525a4.407,4.407,0,0,1-3.183-1.154,4.468,4.468,0,0,1,0-6.1,4.94,4.94,0,0,1,5.83-.379,3.265,3.265,0,0,1,1.344,2.062c.033.176-.038.264-.214.264h-1.567a.263.263,0,0,1-.264-.215,1.588,1.588,0,0,0-.709-.849,2.329,2.329,0,0,0-1.237-.322,2.269,2.269,0,0,0-1.724.685,2.828,2.828,0,0,0,0,3.612,2.266,2.266,0,0,0,1.724.685,2.331,2.331,0,0,0,1.237-.322,1.587,1.587,0,0,0,.709-.849.262.262,0,0,1,.264-.214h1.567q.264,0,.214.264a3.266,3.266,0,0,1-1.344,2.062A4.42,4.42,0,0,1,1433.942,4012.525Z" transform="translate(-1333.195 -3968.655)" fill="#67737a"/>
      <path id="Path_12396" data-name="Path 12396" d="M1501.854,4011.37a4.99,4.99,0,0,1-6.384,0,4.447,4.447,0,0,1,0-6.1,4.989,4.989,0,0,1,6.384,0,4.447,4.447,0,0,1,0,6.1Zm-4.924-1.254a2.555,2.555,0,0,0,3.464,0,2.779,2.779,0,0,0,0-3.6,2.555,2.555,0,0,0-3.464,0,2.779,2.779,0,0,0,0,3.6Z" transform="translate(-1388.331 -3968.655)" fill="#67737a"/>
    </g>
    <path id="Path_12397" data-name="Path 12397" d="M665.742,3773.407h-4.876v-3.73h2.912a.786.786,0,0,0,.785-.786V3766.4a.785.785,0,0,0-.785-.785h-5.858v1.571h5.072v.916h-8.116v-.916h1.276v-1.571h-2.062a.785.785,0,0,0-.786.785v2.487a.786.786,0,0,0,.786.786H657v3.73h-4.876a.786.786,0,0,0-.785.785v2.815a.786.786,0,0,0,.785.786h1.636v12.632h1.571v-5.139h7.2v10.375h-7.2v-3.469h-1.571v4.254a.785.785,0,0,0,.785.786h.956a3.432,3.432,0,0,0,2.644,3.271v8.051a.785.785,0,1,0,1.571,0V3800.5a3.432,3.432,0,0,0,2.644-3.271h.956a.785.785,0,0,0,.785-.786v-18.653h1.636a.786.786,0,0,0,.785-.786v-2.815A.786.786,0,0,0,665.742,3773.407Zm-6.807,25.625a1.864,1.864,0,0,1-1.859-1.8h3.717A1.864,1.864,0,0,1,658.935,3799.032Zm-.36-29.159h.72v3.207h-.72Zm3.96,13.843h-7.2v-.786h3.305a.785.785,0,1,0,0-1.571h-3.305v-1.227h3.305a.786.786,0,0,0,0-1.571h-3.305v-.769h7.2Zm2.421-7.495H652.914v-1.244h12.043Z" transform="translate(-634.124 -3746.55)" fill="#67737a"/>
    <path id="Path_12398" data-name="Path 12398" d="M587.169,3701.4l2.036.322a1.252,1.252,0,0,0,1.394-.876,14.2,14.2,0,0,1,10.946-9.836,1.258,1.258,0,0,0,.993-1.563l-.539-1.981a1.257,1.257,0,0,0-1.458-.9,18.736,18.736,0,0,0-14.386,13.26A1.254,1.254,0,0,0,587.169,3701.4Z" transform="translate(-578.534 -3679.161)" fill="#67737a"/>
    <path id="Path_12399" data-name="Path 12399" d="M535.94,3657.683l2.028.32a1.249,1.249,0,0,0,1.408-.923,21.8,21.8,0,0,1,16.557-15.979,1.251,1.251,0,0,0,.943-1.553l-.539-1.977a1.251,1.251,0,0,0-1.469-.9,26.351,26.351,0,0,0-19.949,19.465A1.258,1.258,0,0,0,535.94,3657.683Z" transform="translate(-534.882 -3636.643)" fill="#67737a"/>
  </g>
  <ellipse id="Ellipse_233" data-name="Ellipse 233" cx="2.175" cy="2.12" rx="2.175" ry="2.12" transform="translate(124.138 32.702)" fill="#67737a"/>
</svg>
