<svg id="Group_4023" data-name="Group 4023" xmlns="http://www.w3.org/2000/svg" width="161.277" height="44.286" viewBox="0 0 161.277 44.286">
  <g id="Group_4021" data-name="Group 4021" transform="translate(48.749 9.752)">
    <g id="Group_4020" data-name="Group 4020">
      <g id="Group_4017" data-name="Group 4017" transform="translate(1.224 20.906)">
        <path id="Path_12418" data-name="Path 12418" d="M862.452,583.933a3.721,3.721,0,0,1-2.677-.973,3.389,3.389,0,0,1-1.022-2.572,3.437,3.437,0,0,1,.995-2.572,3.566,3.566,0,0,1,2.607-.974,3.443,3.443,0,0,1,2.537.96,3.407,3.407,0,0,1,.966,2.531c0,.13-.009.315-.027.556a.217.217,0,0,1-.237.181h-5.131a2,2,0,0,0,.737,1.1,2.107,2.107,0,0,0,1.293.4,1.649,1.649,0,0,0,1.321-.487.371.371,0,0,1,.264-.125h1.376a.2.2,0,0,1,.167.07.139.139,0,0,1,0,.167,2.734,2.734,0,0,1-1.217,1.265A3.971,3.971,0,0,1,862.452,583.933Zm-2.03-4.06h3.712a1.724,1.724,0,0,0-.493-1.2,1.683,1.683,0,0,0-1.244-.466,2,2,0,0,0-1.327.459A1.823,1.823,0,0,0,860.421,579.873Z" transform="translate(-858.753 -573.644)" fill="#96a3ab"/>
        <path id="Path_12419" data-name="Path 12419" d="M889.653,583.933a4.032,4.032,0,0,1-2.287-.584,2.273,2.273,0,0,1-1.022-1.627c-.019-.148.05-.223.209-.223l1.167.014a.222.222,0,0,1,.223.181q.305.932,1.711.932a1.993,1.993,0,0,0,.972-.208.617.617,0,0,0,.376-.543.625.625,0,0,0-.459-.591,4.451,4.451,0,0,0-1.105-.271q-.647-.084-1.293-.223a2.2,2.2,0,0,1-1.105-.591,1.666,1.666,0,0,1-.459-1.244,1.8,1.8,0,0,1,.806-1.53,3.548,3.548,0,0,1,2.127-.584,3.7,3.7,0,0,1,2.059.542,2.041,2.041,0,0,1,.973,1.432q.028.222-.208.223h-1.168c-.12,0-.194-.042-.222-.125a1.1,1.1,0,0,0-.521-.605,1.79,1.79,0,0,0-.912-.229,1.836,1.836,0,0,0-.911.194.581.581,0,0,0-.34.515.645.645,0,0,0,.327.57,1.882,1.882,0,0,0,.806.264q.48.056,1.05.173a9.427,9.427,0,0,1,1.049.278,1.656,1.656,0,0,1,.806.591,1.768,1.768,0,0,1,.327,1.1,1.854,1.854,0,0,1-.82,1.571A3.574,3.574,0,0,1,889.653,583.933Z" transform="translate(-877.57 -573.644)" fill="#96a3ab"/>
        <path id="Path_12420" data-name="Path 12420" d="M929.147,576.842a3.669,3.669,0,0,1,2.649.994,3.66,3.66,0,0,1,0,5.1,3.667,3.667,0,0,1-2.649.994,3.264,3.264,0,0,1-1.96-.612v3.393a.185.185,0,0,1-.209.209H925.7a.184.184,0,0,1-.208-.209v-7.87q0-.515-.584-.515a3.574,3.574,0,0,0-.389.042c-.166.019-.25-.037-.25-.167v-.973a.236.236,0,0,1,.167-.251,2.44,2.44,0,0,1,.848-.139,1.6,1.6,0,0,1,1.585.876A3.172,3.172,0,0,1,929.147,576.842Zm-.014,5.7a1.878,1.878,0,0,0,1.439-.605,2.416,2.416,0,0,0,0-3.1,1.879,1.879,0,0,0-1.439-.6,1.8,1.8,0,0,0-1.4.6,2.488,2.488,0,0,0,0,3.1A1.8,1.8,0,0,0,929.133,582.543Z" transform="translate(-903.438 -573.644)" fill="#96a3ab"/>
        <path id="Path_12421" data-name="Path 12421" d="M962.228,576.981a.2.2,0,0,1,.153.251l-.167,1.043a.187.187,0,0,1-.25.167,4.527,4.527,0,0,0-.792-.07,1.981,1.981,0,0,0-1.454.556,1.961,1.961,0,0,0-.563,1.46v3.129a.184.184,0,0,1-.208.208h-1.279a.184.184,0,0,1-.209-.208v-4.672q0-.515-.584-.515a3.568,3.568,0,0,0-.389.042c-.167.019-.25-.037-.25-.167v-.973a.237.237,0,0,1,.167-.251,2.852,2.852,0,0,1,.848-.139,1.537,1.537,0,0,1,1.627,1,3,3,0,0,1,2.308-1A3.615,3.615,0,0,1,962.228,576.981Z" transform="translate(-925.242 -573.644)" fill="#96a3ab"/>
        <path id="Path_12422" data-name="Path 12422" d="M983.42,583.933a3.72,3.72,0,0,1-2.677-.973,3.386,3.386,0,0,1-1.022-2.572,3.436,3.436,0,0,1,.994-2.572,3.568,3.568,0,0,1,2.607-.974,3.445,3.445,0,0,1,2.538.96,3.407,3.407,0,0,1,.966,2.531q0,.194-.027.556a.217.217,0,0,1-.237.181h-5.13a1.989,1.989,0,0,0,.737,1.1,2.1,2.1,0,0,0,1.293.4,1.648,1.648,0,0,0,1.321-.487.373.373,0,0,1,.264-.125h1.377a.2.2,0,0,1,.167.07.139.139,0,0,1,0,.167,2.736,2.736,0,0,1-1.216,1.265A3.974,3.974,0,0,1,983.42,583.933Zm-2.03-4.06H985.1a1.728,1.728,0,0,0-.493-1.2,1.683,1.683,0,0,0-1.244-.466,2,2,0,0,0-1.328.459A1.82,1.82,0,0,0,981.389,579.873Z" transform="translate(-941.261 -573.644)" fill="#96a3ab"/>
        <path id="Path_12423" data-name="Path 12423" d="M1009.492,584.172a.24.24,0,0,1-.236-.153l-3.018-6.271q-.111-.25.154-.25h1.376a.241.241,0,0,1,.237.153l2.072,4.477,2.1-4.477a.241.241,0,0,1,.237-.153h1.348q.264,0,.153.25l-3.017,6.271a.242.242,0,0,1-.237.153Z" transform="translate(-959.326 -574.092)" fill="#96a3ab"/>
        <path id="Path_12424" data-name="Path 12424" d="M1038.393,583.933a3.719,3.719,0,0,1-2.677-.973,3.386,3.386,0,0,1-1.022-2.572,3.437,3.437,0,0,1,.994-2.572,3.568,3.568,0,0,1,2.607-.974,3.444,3.444,0,0,1,2.537.96,3.407,3.407,0,0,1,.967,2.531c0,.13-.01.315-.028.556a.218.218,0,0,1-.237.181h-5.13a1.989,1.989,0,0,0,.737,1.1,2.1,2.1,0,0,0,1.293.4,1.648,1.648,0,0,0,1.321-.487.372.372,0,0,1,.264-.125h1.377a.2.2,0,0,1,.166.07.139.139,0,0,1,0,.167,2.737,2.737,0,0,1-1.216,1.265A3.972,3.972,0,0,1,1038.393,583.933Zm-2.03-4.06h3.713a1.726,1.726,0,0,0-.494-1.2,1.683,1.683,0,0,0-1.244-.466,2,2,0,0,0-1.328.459A1.82,1.82,0,0,0,1036.362,579.873Z" transform="translate(-978.756 -573.644)" fill="#96a3ab"/>
        <path id="Path_12425" data-name="Path 12425" d="M1067.16,576.842a2.931,2.931,0,0,1,2.2.869A3.153,3.153,0,0,1,1070.2,580v3.518a.184.184,0,0,1-.208.208h-1.28a.184.184,0,0,1-.209-.208V580.1a1.8,1.8,0,0,0-.473-1.3,1.636,1.636,0,0,0-1.238-.493,1.841,1.841,0,0,0-1.306.466,1.6,1.6,0,0,0-.5,1.23v3.518a.184.184,0,0,1-.209.208H1063.5a.184.184,0,0,1-.209-.208v-4.672q0-.515-.584-.515a3.572,3.572,0,0,0-.389.042c-.167.019-.25-.037-.25-.167v-.973a.236.236,0,0,1,.167-.251,2.433,2.433,0,0,1,.847-.139,1.6,1.6,0,0,1,1.585.876A3.457,3.457,0,0,1,1067.16,576.842Z" transform="translate(-997.429 -573.644)" fill="#96a3ab"/>
        <path id="Path_12426" data-name="Path 12426" d="M1095.49,568.73a1.059,1.059,0,0,1-.75-.285.927.927,0,0,1,0-1.377,1.123,1.123,0,0,1,1.495,0,.914.914,0,0,1,0,1.377A1.069,1.069,0,0,1,1095.49,568.73Zm-.639,8.134a.184.184,0,0,1-.209-.208V570.4a.185.185,0,0,1,.209-.209h1.279a.184.184,0,0,1,.209.209v6.257a.184.184,0,0,1-.209.208Z" transform="translate(-1019.502 -566.784)" fill="#96a3ab"/>
        <path id="Path_12427" data-name="Path 12427" d="M1112.54,576.981a.2.2,0,0,1,.152.251l-.167,1.043a.187.187,0,0,1-.25.167,4.526,4.526,0,0,0-.793-.07,1.98,1.98,0,0,0-1.453.556,1.96,1.96,0,0,0-.563,1.46v3.129a.184.184,0,0,1-.208.208h-1.279a.184.184,0,0,1-.208-.208v-4.672q0-.515-.584-.515a3.577,3.577,0,0,0-.39.042c-.167.019-.25-.037-.25-.167v-.973a.237.237,0,0,1,.167-.251,2.853,2.853,0,0,1,.847-.139,1.537,1.537,0,0,1,1.627,1,3,3,0,0,1,2.308-1A3.616,3.616,0,0,1,1112.54,576.981Z" transform="translate(-1027.765 -573.644)" fill="#96a3ab"/>
      </g>
      <g id="Group_4019" data-name="Group 4019">
        <path id="Path_12428" data-name="Path 12428" d="M935.748,532.375a.58.58,0,0,1-.5.7,9.133,9.133,0,0,1-2.086.25q-2.653,0-3.536-1.451a4.835,4.835,0,0,1-3.741,1.451,4.45,4.45,0,0,1-4.761-4.738v-6.325q0-.589.635-.59H925.3q.634,0,.635.59V527.5q0,1.768,1.473,1.768a1.439,1.439,0,0,0,1.145-.453,1.865,1.865,0,0,0,.4-1.27v-5.282q0-.589.612-.59h3.559q.635,0,.635.59v6.075a1.581,1.581,0,0,0,.136.782.569.569,0,0,0,.521.216,2.477,2.477,0,0,0,.386-.023q.612,0,.68.521Z" transform="translate(-900.071 -515.11)" fill="#96a3ab"/>
        <path id="Path_12429" data-name="Path 12429" d="M975.619,521.827H972.1q-.633,0-.633.587v9.978q0,.61.633.61h3.522a.548.548,0,0,0,.63-.61v-9.978C976.25,522.023,976.039,521.827,975.619,521.827Z" transform="translate(-934.405 -515.214)" fill="#96a3ab"/>
        <path id="Path_12430" data-name="Path 12430" d="M1007.611,519.775l-.27-2.527c-.043-.347-.27-.52-.677-.52a2.08,2.08,0,0,1-.339.023.65.65,0,0,1-.541-.2,1.218,1.218,0,0,1-.16-.723V503.808a.539.539,0,0,0-.61-.61h-3.52q-.633,0-.633.61v5.81a4.848,4.848,0,0,0-3.046-.924,5.685,5.685,0,0,0-4.245,1.657,6.646,6.646,0,0,0,0,8.7,5.656,5.656,0,0,0,4.245,1.67,4.615,4.615,0,0,0,3.769-1.446,3.714,3.714,0,0,0,3.363,1.446,9.369,9.369,0,0,0,2.166-.25A.6.6,0,0,0,1007.611,519.775Zm-6.78-4.9a2.53,2.53,0,0,1-2.349,2.344c-.057,0-.113.005-.17.005a2.528,2.528,0,1,1,0-5.056c.057,0,.113,0,.17.005a2.528,2.528,0,0,1,2.349,2.344,1.39,1.39,0,0,1,.008.177A1.416,1.416,0,0,1,1000.831,514.877Z" transform="translate(-948.376 -502.508)" fill="#96a3ab"/>
        <path id="Path_12431" data-name="Path 12431" d="M1102.025,520.63a4.111,4.111,0,0,0-1.263-.157,4.567,4.567,0,0,0-3.545,1.354,3.379,3.379,0,0,0-2.979-1.354,5.265,5.265,0,0,0-2.1.337.676.676,0,0,0-.5.677v2.506c0,.363.219.527.656.5h.224a.693.693,0,0,1,.576.193,1.289,1.289,0,0,1,.147.733v6.049q0,.61.633.61h3.522a.549.549,0,0,0,.631-.61v-4.4a2.044,2.044,0,0,1,.656-1.657,2.52,2.52,0,0,1,1.693-.553,4.718,4.718,0,0,1,1.15.134.5.5,0,0,0,.633-.5l.36-3.16A.577.577,0,0,0,1102.025,520.63Z" transform="translate(-1016.374 -514.288)" fill="#96a3ab"/>
        <path id="Path_12432" data-name="Path 12432" d="M1138.473,526.6a3.779,3.779,0,0,0-1.806-1.14,16.552,16.552,0,0,0-2.11-.463,14.6,14.6,0,0,1-1.8-.371c-.5-.144-.744-.35-.744-.622,0-.345.407-.52,1.22-.52a1.657,1.657,0,0,1,1.513.61.811.811,0,0,0,.677.363h2.913a.685.685,0,0,0,.484-.16.474.474,0,0,0,.123-.45,3.649,3.649,0,0,0-1.883-2.449,7.778,7.778,0,0,0-3.962-.913,7.052,7.052,0,0,0-4.019,1.037,3.187,3.187,0,0,0-1.533,2.756,3.355,3.355,0,0,0,.7,2.233,3.238,3.238,0,0,0,1.693,1.1,14.227,14.227,0,0,0,1.973.37,14.376,14.376,0,0,1,1.683.283c.466.113.7.3.7.576q0,.563-1.15.563a2.252,2.252,0,0,1-1.806-.563,1.114,1.114,0,0,0-.723-.407h-2.956a.677.677,0,0,0-.5.157.455.455,0,0,0-.09.453,3.631,3.631,0,0,0,1.94,2.54,8.337,8.337,0,0,0,4.153.937,8.556,8.556,0,0,0,4.493-.97,3.093,3.093,0,0,0,1.559-2.779A3.135,3.135,0,0,0,1138.473,526.6Z" transform="translate(-1040.527 -514.298)" fill="#96a3ab"/>
        <path id="Path_12433" data-name="Path 12433" d="M1180.035,522.12a7.408,7.408,0,0,0-9.3.01,5.746,5.746,0,0,0-1.726,4.356,5.634,5.634,0,0,0,1.817,4.369,6.867,6.867,0,0,0,4.819,1.66,7.031,7.031,0,0,0,3.7-.916,4.673,4.673,0,0,0,2.077-2.539.483.483,0,0,0-.057-.473.593.593,0,0,0-.484-.18h-3.16a1.407,1.407,0,0,0-.813.34,1.805,1.805,0,0,1-1.22.427,2.081,2.081,0,0,1-2.256-1.67h7.562c.45,0,.677-.2.677-.586v-.473A5.843,5.843,0,0,0,1180.035,522.12Zm-6.582,3.216a1.877,1.877,0,0,1,.689-1.23,2.112,2.112,0,0,1,1.367-.463,2.063,2.063,0,0,1,1.366.463,1.9,1.9,0,0,1,.664,1.23Z" transform="translate(-1069.142 -514.298)" fill="#96a3ab"/>
        <g id="Group_4018" data-name="Group 4018" transform="translate(59.629 6.173)">
          <path id="Path_12434" data-name="Path 12434" d="M1058.12,531.529l-.25-2.529c-.047-.345-.27-.52-.677-.52a2.877,2.877,0,0,1-.406.023.569.569,0,0,1-.52-.214,1.584,1.584,0,0,1-.136-.78v-6.049a.53.53,0,0,0-.607-.589h-3.342c-.422,0-.633.2-.633.589v.09a4.609,4.609,0,0,0-3.226-1.106,5.677,5.677,0,0,0-4.245,1.659,6.641,6.641,0,0,0,0,8.7,5.655,5.655,0,0,0,4.245,1.67,5.892,5.892,0,0,0,3.859-1.31,3.964,3.964,0,0,0,3.363,1.31,9.251,9.251,0,0,0,2.076-.247A.579.579,0,0,0,1058.12,531.529Zm-8.262-2.647c-.036.01-.072.02-.108.028a.863.863,0,0,1-.113.023c-.033.008-.069.013-.105.02s-.085.01-.128.013l-.121.008c-.033,0-.067,0-.1,0l-.142,0a2.145,2.145,0,0,1-.232-.023.015.015,0,0,0-.01,0,1.509,1.509,0,0,1-.245-.052l-.085-.023a2.516,2.516,0,0,1-.324-4.706,2.032,2.032,0,0,1,1.014-.247,2.168,2.168,0,0,1,1.05.242,2.515,2.515,0,0,1-.348,4.719Z" transform="translate(-1042.453 -520.445)" fill="#96a3ab"/>
        </g>
        <path id="Path_12435" data-name="Path 12435" d="M861.02,510.137c0,.064,0,.127,0,.188a3.747,3.747,0,0,0,3.6,3.555,1.185,1.185,0,0,0,.149.006,3.744,3.744,0,0,0,3.366-2.1.8.8,0,0,1,.717-.463h4a.789.789,0,0,1,.788.789v.1a8,8,0,0,1-3.036,5.173,9.974,9.974,0,0,1-6.219,1.863,9.5,9.5,0,0,1-6.874-2.505,9.675,9.675,0,0,1,0-13.207,9.5,9.5,0,0,1,6.874-2.505,9.974,9.974,0,0,1,6.219,1.863,8,8,0,0,1,3.036,5.173v.1a.789.789,0,0,1-.788.788h-4a.8.8,0,0,1-.717-.463,3.745,3.745,0,0,0-3.366-2.1,1.163,1.163,0,0,0-.149.006A3.743,3.743,0,0,0,861.02,510.137Z" transform="translate(-854.903 -501.028)" fill="#96a3ab"/>
        <ellipse id="Ellipse_236" data-name="Ellipse 236" cx="2.865" cy="2.865" rx="2.865" ry="2.865" transform="translate(36.587 0.001)" fill="#96a3ab"/>
      </g>
    </g>
  </g>
  <g id="Group_4022" data-name="Group 4022" transform="translate(0)">
    <path id="Rectangle_6013" data-name="Rectangle 6013" d="M14.716,0h7.358a7.358,7.358,0,0,1,7.358,7.358v0a7.358,7.358,0,0,1-7.358,7.358H0a0,0,0,0,1,0,0v0A14.716,14.716,0,0,1,14.716,0Z" transform="translate(10.406 33.88) rotate(-45)" fill="#67737a"/>
    <path id="Rectangle_6014" data-name="Rectangle 6014" d="M0,0H22.074a7.358,7.358,0,0,1,7.358,7.358v0a7.358,7.358,0,0,1-7.358,7.358H14.716A14.716,14.716,0,0,1,0,0V0A0,0,0,0,1,0,0Z" transform="translate(20.812 44.286) rotate(-135)" fill="#96a3ab"/>
    <ellipse id="Ellipse_237" data-name="Ellipse 237" cx="7.356" cy="7.356" rx="7.356" ry="7.356" transform="translate(13.456)" fill="#96a3ab"/>
  </g>
</svg>
