<svg xmlns="http://www.w3.org/2000/svg" width="191" height="87" viewBox="0 0 191 87">
  <g id="Group_3999" data-name="Group 3999" transform="translate(-761 -3865)">
    <rect id="Rectangle_6006" data-name="Rectangle 6006" width="191" height="87" transform="translate(761 3865)" fill="#fff" opacity="0"/>
    <g id="Group_3547" data-name="Group 3547" transform="translate(771 3887)">
      <g id="Group_3520" data-name="Group 3520" transform="translate(56.001 5.454)">
        <path id="Path_11615" data-name="Path 11615" d="M2197.9,935.584a6.088,6.088,0,0,1-3.5-.959,3.6,3.6,0,0,1-1.636-2.553c-.032-.215.066-.323.292-.323h1.915a.348.348,0,0,1,.34.258,1.849,1.849,0,0,0,.909,1.128,3.432,3.432,0,0,0,1.749.419,2.572,2.572,0,0,0,1.408-.338,1.043,1.043,0,0,0,.523-.919.991.991,0,0,0-.37-.8,2.363,2.363,0,0,0-.958-.452c-.391-.1-.826-.182-1.3-.256a11.407,11.407,0,0,1-1.434-.324,6.163,6.163,0,0,1-1.306-.539,2.5,2.5,0,0,1-.959-1,3.3,3.3,0,0,1-.37-1.619,3.047,3.047,0,0,1,1.248-2.528,5.172,5.172,0,0,1,3.263-.968,5.745,5.745,0,0,1,3.221.878,3.448,3.448,0,0,1,1.594,2.36c.054.2-.043.305-.289.305H2200.3a.368.368,0,0,1-.353-.242,1.615,1.615,0,0,0-.727-.966,2.562,2.562,0,0,0-1.368-.338,2.407,2.407,0,0,0-1.384.363,1.125,1.125,0,0,0-.533.974,1.1,1.1,0,0,0,.492.943,2.931,2.931,0,0,0,1.231.466q.742.12,1.6.322a12.872,12.872,0,0,1,1.594.483,2.647,2.647,0,0,1,1.233.975,2.96,2.96,0,0,1,.491,1.756,3.02,3.02,0,0,1-1.281,2.537A5.517,5.517,0,0,1,2197.9,935.584Z" transform="translate(-2192.752 -923.422)" fill="#67737a"/>
        <path id="Path_11616" data-name="Path 11616" d="M2207.605,935.247a4.5,4.5,0,0,1-3.206-1.143,3.929,3.929,0,0,1-1.225-3.013,4.016,4.016,0,0,1,1.185-3.028,4.271,4.271,0,0,1,3.1-1.143,4.169,4.169,0,0,1,3.07,1.128,4.015,4.015,0,0,1,1.135,2.979c0,.065,0,.159-.007.282s-.01.214-.01.267a.3.3,0,0,1-.337.273h-5.782a2.016,2.016,0,0,0,.765,1.143,2.232,2.232,0,0,0,1.362.42,1.688,1.688,0,0,0,1.32-.483.654.654,0,0,1,.386-.161h1.8a.314.314,0,0,1,.251.088.215.215,0,0,1,.007.234,3.227,3.227,0,0,1-1.434,1.579A4.717,4.717,0,0,1,2207.605,935.247Zm-2.1-4.832h3.85a1.73,1.73,0,0,0-.531-1.232,1.817,1.817,0,0,0-1.3-.475,2,2,0,0,0-1.346.475A1.938,1.938,0,0,0,2205.51,930.415Z" transform="translate(-2191.572 -923.069)" fill="#67737a"/>
        <path id="Path_11617" data-name="Path 11617" d="M2219,927.064a.291.291,0,0,1,.242.354l-.209,1.546a.27.27,0,0,1-.354.242,4.538,4.538,0,0,0-.886-.08,2.131,2.131,0,0,0-1.53.565,2,2,0,0,0-.6,1.53v3.464a.271.271,0,0,1-.306.306h-1.805a.271.271,0,0,1-.306-.306v-5.059a.555.555,0,0,0-.627-.628,3.316,3.316,0,0,0-.355.049q-.354,0-.354-.257v-1.322a.336.336,0,0,1,.242-.354,3.543,3.543,0,0,1,1.159-.194,1.934,1.934,0,0,1,1.95,1.1,3.378,3.378,0,0,1,2.624-1.1A3.608,3.608,0,0,1,2219,927.064Z" transform="translate(-2190.581 -923.069)" fill="#67737a"/>
        <path id="Path_11618" data-name="Path 11618" d="M2223.319,934.964a.34.34,0,0,1-.337-.226l-3.367-7.232c-.087-.236-.005-.355.241-.355h1.917a.358.358,0,0,1,.355.226l2.093,4.67,2.126-4.67a.339.339,0,0,1,.337-.226h1.9a.231.231,0,0,1,.242.355l-3.367,7.232a.344.344,0,0,1-.339.226Z" transform="translate(-2189.712 -923.043)" fill="#67737a"/>
        <path id="Path_11619" data-name="Path 11619" d="M2231.528,925.746a1.545,1.545,0,0,1-2.046,0,1.249,1.249,0,0,1-.41-.95,1.226,1.226,0,0,1,.41-.942,1.572,1.572,0,0,1,2.046,0,1.229,1.229,0,0,1,.409.942A1.252,1.252,0,0,1,2231.528,925.746Zm-1.926,9.634a.271.271,0,0,1-.307-.306v-7.2a.271.271,0,0,1,.307-.306h1.8a.272.272,0,0,1,.308.306v7.2a.272.272,0,0,1-.308.306Z" transform="translate(-2188.636 -923.459)" fill="#67737a"/>
        <path id="Path_11620" data-name="Path 11620" d="M2237.582,935.247a4.5,4.5,0,0,1-3.213-1.143,4.36,4.36,0,0,1,0-6.041,5.062,5.062,0,0,1,5.919-.354,3.288,3.288,0,0,1,1.352,2.127c.032.215-.058.322-.271.322h-1.724a.362.362,0,0,1-.34-.257,1.473,1.473,0,0,0-.637-.749,2.037,2.037,0,0,0-1.086-.282,2.014,2.014,0,0,0-1.531.611,2.246,2.246,0,0,0-.579,1.611,2.218,2.218,0,0,0,.579,1.6,2.025,2.025,0,0,0,1.531.6,2.133,2.133,0,0,0,1.1-.274,1.358,1.358,0,0,0,.627-.758.386.386,0,0,1,.34-.257h1.724c.214,0,.3.107.271.322a3.286,3.286,0,0,1-1.352,2.127A4.514,4.514,0,0,1,2237.582,935.247Z" transform="translate(-2188.174 -923.069)" fill="#67737a"/>
        <path id="Path_11621" data-name="Path 11621" d="M2244.723,925.746a1.543,1.543,0,0,1-2.045,0,1.249,1.249,0,0,1-.411-.95,1.226,1.226,0,0,1,.411-.942,1.57,1.57,0,0,1,2.045,0,1.225,1.225,0,0,1,.411.942A1.248,1.248,0,0,1,2244.723,925.746Zm-1.925,9.634a.271.271,0,0,1-.306-.306v-7.2a.271.271,0,0,1,.306-.306h1.8a.272.272,0,0,1,.306.306v7.2a.271.271,0,0,1-.306.306Z" transform="translate(-2187.14 -923.459)" fill="#67737a"/>
        <path id="Path_11622" data-name="Path 11622" d="M2253.989,934.1a5.086,5.086,0,0,1-6.426,0,4.36,4.36,0,0,1,0-6.041,5.086,5.086,0,0,1,6.426,0,4.357,4.357,0,0,1,0,6.041Zm-4.751-1.442a2.306,2.306,0,0,0,3.076,0,2.12,2.12,0,0,0,.587-1.571,2.144,2.144,0,0,0-.587-1.578,2.28,2.28,0,0,0-3.076,0,2.144,2.144,0,0,0-.589,1.578A2.119,2.119,0,0,0,2249.238,932.662Z" transform="translate(-2186.678 -923.069)" fill="#67737a"/>
        <path id="Path_11623" data-name="Path 11623" d="M2259.529,935.247a5.11,5.11,0,0,1-2.756-.668,2.567,2.567,0,0,1-1.24-1.86c-.032-.215.071-.322.307-.322l1.577.014a.417.417,0,0,1,.354.227q.341.868,1.757.87a2.039,2.039,0,0,0,.958-.194.578.578,0,0,0,.362-.516q0-.419-.515-.6a5.8,5.8,0,0,0-1.256-.274,13.161,13.161,0,0,1-1.482-.266,2.5,2.5,0,0,1-1.258-.726,2.076,2.076,0,0,1-.515-1.482,2.146,2.146,0,0,1,.983-1.836,4.413,4.413,0,0,1,2.594-.693,4.725,4.725,0,0,1,2.538.637,2.364,2.364,0,0,1,1.185,1.682c.03.215-.065.323-.292.323h-1.593a.352.352,0,0,1-.321-.194,1.157,1.157,0,0,0-.557-.571,2.194,2.194,0,0,0-1.836-.033.553.553,0,0,0-.347.492.693.693,0,0,0,.524.645,5.555,5.555,0,0,0,1.272.314q.748.105,1.49.282a2.517,2.517,0,0,1,1.266.725,2.034,2.034,0,0,1,.523,1.466,2.164,2.164,0,0,1-1,1.868A4.712,4.712,0,0,1,2259.529,935.247Z" transform="translate(-2185.637 -923.069)" fill="#67737a"/>
        <path id="Path_11624" data-name="Path 11624" d="M2277.572,935.107a.267.267,0,0,1-.242.338,4.384,4.384,0,0,1-1.24.194,2.075,2.075,0,0,1-2.03-1.015,3.723,3.723,0,0,1-2.676,1.015,4.177,4.177,0,0,1-3.052-1.16,4.4,4.4,0,0,1,0-6.008,4.182,4.182,0,0,1,3.052-1.16,3.7,3.7,0,0,1,2.24.693v-4.236a.27.27,0,0,1,.306-.306h1.82a.27.27,0,0,1,.307.306v9.182c0,.408.176.613.531.613a2.1,2.1,0,0,0,.483-.048c.226-.022.343.063.354.257Zm-5.975-1.352a1.865,1.865,0,0,0,1.464-.637,2.374,2.374,0,0,0,.564-1.636,2.4,2.4,0,0,0-.564-1.651,1.868,1.868,0,0,0-1.464-.636,1.939,1.939,0,0,0-1.5.636,2.364,2.364,0,0,0-.579,1.651,2.339,2.339,0,0,0,.579,1.636A1.936,1.936,0,0,0,2271.6,933.755Z" transform="translate(-2184.32 -923.461)" fill="#67737a"/>
        <path id="Path_11625" data-name="Path 11625" d="M2281.968,935.247a4.506,4.506,0,0,1-3.206-1.143,3.928,3.928,0,0,1-1.225-3.013,4.015,4.015,0,0,1,1.185-3.028,4.273,4.273,0,0,1,3.1-1.143,4.168,4.168,0,0,1,3.07,1.128,4.016,4.016,0,0,1,1.135,2.979c0,.065,0,.159-.008.282s-.01.214-.01.267a.3.3,0,0,1-.337.273h-5.783a2.011,2.011,0,0,0,.766,1.143,2.228,2.228,0,0,0,1.361.42,1.691,1.691,0,0,0,1.322-.483.646.646,0,0,1,.385-.161h1.8a.314.314,0,0,1,.251.088.217.217,0,0,1,.008.234,3.239,3.239,0,0,1-1.434,1.579A4.727,4.727,0,0,1,2281.968,935.247Zm-2.1-4.832h3.85a1.73,1.73,0,0,0-.531-1.232,1.818,1.818,0,0,0-1.3-.475,2,2,0,0,0-1.346.475A1.942,1.942,0,0,0,2279.873,930.415Z" transform="translate(-2183.142 -923.069)" fill="#67737a"/>
      </g>
      <g id="Group_3521" data-name="Group 3521" transform="translate(56.001 22.528)">
        <path id="Path_11626" data-name="Path 11626" d="M2197.9,950.919a6.089,6.089,0,0,1-3.5-.959,3.6,3.6,0,0,1-1.636-2.553c-.032-.215.066-.322.292-.322h1.915a.346.346,0,0,1,.34.257,1.849,1.849,0,0,0,.909,1.128,3.432,3.432,0,0,0,1.749.419,2.564,2.564,0,0,0,1.408-.338,1.043,1.043,0,0,0,.523-.919.994.994,0,0,0-.37-.805,2.377,2.377,0,0,0-.958-.451c-.391-.1-.826-.183-1.3-.257a11.564,11.564,0,0,1-1.434-.323,6.226,6.226,0,0,1-1.306-.54,2.5,2.5,0,0,1-.959-1,3.3,3.3,0,0,1-.37-1.62,3.05,3.05,0,0,1,1.248-2.528,5.179,5.179,0,0,1,3.263-.968,5.744,5.744,0,0,1,3.221.878,3.447,3.447,0,0,1,1.594,2.36c.054.2-.043.3-.289.3H2200.3a.369.369,0,0,1-.353-.24,1.607,1.607,0,0,0-.727-.966,2.553,2.553,0,0,0-1.368-.339,2.407,2.407,0,0,0-1.384.362,1.125,1.125,0,0,0-.533.975,1.1,1.1,0,0,0,.492.942,2.92,2.92,0,0,0,1.231.466q.742.122,1.6.323a12.537,12.537,0,0,1,1.594.483,2.639,2.639,0,0,1,1.233.974,2.965,2.965,0,0,1,.491,1.757,3.017,3.017,0,0,1-1.281,2.536A5.517,5.517,0,0,1,2197.9,950.919Z" transform="translate(-2192.752 -938.757)" fill="#67737a"/>
        <path id="Path_11627" data-name="Path 11627" d="M2213.6,950.051a.284.284,0,0,1-.257.338,4.314,4.314,0,0,1-1.207.194,2.117,2.117,0,0,1-2.031-.983,3.984,3.984,0,0,1-2.707.983,4.181,4.181,0,0,1-3.053-1.16,4.409,4.409,0,0,1,0-6.009,4.185,4.185,0,0,1,3.053-1.16,3.6,3.6,0,0,1,2.287.741v-.178a.271.271,0,0,1,.306-.305h1.773a.27.27,0,0,1,.305.305v5.059q0,.628.532.628a2.336,2.336,0,0,0,.5-.048c.214-.022.325.065.338.257Zm-5.991-1.353a1.863,1.863,0,0,0,1.465-.637,2.372,2.372,0,0,0,.563-1.635,2.4,2.4,0,0,0-.563-1.65,1.867,1.867,0,0,0-1.465-.637,1.939,1.939,0,0,0-1.5.637,2.36,2.36,0,0,0-.579,1.65,2.336,2.336,0,0,0,.579,1.635A1.935,1.935,0,0,0,2207.607,948.7Z" transform="translate(-2191.573 -938.404)" fill="#67737a"/>
        <path id="Path_11628" data-name="Path 11628" d="M2216.389,950.975a2.868,2.868,0,0,1-1.8-.517,1.677,1.677,0,0,1-.668-1.4V939.1a.271.271,0,0,1,.307-.306h1.8a.272.272,0,0,1,.307.306v9.183q0,.611.545.611a2.233,2.233,0,0,0,.484-.048c.214-.022.328.064.339.257l.161,1.337a.285.285,0,0,1-.259.338A4.247,4.247,0,0,1,2216.389,950.975Z" transform="translate(-2190.353 -938.796)" fill="#67737a"/>
        <path id="Path_11629" data-name="Path 11629" d="M2228.555,950.025a.293.293,0,0,1-.242.338,4.488,4.488,0,0,1-1.223.194,2.358,2.358,0,0,1-2.159-.935,3.881,3.881,0,0,1-2.738.935,3.371,3.371,0,0,1-2.521-.975,3.522,3.522,0,0,1-.958-2.585v-4.205a.27.27,0,0,1,.3-.3h1.8a.271.271,0,0,1,.307.3v3.883a1.881,1.881,0,0,0,.458,1.32,1.6,1.6,0,0,0,1.233.5,1.76,1.76,0,0,0,1.289-.477,1.691,1.691,0,0,0,.482-1.264v-3.964a.271.271,0,0,1,.307-.3h1.819a.271.271,0,0,1,.308.3v5.059c0,.419.178.628.531.628a2.324,2.324,0,0,0,.5-.048.285.285,0,0,1,.355.257Z" transform="translate(-2189.81 -938.378)" fill="#67737a"/>
        <path id="Path_11630" data-name="Path 11630" d="M2239,950.443a.267.267,0,0,1-.241.338,4.427,4.427,0,0,1-1.24.194,2.076,2.076,0,0,1-2.031-1.015,3.719,3.719,0,0,1-2.674,1.015,4.18,4.18,0,0,1-3.053-1.16,4.408,4.408,0,0,1,0-6.009,4.184,4.184,0,0,1,3.053-1.16,3.7,3.7,0,0,1,2.239.694V939.1a.271.271,0,0,1,.307-.306h1.819a.271.271,0,0,1,.306.306v9.183q0,.611.531.611a2.087,2.087,0,0,0,.483-.048c.226-.022.344.064.355.257Zm-5.976-1.353a1.864,1.864,0,0,0,1.465-.637,2.372,2.372,0,0,0,.563-1.635,2.4,2.4,0,0,0-.563-1.65,1.868,1.868,0,0,0-1.465-.637,1.933,1.933,0,0,0-1.5.637,2.357,2.357,0,0,0-.579,1.65,2.333,2.333,0,0,0,.579,1.635A1.929,1.929,0,0,0,2233.027,949.09Z" transform="translate(-2188.691 -938.796)" fill="#67737a"/>
        <path id="Path_11631" data-name="Path 11631" d="M2246.614,950.909a4.722,4.722,0,0,1-3.077-.983,3.786,3.786,0,0,1-1.384-2.659c-.032-.214.069-.322.3-.322h1.9a.287.287,0,0,1,.3.274,1.7,1.7,0,0,0,.694,1.1,2.281,2.281,0,0,0,1.385.411,1.874,1.874,0,0,0,1.474-.628,2.416,2.416,0,0,0,.556-1.659v-4.93h-4.719a.271.271,0,0,1-.307-.3v-1.531a.272.272,0,0,1,.307-.306h6.974a.272.272,0,0,1,.307.306v6.734a4.369,4.369,0,0,1-1.234,3.318A4.851,4.851,0,0,1,2246.614,950.909Z" transform="translate(-2187.154 -938.73)" fill="#67737a"/>
        <path id="Path_11632" data-name="Path 11632" d="M2262.573,950.051a.283.283,0,0,1-.257.338,4.324,4.324,0,0,1-1.208.194,2.116,2.116,0,0,1-2.03-.983,3.986,3.986,0,0,1-2.708.983,4.178,4.178,0,0,1-3.052-1.16,4.406,4.406,0,0,1,0-6.009,4.182,4.182,0,0,1,3.052-1.16,3.6,3.6,0,0,1,2.287.741v-.178a.272.272,0,0,1,.308-.305h1.771a.271.271,0,0,1,.308.305v5.059c0,.419.175.628.53.628a2.321,2.321,0,0,0,.5-.048c.215-.022.327.065.338.257Zm-5.991-1.353a1.861,1.861,0,0,0,1.464-.637,2.368,2.368,0,0,0,.563-1.635,2.393,2.393,0,0,0-.563-1.65,1.865,1.865,0,0,0-1.464-.637,1.937,1.937,0,0,0-1.5.637,2.36,2.36,0,0,0-.579,1.65,2.336,2.336,0,0,0,.579,1.635A1.933,1.933,0,0,0,2256.583,948.7Z" transform="translate(-2186.021 -938.404)" fill="#67737a"/>
        <path id="Path_11633" data-name="Path 11633" d="M2265.364,950.975a2.862,2.862,0,0,1-1.8-.517,1.675,1.675,0,0,1-.669-1.4V939.1a.271.271,0,0,1,.306-.306h1.8a.272.272,0,0,1,.306.306v9.183q0,.611.547.611a2.243,2.243,0,0,0,.483-.048c.214-.022.327.064.339.257l.16,1.337a.285.285,0,0,1-.259.338A4.258,4.258,0,0,1,2265.364,950.975Z" transform="translate(-2184.801 -938.796)" fill="#67737a"/>
        <path id="Path_11634" data-name="Path 11634" d="M2270.145,941.082a1.544,1.544,0,0,1-2.045,0,1.255,1.255,0,0,1-.411-.951,1.229,1.229,0,0,1,.411-.942,1.57,1.57,0,0,1,2.045,0,1.225,1.225,0,0,1,.411.942A1.251,1.251,0,0,1,2270.145,941.082Zm-1.925,9.633a.27.27,0,0,1-.306-.306v-7.2a.27.27,0,0,1,.306-.3h1.805a.271.271,0,0,1,.306.3v7.2a.271.271,0,0,1-.306.306Z" transform="translate(-2184.259 -938.794)" fill="#67737a"/>
        <path id="Path_11635" data-name="Path 11635" d="M2275.677,950.583a5.111,5.111,0,0,1-2.756-.669,2.569,2.569,0,0,1-1.24-1.86c-.033-.215.071-.322.307-.322l1.578.016a.418.418,0,0,1,.354.226q.339.87,1.757.869a2.039,2.039,0,0,0,.958-.194.577.577,0,0,0,.362-.514q0-.421-.515-.6a5.772,5.772,0,0,0-1.256-.274,12.947,12.947,0,0,1-1.482-.266,2.489,2.489,0,0,1-1.258-.725,2.078,2.078,0,0,1-.515-1.483,2.142,2.142,0,0,1,.983-1.835,4.415,4.415,0,0,1,2.594-.694,4.719,4.719,0,0,1,2.536.637,2.364,2.364,0,0,1,1.186,1.683c.03.215-.066.322-.291.322h-1.594a.353.353,0,0,1-.322-.194,1.151,1.151,0,0,0-.557-.571,2.2,2.2,0,0,0-1.836-.032.552.552,0,0,0-.347.491.693.693,0,0,0,.523.645,5.452,5.452,0,0,0,1.272.314q.749.105,1.49.283a2.511,2.511,0,0,1,1.266.724,2.038,2.038,0,0,1,.523,1.466,2.164,2.164,0,0,1-1,1.868A4.711,4.711,0,0,1,2275.677,950.583Z" transform="translate(-2183.807 -938.404)" fill="#67737a"/>
        <path id="Path_11636" data-name="Path 11636" d="M2284.4,950.583a4.5,4.5,0,0,1-3.213-1.145,4.36,4.36,0,0,1,0-6.041,5.062,5.062,0,0,1,5.921-.353,3.287,3.287,0,0,1,1.352,2.126c.032.215-.058.323-.272.323h-1.723a.365.365,0,0,1-.34-.258,1.469,1.469,0,0,0-.636-.748,2.033,2.033,0,0,0-1.088-.283,2.011,2.011,0,0,0-1.53.612,2.243,2.243,0,0,0-.579,1.61,2.213,2.213,0,0,0,.579,1.6,2.026,2.026,0,0,0,1.53.6,2.132,2.132,0,0,0,1.1-.274,1.355,1.355,0,0,0,.627-.757.388.388,0,0,1,.34-.258h1.723c.215,0,.3.108.272.322a3.286,3.286,0,0,1-1.352,2.126A4.508,4.508,0,0,1,2284.4,950.583Z" transform="translate(-2182.866 -938.404)" fill="#67737a"/>
        <path id="Path_11637" data-name="Path 11637" d="M2296.569,949.438a5.082,5.082,0,0,1-6.426,0,4.359,4.359,0,0,1,0-6.041,5.086,5.086,0,0,1,6.426,0,4.357,4.357,0,0,1,0,6.041ZM2291.818,948a2.306,2.306,0,0,0,3.076,0,2.121,2.121,0,0,0,.586-1.571,2.147,2.147,0,0,0-.586-1.578,2.284,2.284,0,0,0-3.076,0,2.147,2.147,0,0,0-.588,1.578A2.12,2.12,0,0,0,2291.818,948Z" transform="translate(-2181.851 -938.404)" fill="#67737a"/>
      </g>
      <path id="Path_11638" data-name="Path 11638" d="M2146.038,940.078a7.17,7.17,0,0,1,7.172-7.172,3.589,3.589,0,0,0,3.589-3.587h0a7.17,7.17,0,1,1,14.339,0h0v10.759a7.171,7.171,0,0,1-7.17,7.172v0h-3.584v3.587h3.584a10.758,10.758,0,0,0,10.757-10.756V929.318a10.758,10.758,0,0,0-21.515,0,10.76,10.76,0,0,0-3.585,20.9v-3.938a7.156,7.156,0,0,1-3.587-6.207" transform="translate(-2142.453 -918.562)" fill="#67737a"/>
      <path id="Path_11639" data-name="Path 11639" d="M2177.218,928.822v3.935a7.17,7.17,0,0,1-3.587,13.379v0a3.591,3.591,0,0,0-3.589,3.592,7.169,7.169,0,0,1-14.339.017h0V938.982a7.171,7.171,0,0,1,7.169-7.174v0h3.587v-3.586H2162.8a10.756,10.756,0,0,0-10.685,10.758h0V949.74a10.758,10.758,0,0,0,21.515-.017,10.759,10.759,0,0,0,3.587-20.9" transform="translate(-2141.358 -917.467)" fill="#67737a"/>
    </g>
  </g>
</svg>
