<svg xmlns="http://www.w3.org/2000/svg" width="191" height="87" viewBox="0 0 191 87">
  <g id="Group_4000" data-name="Group 4000" transform="translate(-968 -3865)">
    <rect id="Rectangle_6007" data-name="Rectangle 6007" width="191" height="87" transform="translate(968 3865)" fill="#fff" opacity="0"/>
    <g id="Group_3546" data-name="Group 3546" transform="translate(1022 3867)">
      <path id="Path_559" data-name="Path 559" d="M2900.511,2136.689a31.749,31.749,0,0,1,24.362,7.559c6.636,5.762,12.159,14.6,11.132,27.933-1,13.029-10.187,22.523-20.16,26.458-11.56,4.565-25.938,2-34.867-6.933a33.025,33.025,0,0,1-7.139-34.856,31.22,31.22,0,0,1,9.869-13.447,30.2,30.2,0,0,1,16.8-6.714m-19.324,15.12c-3.979,5.33-7.142,15.719-4.409,24.994,3.06,10.38,12.91,19.1,24.57,19.95,16.329,1.185,29.185-10.437,30.454-24.994a29.278,29.278,0,0,0-5.251-19.744,28.583,28.583,0,0,0-45.364-.206" transform="translate(-2862.648 -2126.069)" fill="#67737a" fill-rule="evenodd"/>
      <path id="Path_560" data-name="Path 560" d="M2902.313,2141.408a27.194,27.194,0,0,1,19.113,6.715,26.912,26.912,0,0,1,8.82,22.055c-1.609,23.977-31.458,32.491-46.412,16.8a26.563,26.563,0,0,1-7.563-18.485,27.636,27.636,0,0,1,7.563-18.9,26.239,26.239,0,0,1,18.48-8.191m-16.8,9.87c3.92,2.029,7.644,4.255,11.343,6.51v6.932c-2.017.921-3.645,2.231-5.671,3.146-3.873-2.083-7.94-5.078-11.763-6.509-1,4.049-1.268,10.124.212,13.861,5.814-3.007,11.657-7.1,17.223-9.657v13.228c-3.784,2.239-7.818,4.228-11.343,6.718a25.071,25.071,0,0,0,11.97,6.723c-.138-15.958.285-32.483-.207-48.092-4.741,1.556-9.01,3.592-11.763,7.139m23.731,40.952a24.246,24.246,0,0,0,11.971-6.93c-3.753-2.267-7.794-4.249-11.34-6.722a44.447,44.447,0,0,0-.209-6.3c1.682-1.609,4.111-2.466,6.091-3.784,3.6,2.419,7.665,4.375,11.334,6.723,1.11-4.083,1.485-10.1-.206-13.861-5.691,3.343-11.333,6.735-17.22,9.872a87.876,87.876,0,0,0,0-13.441c3.891-2.2,7.8-4.387,11.548-6.719a26.771,26.771,0,0,0-11.971-6.93Zm-8.612-42.216a5.188,5.188,0,0,0,3.572-1.677c-.837-1.9-4.278-1-3.572,1.677m4.2-.416c-1.126-.114-4.887,1.544-5.881,2.938-1.352,1.895-1.306,5.011,1.467,6.088.162-1.491-.258-2.4-.208-3.779,1.481-2.736,5.068-.606,7.984-.632,0-1.819-1.653-4.446-3.362-4.616m-3.571,14.7c.8-.815,1.919-1.3,2.523-2.307.09-2.641.157-5.3.417-7.776-1.395-.107-2.179-.215-3.151.423a60.694,60.694,0,0,0,.211,9.66m3.151-2.1c-2.905,2.072-8.925,7.386-3.363,10.5.139-1.785-.865-2.586-.631-3.99.456-2.718,5.647-3.663,5.884-6.718a3.173,3.173,0,0,0-1.89-3.365Zm-3.151,6.511c-.735,2.956.989,8.4.632,11.551,2.105-2.865,1.387-9.672,1.468-13.863-.418.975-1.764.961-2.1,2.312m0,16.8c-.376-5.073,6.02-7.508,2.523-12.39,1.69,5.829-3.629,7.938-2.523,12.39m1.259,5.046c-.122-3.14.544-6.6.211-9.242-1.44,1.892-.866,6.892-.211,9.242" transform="translate(-2862.14 -2125.538)" fill="#67737a" fill-rule="evenodd"/>
      <path id="Path_561" data-name="Path 561" d="M2903.658,2150.967c-.786.087-1.232-.164-1.261-.835a.806.806,0,0,1,1.261.835" transform="translate(-2859.286 -2124.6)" fill="#67737a" fill-rule="evenodd"/>
      <path id="Path_562" data-name="Path 562" d="M2871.711,2183.079c.679-.369.672-1.015.33-1.632-.37-.679-.842-.747-1.177-.566a.608.608,0,0,0-.343.662c.053.376.192.821.361,1.515a1.286,1.286,0,0,1-.584,1.59,1.623,1.623,0,0,1-2.177-.9,1.694,1.694,0,0,1,.477-2.461l.424.769a.93.93,0,0,0-.254,1.38c.194.354.571.734,1.017.49a.672.672,0,0,0,.275-.84c-.014-.075-.293-1.185-.356-1.45a1.336,1.336,0,0,1,.653-1.479c.988-.538,1.861.12,2.342,1a1.824,1.824,0,0,1-.562,2.7Z" transform="translate(-2863.064 -2121.324)" fill="#67737a"/>
      <path id="Path_563" data-name="Path 563" d="M2866.979,2181.138l-.359-.8,4.591-2.042.36.8Z" transform="translate(-2863.193 -2121.507)" fill="#67737a"/>
      <path id="Path_564" data-name="Path 564" d="M2869.2,2177.906c.732-.254.832-.89.6-1.558-.251-.729-.708-.876-1.062-.751a.6.6,0,0,0-.452.6c-.013.376.049.834.1,1.55a1.275,1.275,0,0,1-.842,1.468,1.625,1.625,0,0,1-2-1.248,1.7,1.7,0,0,1,.882-2.351l.292.835c-.6.245-.68.741-.484,1.307.134.391.442.828.925.659a.674.674,0,0,0,.41-.775c-.006-.083-.094-1.227-.107-1.5a1.325,1.325,0,0,1,.888-1.343c1.062-.372,1.819.428,2.142,1.371a1.829,1.829,0,0,1-1.006,2.57Z" transform="translate(-2863.327 -2121.899)" fill="#67737a"/>
      <path id="Path_565" data-name="Path 565" d="M2864.963,2175.7l-.886-3.969.739-.161.35,1.556,4.16-.929.2.859-4.162.929.344,1.548Z" transform="translate(-2863.471 -2122.242)" fill="#67737a"/>
      <path id="Path_566" data-name="Path 566" d="M2864,2171.307l-.386-3.6.756-.083.291,2.724,1.308-.138-.271-2.518.71-.079.273,2.518,1.464-.16-.3-2.77.754-.078.39,3.646Z" transform="translate(-2863.522 -2122.727)" fill="#67737a"/>
      <path id="Path_567" data-name="Path 567" d="M2863.531,2167.061l.04-1.235,3.968-1.26v-.014l-3.886-1.473.04-1.225,5.018.155-.024.834-3.873-.12v.019l3.829,1.509-.021.723-3.916,1.28v0l3.873.125-.028.833Z" transform="translate(-2863.531 -2123.303)" fill="#67737a"/>
      <path id="Path_568" data-name="Path 568" d="M2864.072,2159.5l.161-.917,5.283-1.041-.162.928-1.387.237-.354,1.973,1.231.7-.155.894Zm2.927.829.263-1.515-2.255.375-.008.018Z" transform="translate(-2863.472 -2123.773)" fill="#67737a"/>
      <path id="Path_569" data-name="Path 569" d="M2865.232,2154.567l.716-1.955c.53-1.454,1.822-1.689,3.12-1.211s2.13,1.492,1.6,2.947l-.719,1.953Zm4.342.658.3-.813c.473-1.286-.165-1.845-1.106-2.19s-1.788-.34-2.265.959l-.294.811Z" transform="translate(-2863.344 -2124.469)" fill="#67737a"/>
      <path id="Path_570" data-name="Path 570" d="M2867.015,2149.969l1.66-3.211.675.35-1.252,2.433,1.168.6,1.16-2.248.638.327-1.162,2.249,1.306.672,1.277-2.471.673.347-1.675,3.253Z" transform="translate(-2863.15 -2124.952)" fill="#67737a"/>
      <path id="Path_571" data-name="Path 571" d="M2870.787,2143.41l.559-.746,5.178,1.471-.564.75-1.343-.421-1.206,1.6.78,1.175-.543.726Zm2.233,2.063.919-1.226-2.175-.695-.015.016Z" transform="translate(-2862.739 -2125.399)" fill="#67737a"/>
      <path id="Path_572" data-name="Path 572" d="M2872.134,2141.834l2.749-3,.563.512-1.08,1.181,3.142,2.875-.592.648-3.14-2.876-1.079,1.17Z" transform="translate(-2862.591 -2125.816)" fill="#67737a"/>
      <path id="Path_573" data-name="Path 573" d="M2875.209,2138.508l2.724-2.372.5.564-2.062,1.806.865.99,1.911-1.666.466.542-1.9,1.663.967,1.111,2.1-1.834.5.574-2.76,2.409Z" transform="translate(-2862.256 -2126.111)" fill="#67737a"/>
      <path id="Path_574" data-name="Path 574" d="M2878.49,2135.714l.767-.518,3.975,1.78.013-.007-2.071-3.067.692-.469,2.812,4.166-.767.521-3.963-1.782-.019.012,2.068,3.057-.693.475Z" transform="translate(-2861.897 -2126.407)" fill="#67737a"/>
      <path id="Path_575" data-name="Path 575" d="M2886.355,2132.826a1.2,1.2,0,0,0-1.563-.334,1.653,1.653,0,0,0-.516,2.392c.43.86,1.26,1.511,2.222,1.035a1.3,1.3,0,0,0,.561-1.751l.765-.382a2.056,2.056,0,0,1-1.01,2.775,2.642,2.642,0,0,1-2.341-4.714,1.96,1.96,0,0,1,2.67.585Z" transform="translate(-2861.387 -2126.61)" fill="#67737a"/>
      <path id="Path_576" data-name="Path 576" d="M2887.008,2130.777l.821-.32,1.817,4.686-.818.321Z" transform="translate(-2860.967 -2126.732)" fill="#67737a"/>
      <path id="Path_577" data-name="Path 577" d="M2893.9,2131.407a2.415,2.415,0,1,1-3.026-1.875,2.424,2.424,0,0,1,3.026,1.875m-3.783,1.068c.261.932.953,1.723,1.99,1.427s1.21-1.328.949-2.254-.949-1.72-1.989-1.429-1.212,1.329-.95,2.255m.51-4.207.915-.257-.69,1.24-.562.155Z" transform="translate(-2860.734 -2126.999)" fill="#67737a"/>
      <path id="Path_578" data-name="Path 578" d="M2909.179,2127.1l1.153.223-1.455.987-.711-.142Z" transform="translate(-2858.655 -2127.099)" fill="#67737a"/>
      <path id="Path_579" data-name="Path 579" d="M2893.875,2128.751l.919-.129,2.782,3.351h.014l-.51-3.666.83-.115.688,4.975-.92.128-2.771-3.347-.019.007.5,3.663-.826.115Z" transform="translate(-2860.216 -2126.98)" fill="#67737a"/>
      <path id="Path_580" data-name="Path 580" d="M2900.7,2128.008l1.553.091.969,3.522h.01l1.317-3.378,1.55.086-.3,5.012-1.03-.062.213-3.55-.016,0-1.44,3.482-.851-.053-1.021-3.591h-.012l-.207,3.521-1.036-.06Z" transform="translate(-2859.505 -2126.999)" fill="#67737a"/>
      <path id="Path_581" data-name="Path 581" d="M2906.9,2128.522l3.678.755-.184.906-2.6-.533-.212,1.057,2.381.486-.169.845-2.388-.489-.247,1.206,2.654.542-.186.9-3.734-.763Z" transform="translate(-2858.905 -2126.943)" fill="#67737a"/>
      <path id="Path_582" data-name="Path 582" d="M2911.316,2129.47l2.049.708a2.2,2.2,0,0,1,1.354,3.088c-.475,1.378-1.531,2.164-2.98,1.663l-2.052-.7Zm-.283,4.236.935.322c.6.2,1.312.03,1.673-1.02.327-.956.207-1.683-.836-2.039l-.744-.259Z" transform="translate(-2858.489 -2126.84)" fill="#67737a"/>
      <path id="Path_583" data-name="Path 583" d="M2915.99,2131.186l1.006.459-2.076,4.578-1-.46Z" transform="translate(-2858.027 -2126.652)" fill="#67737a"/>
      <path id="Path_584" data-name="Path 584" d="M2919.961,2135.113a1.1,1.1,0,0,0-.517-1.313c-.86-.491-1.609.06-2.042.82a1.451,1.451,0,0,0,.348,2.137,1.132,1.132,0,0,0,1.549-.411l.928.531a2.121,2.121,0,0,1-2.938.685,2.638,2.638,0,0,1,2.615-4.57,2.044,2.044,0,0,1,.981,2.65Z" transform="translate(-2857.797 -2126.494)" fill="#67737a"/>
      <path id="Path_585" data-name="Path 585" d="M2923.487,2135.388l.9.685-1.545,5.137-.91-.7.374-1.121-1.5-1.139-.991.652-.891-.673Zm-1.952,2.386,1.04.792.612-1.852-.013-.01Z" transform="translate(-2857.48 -2126.193)" fill="#67737a"/>
      <path id="Path_586" data-name="Path 586" d="M2927.461,2138.8l1.46,1.595a2.2,2.2,0,0,1-.294,3.364,2.233,2.233,0,0,1-3.411.029l-1.466-1.6Zm-2.276,3.578.661.725c.435.474,1.136.656,1.959-.087.746-.688.99-1.386.247-2.2l-.531-.582Z" transform="translate(-2856.954 -2125.821)" fill="#67737a"/>
      <path id="Path_587" data-name="Path 587" d="M2930.834,2142.591l2.166,3.07-.76.536-1.527-2.168-.879.622,1.4,1.991-.7.493-1.4-1.99-1,.708,1.56,2.217-.758.534-2.2-3.122Z" transform="translate(-2856.629 -2125.406)" fill="#67737a"/>
      <path id="Path_588" data-name="Path 588" d="M2933.23,2153.062a2.147,2.147,0,0,1-1.816-3.884l2.831-1.323.465,1-2.828,1.32a.924.924,0,0,0-.548,1.4c.331.714.755.8,1.426.484l2.83-1.328.468,1Z" transform="translate(-2856.249 -2124.832)" fill="#67737a"/>
      <path id="Path_589" data-name="Path 589" d="M2936.395,2152.514l.8,2.58a1.38,1.38,0,0,1-.884,1.816,1.245,1.245,0,0,1-1.44-.379l-.01,0c.026.554-.434.864-.907,1.044a2.775,2.775,0,0,0-1.072.556l-.327-1.057a5.3,5.3,0,0,1,1.1-.521.736.736,0,0,0,.479-1.027l-.333-1.057-1.874.583L2931.6,2154Zm-1.842,1.727.358,1.153a.645.645,0,0,0,.91.511c.465-.144.585-.457.44-.929l-.357-1.155Z" transform="translate(-2856.096 -2124.323)" fill="#67737a"/>
      <path id="Path_590" data-name="Path 590" d="M2933.99,2161.568a1.7,1.7,0,0,1-.9-1.246,2.637,2.637,0,0,1,5.192-.864,2.019,2.019,0,0,1-1.4,2.381l-.173-1.046a1.017,1.017,0,0,0,.656-1.185c-.158-.976-1.054-1.206-1.922-1.062-.822.139-1.6.644-1.435,1.623a1.1,1.1,0,0,0,1.267,1l-.184-1.1.815-.133.345,2.077-2.679.447-.114-.693Z" transform="translate(-2855.938 -2123.788)" fill="#67737a"/>
      <path id="Path_591" data-name="Path 591" d="M2938.563,2162.381l.134,3.754-.923.036-.1-2.648-1.075.034.086,2.436-.856.032-.088-2.432-1.228.041.091,2.71-.925.034-.136-3.815Z" transform="translate(-2855.885 -2123.245)" fill="#67737a"/>
      <path id="Path_592" data-name="Path 592" d="M2938.7,2166.883l-.1,1.094-3.545,1.787v.012l3.357.3-.095,1.028-5-.442.1-1.105,3.535-1.782v-.01l-3.347-.3.09-1.023Z" transform="translate(-2855.908 -2122.801)" fill="#67737a"/>
      <path id="Path_593" data-name="Path 593" d="M2935.789,2174.858a1.077,1.077,0,0,0,1.1-.871c.222-.967-.514-1.52-1.375-1.718-.813-.188-1.721-.01-1.943.951a1.13,1.13,0,0,0,.841,1.363l-.24,1.046a2.12,2.12,0,0,1-1.505-2.614,2.634,2.634,0,0,1,5.124,1.181,2.029,2.029,0,0,1-2.243,1.706Z" transform="translate(-2855.987 -2122.291)" fill="#67737a"/>
      <rect id="Rectangle_28" data-name="Rectangle 28" width="1.105" height="5.02" transform="translate(75.727 54.455) rotate(-71.833)" fill="#67737a"/>
      <path id="Path_594" data-name="Path 594" d="M2935.839,2180.157l-.454,1.038-5.357-.285.46-1.052,1.178.1.748-1.722-.869-.81.447-1.025Zm-2.784-1.33-.52,1.2,1.945.154,0-.013Z" transform="translate(-2856.268 -2121.714)" fill="#67737a"/>
      <path id="Path_595" data-name="Path 595" d="M2931.112,2182.069c-.574-.335-1.063-.024-1.364.487-.2.332-.4.9.043,1.162.467.271.925-.327,1.473-.864s1.181-1.043,1.992-.563a1.677,1.677,0,0,1,.354,2.388c-.535.9-1.417,1.5-2.415.91l.542-.925c.539.281.89-.01,1.159-.459.177-.307.255-.732-.1-.948-.335-.2-.5-.016-1.413.9a1.607,1.607,0,0,1-2.022.539c-.794-.466-1.021-1.441-.323-2.615a1.855,1.855,0,0,1,2.622-.936Z" transform="translate(-2856.422 -2121.224)" fill="#67737a"/>
      <path id="Path_596" data-name="Path 596" d="M2874.266,2187.451a.866.866,0,1,1-.869-.872.871.871,0,0,1,.869.872" transform="translate(-2862.547 -2120.602)" fill="#67737a" fill-rule="evenodd"/>
      <path id="Path_597" data-name="Path 597" d="M2928.841,2187.874a.867.867,0,1,1-.866-.859.866.866,0,0,1,.866.859" transform="translate(-2856.587 -2120.554)" fill="#67737a" fill-rule="evenodd"/>
      <path id="Path_598" data-name="Path 598" d="M2875.429,2191.524a.92.92,0,0,0,.361,1.354c.307.209.832.45,1.116.046.3-.426-.24-.915-.714-1.482s-.91-1.214-.387-1.962a1.621,1.621,0,0,1,2.325-.158c.829.589,1.332,1.48.689,2.4l-.844-.6c.308-.494.055-.856-.36-1.149-.277-.195-.683-.305-.918.03-.213.3-.052.476.764,1.433a1.547,1.547,0,0,1,.36,1.982c-.512.727-1.464.866-2.543.108a1.8,1.8,0,0,1-.7-2.595Z" transform="translate(-2862.36 -2120.347)" fill="#67737a"/>
      <path id="Path_599" data-name="Path 599" d="M2880.962,2191.264l.931.566-.963,5.089-.946-.578.244-1.11-1.549-.938-.885.723-.919-.563Zm-1.63,2.489,1.071.654.4-1.84-.013,0Z" transform="translate(-2862.073 -2120.09)" fill="#67737a"/>
      <path id="Path_600" data-name="Path 600" d="M2883.126,2192.7l1.342.672-.483,3.492.012.007,2.455-2.5,1.344.673-2.177,4.336-.894-.45,1.547-3.071-.014,0-2.608,2.539-.733-.366.467-3.575-.016,0-1.526,3.038-.894-.449Z" transform="translate(-2861.629 -2119.933)" fill="#67737a"/>
      <path id="Path_601" data-name="Path 601" d="M2890.542,2199.313a2.072,2.072,0,0,1-3.864-1.479l1.082-2.816.995.385-1.08,2.812a.89.89,0,0,0,.559,1.341c.708.273,1.056.051,1.314-.623l1.078-2.818,1,.387Z" transform="translate(-2861.022 -2119.68)" fill="#67737a"/>
      <path id="Path_602" data-name="Path 602" d="M2893.187,2196.969l2.046.435a2.129,2.129,0,0,1,1.649,2.811,2.157,2.157,0,0,1-2.665,1.937l-2.047-.441Zm.214,4.087.934.2c.6.128,1.26-.117,1.485-1.168.205-.956,0-1.639-1.037-1.863l-.742-.159Z" transform="translate(-2860.402 -2119.468)" fill="#67737a"/>
      <path id="Path_603" data-name="Path 603" d="M2897.225,2197.8l3.618.253-.063.9-2.554-.179-.073,1.041,2.343.162-.057.826-2.343-.162-.083,1.188,2.607.18-.064.9-3.672-.263Z" transform="translate(-2859.888 -2119.375)" fill="#67737a"/>
      <path id="Path_604" data-name="Path 604" d="M2905.533,2200.946a1.608,1.608,0,0,1-3.178.492l-.047-.416.956-.109.028.222c.05.461.2.787.705.733.557-.065.507-.512.469-.853l-.36-3.251,1.062-.119Z" transform="translate(-2859.297 -2119.394)" fill="#67737a"/>
      <path id="Path_605" data-name="Path 605" d="M2906.678,2197.339l1.072-.236,2.8,4.349-1.081.233-.587-.974-1.771.388-.14,1.136-1.056.231Zm.536,2.927,1.232-.273-.979-1.6-.014.006Z" transform="translate(-2858.901 -2119.453)" fill="#67737a"/>
      <path id="Path_606" data-name="Path 606" d="M2909.246,2196.724l1.018-.327,1.215,3.761,2.243-.732.28.854-3.265,1.057Z" transform="translate(-2858.537 -2119.529)" fill="#67737a"/>
      <rect id="Rectangle_29" data-name="Rectangle 29" width="1.067" height="4.849" transform="translate(54.314 75.971) rotate(-21.303)" fill="#67737a"/>
      <path id="Path_607" data-name="Path 607" d="M2915.979,2197.751a.92.92,0,0,0,1.354.354c.337-.163.807-.507.593-.953-.22-.47-.915-.24-1.642-.109s-1.506.194-1.895-.631a1.61,1.61,0,0,1,1.011-2.093c.913-.433,1.944-.433,2.423.58l-.933.442c-.279-.514-.716-.472-1.182-.253-.3.147-.6.439-.427.813.16.332.391.277,1.625.042.359-.07,1.432-.337,1.9.659.381.8.032,1.705-1.157,2.267a1.8,1.8,0,0,1-2.6-.679Z" transform="translate(-2857.991 -2119.787)" fill="#67737a"/>
      <path id="Path_608" data-name="Path 608" d="M2920.847,2193.3a1.042,1.042,0,0,0-1.347-.17c-.817.5-.7,1.38-.257,2.1.424.691,1.153,1.2,1.971.7a1.089,1.089,0,0,0,.374-1.5l.878-.538a2.046,2.046,0,0,1-.785,2.805,2.547,2.547,0,0,1-2.649-4.339,1.972,1.972,0,0,1,2.694.4Z" transform="translate(-2857.594 -2120.009)" fill="#67737a"/>
      <path id="Path_609" data-name="Path 609" d="M2922.325,2189.977a2.545,2.545,0,1,1-.085,3.5,2.352,2.352,0,0,1,.085-3.5m2.775,3.131a1.4,1.4,0,0,0-.088-2.091c-.564-.634-1.372-1-2.091-.371s-.446,1.483.118,2.123a1.4,1.4,0,0,0,2.062.338" transform="translate(-2857.199 -2120.299)" fill="#67737a"/>
    </g>
  </g>
</svg>
