<svg xmlns="http://www.w3.org/2000/svg" width="191" height="87" viewBox="0 0 191 87">
  <g id="Group_3997" data-name="Group 3997" transform="translate(-554 -3865.096)">
    <rect id="Rectangle_6005" data-name="Rectangle 6005" width="191" height="87" transform="translate(554 3865.096)" fill="#fff" opacity="0"/>
    <g id="Group_3548" data-name="Group 3548" transform="translate(586 3884.096)">
      <path id="Path_552" data-name="Path 552" d="M3008.625,2148.22a14.8,14.8,0,0,1-20.414,0c-8.162,0-14.288,8.164-14.288,16.327,0,.34,0,.676.017,1.007h4.024c-.011-.331-.017-.67-.017-1.007a13.775,13.775,0,0,1,3.147-8.654,9.508,9.508,0,0,1,7.117-3.65,11.683,11.683,0,0,1,7.374,2.917,3.944,3.944,0,0,0,2.821,1.187h.038a3.98,3.98,0,0,0,2.823-1.206,11.76,11.76,0,0,1,7.358-2.9,9.5,9.5,0,0,1,7.116,3.65,13.746,13.746,0,0,1,3.154,8.654c0,.337-.013.676-.02,1.007h4.028c0-.331.01-.667.01-1.007,0-8.163-6.12-16.327-14.289-16.327m3.469,37.07c-3.928,5.018-8.91,7.9-13.679,7.9s-9.737-2.878-13.67-7.9a31.856,31.856,0,0,1-5.641-11.6h-4.142c3.213,13.764,13.334,23.522,23.453,23.522,6.133,0,12.254-3.574,16.844-9.446a36.154,36.154,0,0,0,6.614-14.076h-4.134a32,32,0,0,1-5.645,11.6" transform="translate(-2969.831 -2148.22)" fill="#676d72"/>
      <path id="Path_553" data-name="Path 553" d="M3028.019,2163.986v4.081h-12.256a2.034,2.034,0,0,0-2.032,2.039v5.147a6.126,6.126,0,1,1-12.252,0v-10.218a2.042,2.042,0,1,0-4.083,0v5.071a6.122,6.122,0,1,1-12.244,0,2.044,2.044,0,0,0-2.049-2.039h-12.245v-4.081H2983.1a6.12,6.12,0,0,1,6.127,6.12,2.044,2.044,0,0,0,4.088,0v-5.071a6.124,6.124,0,1,1,12.248,0v10.218a2.04,2.04,0,1,0,4.08,0v-5.147a6.119,6.119,0,0,1,6.117-6.12Z" transform="translate(-2970.858 -2144.639)" fill="#676d72"/>
      <path id="Path_554" data-name="Path 554" d="M3028.272,2172.429a6.933,6.933,0,0,1-4.017-1.1,4.108,4.108,0,0,1-1.873-2.921c-.038-.244.074-.368.335-.368h2.2a.391.391,0,0,1,.384.293,2.131,2.131,0,0,0,1.045,1.289,3.9,3.9,0,0,0,2.007.485,2.966,2.966,0,0,0,1.612-.388,1.191,1.191,0,0,0,.6-1.052,1.149,1.149,0,0,0-.424-.927,2.814,2.814,0,0,0-1.095-.515c-.452-.108-.95-.2-1.5-.294a13.529,13.529,0,0,1-1.644-.368,7.345,7.345,0,0,1-1.494-.619,2.862,2.862,0,0,1-1.1-1.145,3.783,3.783,0,0,1-.421-1.853,3.49,3.49,0,0,1,1.427-2.9,5.943,5.943,0,0,1,3.74-1.109,6.568,6.568,0,0,1,3.691,1.005,3.948,3.948,0,0,1,1.829,2.706c.064.231-.049.349-.334.349h-2.215a.419.419,0,0,1-.4-.277,1.868,1.868,0,0,0-.832-1.108,2.945,2.945,0,0,0-1.571-.385,2.758,2.758,0,0,0-1.586.414,1.293,1.293,0,0,0-.609,1.118,1.258,1.258,0,0,0,.561,1.079,3.451,3.451,0,0,0,1.412.536c.571.092,1.178.213,1.832.37a13.594,13.594,0,0,1,1.828.553,3.048,3.048,0,0,1,1.412,1.113,3.7,3.7,0,0,1-.909,4.917,6.27,6.27,0,0,1-3.882,1.1" transform="translate(-2953.592 -2144.627)" fill="#676d72"/>
      <path id="Path_555" data-name="Path 555" d="M3044.214,2170.839a.323.323,0,0,1-.3.389,4.981,4.981,0,0,1-1.381.223,2.426,2.426,0,0,1-2.327-1.128,4.546,4.546,0,0,1-3.1,1.128,4.785,4.785,0,0,1-3.5-1.328,5.036,5.036,0,0,1,0-6.884,4.771,4.771,0,0,1,3.5-1.328,4.117,4.117,0,0,1,2.618.847v-.2a.31.31,0,0,1,.35-.35h2.034a.309.309,0,0,1,.349.35v5.794c0,.481.2.72.609.72a2.71,2.71,0,0,0,.575-.054c.246-.025.374.074.386.3Zm-6.864-1.549a2.14,2.14,0,0,0,1.678-.729,3.06,3.06,0,0,0,0-3.764,2.132,2.132,0,0,0-1.678-.729,2.218,2.218,0,0,0-1.72.729,3,3,0,0,0,0,3.764,2.226,2.226,0,0,0,1.72.729" transform="translate(-2950.282 -2143.63)" fill="#676d72"/>
      <path id="Path_556" data-name="Path 556" d="M3045.309,2172.559a3.272,3.272,0,0,1-2.058-.593,1.919,1.919,0,0,1-.768-1.6v-11.408a.312.312,0,0,1,.351-.35h2.07a.314.314,0,0,1,.354.35v10.522c0,.468.2.7.624.7a2.708,2.708,0,0,0,.558-.053c.239-.025.373.073.386.3l.18,1.528a.323.323,0,0,1-.292.389,4.956,4.956,0,0,1-1.4.223" transform="translate(-2946.853 -2144.738)" fill="#676d72"/>
      <path id="Path_557" data-name="Path 557" d="M3058.255,2170.766a.332.332,0,0,1-.273.389,5.148,5.148,0,0,1-1.4.222,2.7,2.7,0,0,1-2.472-1.071,4.454,4.454,0,0,1-3.137,1.071,3.863,3.863,0,0,1-2.893-1.121,4.042,4.042,0,0,1-1.1-2.964v-4.813a.31.31,0,0,1,.349-.35h2.068a.31.31,0,0,1,.35.35v4.448a2.143,2.143,0,0,0,.527,1.513,1.824,1.824,0,0,0,1.411.574,2.012,2.012,0,0,0,1.478-.545,1.955,1.955,0,0,0,.55-1.45v-4.539a.312.312,0,0,1,.353-.35h2.088a.31.31,0,0,1,.35.35v5.794c0,.481.2.72.609.72a2.425,2.425,0,0,0,.572-.058.335.335,0,0,1,.41.3Z" transform="translate(-2945.347 -2143.557)" fill="#676d72"/>
      <path id="Path_558" data-name="Path 558" d="M3068.3,2171.947a.307.307,0,0,1-.277.389,5.1,5.1,0,0,1-1.423.223,2.382,2.382,0,0,1-2.323-1.163,4.257,4.257,0,0,1-3.061,1.163,4.794,4.794,0,0,1-3.5-1.328,5.045,5.045,0,0,1,0-6.884,4.777,4.777,0,0,1,3.5-1.328,4.241,4.241,0,0,1,2.564.789v-4.854a.308.308,0,0,1,.347-.35h2.093a.309.309,0,0,1,.347.35v10.522c0,.468.2.7.609.7a2.52,2.52,0,0,0,.555-.053c.26-.025.392.073.4.3Zm-6.85-1.549a2.135,2.135,0,0,0,1.68-.729,3.052,3.052,0,0,0,0-3.764,2.127,2.127,0,0,0-1.68-.729,2.208,2.208,0,0,0-1.713.729,2.982,2.982,0,0,0,0,3.764,2.217,2.217,0,0,0,1.713.729" transform="translate(-2942.206 -2144.738)" fill="#676d72"/>
    </g>
  </g>
</svg>
